<svg width="24" height="24" viewBox="0 0 24 24" fill="none" xmlns="http://www.w3.org/2000/svg">
<path d="M3 10H21M9 5H6.2C5.0799 5 4.51984 5 4.09202 5.21799C3.71569 5.40973 3.40973 5.71569 3.21799 6.09202C3 6.51984 3 7.0799 3 8.2V17.8C3 18.9201 3 19.4802 3.21799 19.908C3.40973 20.2843 3.71569 20.5903 4.09202 20.782C4.51984 21 5.0799 21 6.2 21H17.8C18.9201 21 19.4802 21 19.908 20.782C20.2843 20.5903 20.5903 20.2843 20.782 19.908C21 19.4802 21 18.9201 21 17.8V8.2C21 7.0799 21 6.51984 20.782 6.09202C20.5903 5.71569 20.2843 5.40973 19.908 5.21799C19.4802 5 18.9201 5 17.8 5H15M9 5H15M9 5V4.5C9 3.67157 8.32843 3 7.5 3C6.67157 3 6 3.67157 6 4.5V5M15 5V4.5C15 3.67157 15.6716 3 16.5 3C17.3284 3 18 3.67157 18 4.5V5" stroke="#272D37" stroke-width="1.67" stroke-linecap="round"/>
</svg>
