<svg width="136" height="40" viewBox="0 0 136 40" fill="none" xmlns="http://www.w3.org/2000/svg">
<g clip-path="url(#clip0_101_639491)">
<path d="M130.401 39.7964H5.39989C2.65039 39.7964 0.400391 37.5707 0.400391 34.85V5.15361C0.400391 2.43201 2.65039 0.203613 5.39989 0.203613H130.401C133.147 0.203613 135.4 2.43201 135.4 5.15361V34.85C135.4 37.5707 133.15 39.7964 130.401 39.7964Z" fill="black"/>
<path d="M130.401 0.994637C132.714 0.994637 134.598 2.86124 134.598 5.15264V34.8499C134.598 37.1386 132.715 39.0052 130.401 39.0052H5.39989C3.08239 39.0052 1.20139 37.1422 1.20139 34.8499V5.15354C1.20139 2.86124 3.08599 0.994637 5.39989 0.994637H130.401ZM130.401 0.202637H5.39989C2.65039 0.203537 0.400391 2.43194 0.400391 5.15354V34.8499C0.400391 37.5706 2.65039 39.7999 5.39989 39.7999H130.401C133.147 39.7999 135.4 37.5706 135.4 34.8499V5.15354C135.4 2.43194 133.15 0.203537 130.401 0.203537V0.202637Z" fill="#A6A6A6"/>
<path d="M44.8697 13.2859C43.9877 13.2859 43.2281 12.9799 42.6062 12.3706C41.987 11.7586 41.6738 10.9963 41.6738 10.0999C41.6738 9.20348 41.987 8.44028 42.6062 7.83548C43.2245 7.22798 43.9877 6.91748 44.8697 6.91748C45.2954 6.91748 45.7202 7.00298 46.1324 7.17488C46.5365 7.34678 46.8596 7.57538 47.099 7.86068L47.144 7.91648L46.5113 8.54918L46.4555 8.48258C46.0649 8.03258 45.5483 7.81118 44.8697 7.81118C44.5765 7.80789 44.2856 7.86239 44.0135 7.97157C43.7414 8.08075 43.4934 8.24247 43.2839 8.44748C42.8411 8.86958 42.6197 9.42488 42.6197 10.0999C42.6197 10.7785 42.8411 11.3374 43.2839 11.7595C43.7339 12.1816 44.2685 12.3922 44.8697 12.3922C45.5168 12.3922 46.0577 12.178 46.487 11.7559C46.7507 11.4922 46.9055 11.1439 46.9577 10.6867H44.7887V9.81188H47.837L47.8514 9.87488C47.8829 10.0189 47.9 10.1665 47.9 10.3429C47.9 11.1826 47.6399 11.872 47.1341 12.3814C46.55 12.979 45.7913 13.285 44.8697 13.285V13.2859ZM52.5062 13.1482H48.8459V7.05518H52.5062V7.94438H49.7774V9.66338H52.2389V10.5391H49.7774V12.2581H52.5062V13.1482ZM55.7579 13.1482H54.8264V7.94438H53.1524V7.05518H57.4346V7.94438H55.7579V13.1482ZM61.1858 13.1482H60.2579V7.05518H61.1858V13.1482ZM64.6058 13.1482H63.6824V7.94438H62.0012V7.05518H66.287V7.94438H64.6067L64.6058 13.1482ZM71.8139 13.285C70.9175 13.285 70.1579 12.9754 69.5531 12.3607C68.9519 11.7487 68.6459 10.9891 68.6459 10.1035C68.6459 9.21428 68.9519 8.45108 69.5531 7.84268C70.1579 7.23068 70.9175 6.91838 71.8139 6.91838C72.7031 6.91838 73.4591 7.23068 74.0639 7.84988C74.6687 8.46188 74.9738 9.22058 74.9738 10.1035C74.9738 10.9891 74.6678 11.7523 74.0675 12.3643C73.4627 12.9763 72.7031 13.285 71.8139 13.285ZM70.2353 11.7523C70.6709 12.1843 71.1839 12.3958 71.8139 12.3958C72.1053 12.4013 72.3948 12.3471 72.6644 12.2364C72.9341 12.1257 73.1782 11.961 73.3817 11.7523C73.8101 11.323 74.0288 10.7677 74.0288 10.0999C74.0288 9.43568 73.8101 8.88038 73.3808 8.45108C72.9596 8.02178 72.4322 7.80758 71.8139 7.80758C71.1875 7.80758 70.6709 8.01818 70.2353 8.45108C69.8096 8.88038 69.5918 9.43568 69.5918 10.0999C69.5918 10.7677 69.8096 11.3239 70.2353 11.7523ZM80.6798 13.1473H79.7519L79.7276 13.1095L76.7954 8.45828L76.8233 9.36908V13.1482H75.8954V7.05518H76.9574L79.7762 11.5165L79.7492 10.6129V7.05518H80.6798V13.1473ZM68.5334 21.7369C66.1889 21.7369 64.2692 23.5054 64.2692 25.9444C64.2692 28.3672 66.1889 30.1564 68.5334 30.1564C70.8887 30.1564 72.8084 28.3672 72.8084 25.9444C72.8084 23.5054 70.8887 21.7369 68.5334 21.7369ZM68.5334 28.4968C67.2464 28.4968 66.1394 27.4429 66.1394 25.9444C66.1394 24.4297 67.2464 23.3929 68.5334 23.3929C69.824 23.3929 70.9382 24.4297 70.9382 25.9444C70.9382 27.4429 69.824 28.4968 68.5334 28.4968ZM59.2247 21.7369C56.8694 21.7369 54.9569 23.5054 54.9569 25.9444C54.9569 28.3672 56.8694 30.1564 59.2247 30.1564C61.5773 30.1564 63.4934 28.3672 63.4934 25.9444C63.4934 23.5054 61.5764 21.7369 59.2247 21.7369ZM59.2247 28.4968C57.935 28.4968 56.8235 27.4429 56.8235 25.9444C56.8235 24.4297 57.935 23.3929 59.2247 23.3929C60.5117 23.3929 61.6223 24.4297 61.6223 25.9444C61.6223 27.4429 60.5117 28.4968 59.2247 28.4968ZM48.1439 23.0266V24.8167H52.4612C52.3352 25.8148 51.9968 26.5492 51.4802 27.0631C50.8502 27.6814 49.8692 28.3672 48.1439 28.3672C45.4889 28.3672 43.4081 26.2468 43.4081 23.6179C43.4081 20.9881 45.4898 18.8641 48.1439 18.8641C49.5821 18.8641 50.6261 19.4194 51.3956 20.1403L52.6718 18.8785C51.5918 17.8588 50.1581 17.0785 48.1439 17.0785C44.5016 17.0785 41.4434 20.0107 41.4434 23.6179C41.4434 27.2206 44.5052 30.1564 48.1439 30.1564C50.1122 30.1564 51.5927 29.5174 52.7564 28.3177C53.948 27.1405 54.317 25.4809 54.317 24.1444C54.317 23.7268 54.2819 23.347 54.2225 23.0266H48.1439ZM93.4535 24.4126C93.1016 23.4694 92.0189 21.7369 89.8112 21.7369C87.6206 21.7369 85.7999 23.4415 85.7999 25.9444C85.7999 28.3042 87.6035 30.1564 90.0182 30.1564C91.973 30.1564 93.1016 28.9756 93.5624 28.2898L92.1134 27.3331C91.6283 28.0333 90.9704 28.4968 90.0182 28.4968C89.0732 28.4968 88.3946 28.0684 87.9581 27.2206L93.6461 24.8896C93.6497 24.8896 93.4535 24.4126 93.4535 24.4126ZM87.6521 25.8148C87.6035 24.1903 88.9247 23.3605 89.8751 23.3605C90.6158 23.3605 91.2449 23.7268 91.4564 24.2542L87.6521 25.8148ZM83.0297 29.8999H84.8999V17.5249H83.0297V29.8999ZM79.967 22.672H79.904C79.4855 22.1833 78.6836 21.736 77.6684 21.736C75.5372 21.736 73.5896 23.5855 73.5896 25.9588C73.5896 28.3213 75.5372 30.1564 77.6684 30.1564C78.6836 30.1564 79.4864 29.7064 79.904 29.2006H79.967V29.8018C79.967 31.4119 79.0985 32.2768 77.6963 32.2768C76.5533 32.2768 75.8468 31.4605 75.5516 30.7756L73.9271 31.447C74.3951 32.5612 75.6362 33.9355 77.6963 33.9355C79.8896 33.9355 81.7391 32.6593 81.7391 29.5525V21.9925H79.967V22.672ZM77.8259 28.4968C76.5389 28.4968 75.4598 27.4285 75.4598 25.9588C75.4598 24.4756 76.5398 23.3929 77.8268 23.3929C79.0985 23.3929 80.0975 24.4756 80.0975 25.9588C80.0975 27.4285 79.0985 28.4968 77.8259 28.4968ZM102.207 17.5249H97.7348V29.8999H99.6023V25.2109H102.207C104.281 25.2109 106.31 23.7259 106.31 21.3679C106.31 19.0081 104.274 17.5249 102.207 17.5249ZM102.256 23.491H99.6014V19.2475H102.256C103.649 19.2475 104.443 20.3905 104.443 21.3679C104.443 22.3237 103.649 23.491 102.256 23.491ZM113.784 21.7117C112.437 21.7117 111.039 22.303 110.463 23.6071L112.114 24.2929C112.472 23.6071 113.127 23.3821 113.82 23.3821C114.786 23.3821 115.767 23.9581 115.782 24.9751V25.1047C115.443 24.9112 114.722 24.6268 113.833 24.6268C112.051 24.6268 110.237 25.597 110.237 27.4105C110.237 29.0701 111.696 30.1357 113.337 30.1357C114.593 30.1357 115.285 29.5732 115.721 28.9225H115.784V29.8792H117.584V25.1326C117.584 22.9393 115.928 21.7117 113.784 21.7117ZM113.559 28.4932C112.947 28.4932 112.101 28.1917 112.101 27.4429C112.101 26.4862 113.158 26.1199 114.076 26.1199C114.899 26.1199 115.282 26.2999 115.781 26.5357C115.637 27.6814 114.638 28.4932 113.559 28.4932ZM124.148 21.9826L122.003 27.3475H121.94L119.722 21.9835H117.711L121.04 29.4778L119.141 33.6511H121.09L126.219 21.9826H124.149H124.148ZM107.335 29.8999H109.206V17.5249H107.335V29.8999Z" fill="white"/>
<path d="M10.8345 7.66371C10.5429 7.96971 10.3701 8.44041 10.3701 9.05601V30.9476C10.3701 31.5632 10.5393 32.0339 10.8345 32.3399L10.9083 32.4065L23.3013 20.144V19.856L10.9074 7.59351L10.8345 7.66371Z" fill="url(#paint0_linear_101_639491)"/>
<path d="M27.4282 24.2363L23.3008 20.144V19.856L27.4318 15.7673L27.5236 15.8195L32.4169 18.5762C33.8128 19.3601 33.8128 20.6435 32.4169 21.431L27.5236 24.1832C27.5236 24.1805 27.4282 24.2363 27.4282 24.2363Z" fill="url(#paint1_linear_101_639491)"/>
<path d="M27.5237 24.1805L23.3009 20L10.835 32.339C11.2985 32.8214 12.0545 32.8808 12.9158 32.3993L27.5237 24.1805Z" fill="url(#paint2_linear_101_639491)"/>
<path d="M27.5237 15.8194L12.9167 7.6006C12.0545 7.1218 11.2985 7.1821 10.835 7.6636L23.3009 19.9999L27.5237 15.8194Z" fill="url(#paint3_linear_101_639491)"/>
</g>
<defs>
<linearGradient id="paint0_linear_101_639491" x1="22.2067" y1="31.1742" x2="5.58653" y2="14.3865" gradientUnits="userSpaceOnUse">
<stop stop-color="#00A0FF"/>
<stop offset="0.007" stop-color="#00A1FF"/>
<stop offset="0.26" stop-color="#00BEFF"/>
<stop offset="0.512" stop-color="#00D2FF"/>
<stop offset="0.76" stop-color="#00DFFF"/>
<stop offset="1" stop-color="#00E3FF"/>
</linearGradient>
<linearGradient id="paint1_linear_101_639491" x1="34.2472" y1="19.9915" x2="10.0414" y2="19.9915" gradientUnits="userSpaceOnUse">
<stop stop-color="#FFE000"/>
<stop offset="0.409" stop-color="#FFBD00"/>
<stop offset="0.775" stop-color="#FFA500"/>
<stop offset="1" stop-color="#FF9C00"/>
</linearGradient>
<linearGradient id="paint2_linear_101_639491" x1="16.889" y1="25.9817" x2="-5.64938" y2="3.21626" gradientUnits="userSpaceOnUse">
<stop stop-color="#FF3A44"/>
<stop offset="1" stop-color="#C31162"/>
</linearGradient>
<linearGradient id="paint3_linear_101_639491" x1="-0.644933" y1="31.3624" x2="9.41946" y2="21.1967" gradientUnits="userSpaceOnUse">
<stop stop-color="#32A071"/>
<stop offset="0.069" stop-color="#2DA771"/>
<stop offset="0.476" stop-color="#15CF74"/>
<stop offset="0.801" stop-color="#06E775"/>
<stop offset="1" stop-color="#00F076"/>
</linearGradient>
<clipPath id="clip0_101_639491">
<rect width="135" height="40" fill="white" transform="translate(0.400391)"/>
</clipPath>
</defs>
</svg>
