<svg width="121" height="40" viewBox="0 0 121 40" fill="none" xmlns="http://www.w3.org/2000/svg">
<g clip-path="url(#clip0_2402_13932)">
<path d="M111.053 0H10.453C10.086 0 9.723 0 9.358 0.002C9.052 0.004 8.748 0.01 8.439 0.015C7.76752 0.0223323 7.09758 0.0808351 6.435 0.19C5.77372 0.302207 5.13318 0.513588 4.535 0.817C3.93671 1.12335 3.39009 1.52151 2.915 1.997C2.43825 2.47032 2.04083 3.01732 1.738 3.617C1.43408 4.21585 1.22332 4.85757 1.113 5.52C1.00173 6.18171 0.941881 6.85105 0.933999 7.522C0.923999 7.829 0.923999 8.137 0.918999 8.443V31.56C0.923999 31.87 0.924999 32.17 0.933999 32.481C0.942208 33.152 1.00239 33.8213 1.114 34.483C1.22361 35.1461 1.43404 35.7885 1.738 36.388C2.04112 36.9854 2.43893 37.5297 2.916 38C3.38875 38.4771 3.93504 38.8751 4.534 39.179C5.13252 39.4831 5.77335 39.6954 6.435 39.809C7.09765 39.9179 7.76752 39.9771 8.439 39.986C8.749 39.993 9.052 39.997 9.358 39.997C9.724 39.999 10.086 39.999 10.453 39.999H111.053C111.413 39.999 111.777 39.999 112.137 39.997C112.441 39.997 112.754 39.993 113.059 39.987C113.729 39.9782 114.398 39.9187 115.059 39.809C115.723 39.6946 116.366 39.4823 116.967 39.179C117.566 38.875 118.112 38.4769 118.584 38C119.06 37.5273 119.459 36.9827 119.766 36.386C120.068 35.7862 120.277 35.1438 120.385 34.481C120.496 33.8192 120.558 33.15 120.57 32.479C120.574 32.169 120.574 31.869 120.574 31.558C120.582 31.194 120.582 30.833 120.582 30.464V9.536C120.582 9.17 120.582 8.806 120.574 8.444C120.574 8.138 120.574 7.83 120.57 7.524C120.558 6.85266 120.496 6.18314 120.385 5.521C120.276 4.8589 120.067 4.21723 119.765 3.618C119.148 2.41511 118.169 1.43588 116.967 0.818C116.366 0.515273 115.723 0.303946 115.059 0.191C114.398 0.0810377 113.729 0.0221968 113.059 0.015C112.754 0.01 112.441 0.004 112.137 0.002C111.777 0 111.412 0 111.053 0Z" fill="#A6A6A6"/>
<path d="M9.363 39.125C9.058 39.125 8.761 39.121 8.459 39.115C7.83247 39.1066 7.20743 39.0518 6.589 38.951C6.01284 38.8516 5.45471 38.6669 4.933 38.403C4.41589 38.1414 3.9442 37.7984 3.536 37.387C3.12207 36.9801 2.77751 36.5082 2.516 35.99C2.25106 35.4687 2.0676 34.9099 1.972 34.333C1.86929 33.7131 1.8138 33.0863 1.806 32.458C1.799 32.248 1.791 31.545 1.791 31.545V8.445C1.791 8.445 1.8 7.753 1.806 7.55C1.81345 6.92272 1.86861 6.29691 1.971 5.678C2.06661 5.09952 2.25006 4.53905 2.515 4.016C2.77571 3.4983 3.11847 3.0262 3.53 2.618C3.94096 2.20578 4.41404 1.86058 4.932 1.595C5.45264 1.33189 6.00986 1.14851 6.585 1.051C7.20536 0.949562 7.83245 0.894742 8.461 0.887L9.363 0.875H112.132L113.045 0.888C113.668 0.895224 114.289 0.949378 114.903 1.05C115.484 1.14872 116.047 1.33341 116.574 1.598C117.612 2.13288 118.456 2.97908 118.989 4.018C119.249 4.53755 119.43 5.0935 119.524 5.667C119.628 6.29093 119.686 6.9216 119.698 7.554C119.701 7.837 119.701 8.142 119.701 8.444C119.709 8.819 119.709 9.176 119.709 9.536V30.465C119.709 30.828 119.709 31.183 119.701 31.54C119.701 31.865 119.701 32.163 119.697 32.47C119.686 33.091 119.629 33.7103 119.527 34.323C119.434 34.9041 119.252 35.4673 118.987 35.993C118.723 36.5056 118.38 36.9733 117.971 37.379C117.562 37.7927 117.09 38.1377 116.571 38.401C116.046 38.6671 115.483 38.8525 114.903 38.951C114.285 39.0519 113.66 39.1064 113.034 39.114C112.741 39.121 112.434 39.125 112.137 39.125L111.053 39.127L9.363 39.125Z" fill="black"/>
<path d="M25.687 20.3C25.6979 19.4655 25.9196 18.6474 26.3315 17.9217C26.7434 17.1959 27.3322 16.5861 28.043 16.149C27.5914 15.5039 26.9956 14.973 26.303 14.5984C25.6104 14.2238 24.84 14.0158 24.053 13.991C22.373 13.815 20.745 14.996 19.889 14.996C19.017 14.996 17.699 14.008 16.281 14.038C15.3633 14.0676 14.4689 14.3344 13.685 14.8125C12.9011 15.2906 12.2544 15.9636 11.808 16.766C9.874 20.114 11.317 25.035 13.169 27.742C14.096 29.067 15.179 30.547 16.597 30.495C17.984 30.437 18.502 29.61 20.177 29.61C21.835 29.61 22.321 30.495 23.767 30.462C25.256 30.437 26.193 29.13 27.087 27.792C27.7535 26.8479 28.2665 25.8043 28.607 24.7C27.742 24.3343 27.0038 23.7221 26.4846 22.9396C25.9653 22.1571 25.6879 21.2391 25.687 20.3ZM22.955 12.21C23.7666 11.236 24.1666 9.98407 24.07 8.71997C22.83 8.85015 21.6845 9.44287 20.862 10.38C20.46 10.8374 20.152 11.3696 19.9557 11.9462C19.7594 12.5227 19.6786 13.1322 19.718 13.74C20.3381 13.7464 20.9516 13.612 21.5123 13.347C22.073 13.082 22.5663 12.6932 22.955 12.21Z" fill="white"/>
<path d="M43.22 27.1398H38.488L37.351 30.4958H35.346L39.83 18.0778H41.913L46.396 30.4958H44.357L43.22 27.1398ZM38.977 25.5898H42.729L40.879 20.1438H40.828L38.977 25.5898ZM56.077 25.9698C56.077 28.7828 54.572 30.5898 52.299 30.5898C51.7236 30.6199 51.1513 30.4873 50.6477 30.2074C50.144 29.9274 49.7293 29.5114 49.451 29.0068H49.408V33.4909H47.548V21.4418H49.348V22.9478H49.381C49.6721 22.4455 50.0939 22.0314 50.6015 21.7497C51.1092 21.468 51.6837 21.3291 52.264 21.3478C54.562 21.3478 56.077 23.1638 56.077 25.9698ZM54.167 25.9698C54.167 24.1368 53.22 22.9318 51.775 22.9318C50.355 22.9318 49.4 24.1618 49.4 25.9698C49.4 27.7938 50.355 29.0159 51.775 29.0159C53.22 29.0159 54.167 27.8188 54.167 25.9698ZM66.043 25.9698C66.043 28.7828 64.537 30.5898 62.264 30.5898C61.6886 30.6199 61.1163 30.4873 60.6127 30.2074C60.109 29.9274 59.6943 29.5114 59.416 29.0068H59.373V33.4909H57.514V21.4418H59.313V22.9478H59.347C59.6381 22.4455 60.0599 22.0314 60.5675 21.7497C61.0752 21.468 61.6497 21.3291 62.23 21.3478C64.528 21.3478 66.043 23.1638 66.043 25.9698ZM64.133 25.9698C64.133 24.1368 63.185 22.9318 61.74 22.9318C60.32 22.9318 59.365 24.1618 59.365 25.9698C59.365 27.7938 60.32 29.0159 61.74 29.0159C63.185 29.0159 64.133 27.8188 64.133 25.9698ZM72.628 27.0358C72.766 28.2678 73.962 29.0758 75.598 29.0758C77.164 29.0758 78.291 28.2678 78.291 27.1568C78.291 26.1928 77.611 25.6168 76.001 25.2208L74.392 24.8328C72.112 24.2828 71.053 23.2158 71.053 21.4848C71.053 19.3428 72.92 17.8708 75.572 17.8708C78.196 17.8708 79.995 19.3428 80.055 21.4848H78.179C78.067 20.2458 77.043 19.4978 75.545 19.4978C74.047 19.4978 73.024 20.2549 73.024 21.3559C73.024 22.2339 73.678 22.7508 75.279 23.1458L76.647 23.4818C79.195 24.0848 80.253 25.1078 80.253 26.9248C80.253 29.2478 78.403 30.7028 75.46 30.7028C72.706 30.7028 70.846 29.2828 70.726 27.0358H72.628ZM84.264 19.2998V21.4418H85.986V22.9138H84.264V27.9049C84.264 28.6809 84.609 29.0418 85.366 29.0418C85.5703 29.0383 85.7742 29.0239 85.977 28.9988V30.4618C85.6368 30.5254 85.291 30.5542 84.945 30.5478C83.112 30.5478 82.397 29.8589 82.397 28.1028V22.9138H81.081V21.4418H82.397V19.2998H84.264ZM86.983 25.9698C86.983 23.1208 88.661 21.3308 91.277 21.3308C93.902 21.3308 95.572 23.1208 95.572 25.9698C95.572 28.8258 93.911 30.6078 91.277 30.6078C88.644 30.6078 86.983 28.8258 86.983 25.9698ZM93.678 25.9698C93.678 24.0158 92.783 22.8618 91.277 22.8618C89.771 22.8618 88.877 24.0238 88.877 25.9698C88.877 27.9318 89.771 29.0758 91.277 29.0758C92.783 29.0758 93.678 27.9318 93.678 25.9698ZM97.104 21.4418H98.877V22.9828H98.92C99.0401 22.5019 99.3221 22.0769 99.7185 21.7792C100.115 21.4815 100.602 21.3292 101.097 21.3478C101.311 21.347 101.525 21.3701 101.734 21.4168V23.1549C101.464 23.0723 101.182 23.0345 100.899 23.0428C100.629 23.0319 100.36 23.0795 100.11 23.1824C99.8601 23.2852 99.6354 23.441 99.4514 23.6388C99.2674 23.8367 99.1284 24.0721 99.0439 24.3288C98.9594 24.5854 98.9315 24.8574 98.962 25.1258V30.4958H97.104V21.4418ZM110.302 27.8368C110.052 29.4798 108.452 30.6078 106.404 30.6078C103.77 30.6078 102.135 28.8438 102.135 26.0128C102.135 23.1728 103.779 21.3308 106.325 21.3308C108.831 21.3308 110.405 23.0509 110.405 25.7969V26.4338H104.011V26.5458C103.982 26.8791 104.023 27.2147 104.134 27.5305C104.244 27.8463 104.42 28.1351 104.65 28.3776C104.881 28.6201 105.16 28.8108 105.47 28.9371C105.78 29.0633 106.113 29.1222 106.447 29.1098C106.886 29.1509 107.326 29.0492 107.703 28.8198C108.08 28.5905 108.372 28.2457 108.537 27.8368H110.302ZM104.02 25.1348H108.546C108.563 24.8353 108.517 24.5355 108.413 24.2543C108.308 23.9731 108.147 23.7166 107.938 23.5008C107.73 23.285 107.479 23.1146 107.201 23.0004C106.924 22.8861 106.626 22.8305 106.326 22.8368C106.023 22.835 105.723 22.8931 105.443 23.0078C105.163 23.1226 104.909 23.2917 104.694 23.5053C104.48 23.719 104.31 23.973 104.194 24.2526C104.078 24.5323 104.019 24.8322 104.02 25.1348Z" fill="white"/>
<path d="M38.744 8.73101C39.1336 8.70306 39.5246 8.76192 39.8888 8.90336C40.2529 9.0448 40.5811 9.26528 40.8498 9.54892C41.1184 9.83256 41.3207 10.1723 41.4421 10.5436C41.5636 10.9148 41.6011 11.3085 41.552 11.696C41.552 13.602 40.522 14.698 38.744 14.698H36.589V8.73001L38.744 8.73101ZM37.516 13.854H38.641C38.9193 13.8705 39.1979 13.8248 39.4563 13.7201C39.7147 13.6154 39.9466 13.4544 40.135 13.2489C40.3234 13.0434 40.4636 12.7984 40.5454 12.5318C40.6272 12.2653 40.6486 11.9839 40.608 11.708C40.6457 11.4332 40.6222 11.1535 40.5392 10.8889C40.4561 10.6242 40.3155 10.3813 40.1276 10.1773C39.9396 9.97337 39.7088 9.81353 39.4518 9.70923C39.1948 9.60493 38.9179 9.55875 38.641 9.57401H37.516V13.854ZM42.599 12.444C42.571 12.1483 42.6051 11.8499 42.6991 11.5681C42.793 11.2863 42.9448 11.0273 43.1447 10.8075C43.3447 10.5878 43.5883 10.4122 43.86 10.2921C44.1316 10.172 44.4254 10.1099 44.7225 10.1099C45.0196 10.1099 45.3134 10.172 45.585 10.2921C45.8567 10.4122 46.1003 10.5878 46.3003 10.8075C46.5002 11.0273 46.652 11.2863 46.746 11.5681C46.8399 11.8499 46.874 12.1483 46.846 12.444C46.8755 12.7406 46.8426 13.0401 46.7493 13.3232C46.6561 13.6063 46.5045 13.8667 46.3045 14.0877C46.1044 14.3087 45.8603 14.4853 45.5878 14.6061C45.3153 14.727 45.0206 14.7894 44.7225 14.7894C44.4244 14.7894 44.1297 14.727 43.8572 14.6061C43.5847 14.4853 43.3406 14.3087 43.1405 14.0877C42.9405 13.8667 42.7889 13.6063 42.6957 13.3232C42.6024 13.0401 42.5695 12.7406 42.599 12.444ZM45.932 12.444C45.932 11.468 45.493 10.897 44.724 10.897C43.951 10.897 43.517 11.468 43.517 12.444C43.517 13.428 43.951 13.994 44.724 13.994C45.494 13.994 45.932 13.424 45.932 12.444ZM52.492 14.698H51.569L50.639 11.381H50.569L49.642 14.698H48.729L47.487 10.195H48.389L49.195 13.631H49.262L50.188 10.195H51.04L51.966 13.631H52.036L52.839 10.195H53.728L52.492 14.698ZM54.772 10.195H55.627V10.91H55.693C55.8057 10.6531 55.9958 10.4377 56.2367 10.294C56.4776 10.1502 56.7574 10.0852 57.037 10.108C57.2561 10.0916 57.4762 10.1246 57.6808 10.2047C57.8854 10.2848 58.0694 10.4099 58.2191 10.5708C58.3688 10.7316 58.4804 10.9241 58.5457 11.134C58.6109 11.3438 58.6281 11.5656 58.596 11.783V14.698H57.707V12.006C57.707 11.282 57.393 10.922 56.735 10.922C56.5863 10.9151 56.4378 10.9405 56.2998 10.9963C56.1618 11.0522 56.0375 11.1372 55.9354 11.2455C55.8333 11.3539 55.7558 11.4831 55.7083 11.6242C55.6607 11.7653 55.6443 11.915 55.66 12.063V14.698H54.772V10.195ZM60.012 8.43701H60.9V14.697H60.012V8.43701ZM62.136 12.444C62.108 12.1483 62.1421 11.8499 62.2361 11.5681C62.33 11.2863 62.4818 11.0273 62.6818 10.8075C62.8817 10.5878 63.1253 10.4122 63.397 10.2921C63.6686 10.172 63.9624 10.1099 64.2595 10.1099C64.5566 10.1099 64.8504 10.172 65.1221 10.2921C65.3937 10.4122 65.6373 10.5878 65.8373 10.8075C66.0372 11.0273 66.189 11.2863 66.283 11.5681C66.3769 11.8499 66.411 12.1483 66.383 12.444C66.4125 12.7406 66.3796 13.0401 66.2863 13.3232C66.1931 13.6063 66.0415 13.8667 65.8415 14.0877C65.6414 14.3087 65.3973 14.4853 65.1248 14.6061C64.8523 14.727 64.5576 14.7894 64.2595 14.7894C63.9614 14.7894 63.6667 14.727 63.3942 14.6061C63.1217 14.4853 62.8776 14.3087 62.6776 14.0877C62.4775 13.8667 62.3259 13.6063 62.2327 13.3232C62.1394 13.0401 62.1065 12.7406 62.136 12.444ZM65.469 12.444C65.469 11.468 65.03 10.897 64.261 10.897C63.488 10.897 63.054 11.468 63.054 12.444C63.054 13.428 63.488 13.994 64.261 13.994C65.031 13.994 65.469 13.424 65.469 12.444ZM67.319 13.424C67.319 12.614 67.922 12.146 68.994 12.08L70.214 12.01V11.621C70.214 11.146 69.899 10.877 69.292 10.877C68.795 10.877 68.452 11.059 68.353 11.377H67.493C67.583 10.604 68.311 10.107 69.333 10.107C70.461 10.107 71.098 10.67 71.098 11.621V14.698H70.243V14.065H70.173C70.0302 14.2921 69.8298 14.4772 69.5921 14.6014C69.3543 14.7256 69.0879 14.7845 68.82 14.772C68.6309 14.7917 68.4398 14.7716 68.259 14.7129C68.0782 14.6542 67.9117 14.5582 67.7703 14.4312C67.6288 14.3042 67.5156 14.1489 67.4379 13.9754C67.3602 13.802 67.3197 13.6141 67.319 13.424ZM70.213 13.04V12.663L69.113 12.733C68.493 12.775 68.213 12.986 68.213 13.383C68.213 13.788 68.564 14.023 69.047 14.023C69.1885 14.0373 69.3315 14.023 69.4674 13.9809C69.6033 13.9389 69.7293 13.87 69.8381 13.7783C69.9468 13.6866 70.0361 13.574 70.1005 13.4472C70.1649 13.3204 70.2031 13.1819 70.213 13.04ZM72.266 12.444C72.266 11.021 72.998 10.12 74.136 10.12C74.4173 10.1072 74.6964 10.1747 74.9407 10.3146C75.1851 10.4545 75.3846 10.661 75.516 10.91H75.583V8.43701H76.471V14.697H75.62V13.987H75.55C75.4082 14.2345 75.2014 14.4385 74.952 14.5769C74.7026 14.7153 74.42 14.7827 74.135 14.772C72.99 14.772 72.266 13.871 72.266 12.444ZM73.184 12.444C73.184 13.399 73.634 13.974 74.387 13.974C75.137 13.974 75.599 13.391 75.599 12.448C75.599 11.51 75.131 10.918 74.387 10.918C73.639 10.918 73.184 11.498 73.184 12.444ZM80.148 12.444C80.12 12.1483 80.1541 11.8499 80.2481 11.5681C80.342 11.2863 80.4938 11.0273 80.6938 10.8075C80.8937 10.5878 81.1373 10.4122 81.409 10.2921C81.6806 10.172 81.9744 10.1099 82.2715 10.1099C82.5686 10.1099 82.8624 10.172 83.1341 10.2921C83.4057 10.4122 83.6493 10.5878 83.8493 10.8075C84.0492 11.0273 84.201 11.2863 84.2949 11.5681C84.3889 11.8499 84.423 12.1483 84.395 12.444C84.4245 12.7406 84.3916 13.0401 84.2983 13.3232C84.2051 13.6063 84.0535 13.8667 83.8535 14.0877C83.6534 14.3087 83.4093 14.4853 83.1368 14.6061C82.8643 14.727 82.5696 14.7894 82.2715 14.7894C81.9734 14.7894 81.6787 14.727 81.4062 14.6061C81.1337 14.4853 80.8896 14.3087 80.6895 14.0877C80.4895 13.8667 80.338 13.6063 80.2447 13.3232C80.1514 13.0401 80.1185 12.7406 80.148 12.444ZM83.481 12.444C83.481 11.468 83.043 10.897 82.273 10.897C81.501 10.897 81.066 11.468 81.066 12.444C81.066 13.428 81.501 13.994 82.273 13.994C83.043 13.994 83.481 13.424 83.481 12.444ZM85.587 10.194H86.443V10.91H86.509C86.6217 10.6531 86.8118 10.4377 87.0527 10.294C87.2936 10.1502 87.5734 10.0852 87.853 10.108C88.0721 10.0916 88.2922 10.1246 88.4968 10.2047C88.7014 10.2848 88.8854 10.4099 89.0351 10.5708C89.1848 10.7316 89.2964 10.9241 89.3617 11.134C89.4269 11.3438 89.4441 11.5656 89.412 11.783V14.698H88.523V12.006C88.523 11.282 88.209 10.922 87.551 10.922C87.4023 10.9151 87.2538 10.9405 87.1158 10.9963C86.9778 11.0522 86.8535 11.1372 86.7514 11.2455C86.6493 11.3539 86.5718 11.4831 86.5243 11.6242C86.4767 11.7653 86.4603 11.915 86.476 12.063V14.698H85.587V10.194ZM94.433 9.07401V10.215H95.409V10.964H94.433V13.279C94.433 13.751 94.627 13.958 95.07 13.958C95.1833 13.9575 95.2965 13.9505 95.409 13.937V14.677C95.2492 14.7058 95.0873 14.7212 94.925 14.723C93.937 14.723 93.544 14.375 93.544 13.507V10.964H92.829V10.215H93.544V9.07401H94.433ZM96.623 8.43701H97.503V10.918H97.573C97.6913 10.6587 97.8868 10.4421 98.1326 10.2979C98.3785 10.1537 98.6629 10.0888 98.947 10.112C99.1649 10.1002 99.3828 10.1366 99.585 10.2187C99.7873 10.3008 99.9689 10.4265 100.117 10.5869C100.265 10.7473 100.376 10.9383 100.442 11.1465C100.507 11.3546 100.526 11.5747 100.497 11.791V14.698H99.608V12.01C99.608 11.29 99.273 10.926 98.645 10.926C98.4922 10.9135 98.3385 10.9344 98.1947 10.9875C98.0509 11.0406 97.9204 11.1244 97.8124 11.2332C97.7043 11.342 97.6214 11.4731 97.5693 11.6173C97.5173 11.7615 97.4974 11.9153 97.511 12.068V14.698H96.623V8.43701ZM105.679 13.482C105.558 13.8934 105.297 14.2493 104.941 14.4874C104.584 14.7256 104.155 14.831 103.729 14.785C103.432 14.7931 103.137 14.7364 102.864 14.6189C102.592 14.5014 102.348 14.3259 102.15 14.1046C101.952 13.8834 101.804 13.6216 101.718 13.3376C101.631 13.0536 101.607 12.7541 101.648 12.46C101.609 12.1652 101.633 11.8653 101.72 11.5808C101.806 11.2962 101.953 11.0335 102.15 10.8105C102.346 10.5875 102.589 10.4094 102.86 10.2882C103.132 10.167 103.427 10.1055 103.724 10.108C104.977 10.108 105.733 10.964 105.733 12.378V12.688H102.553V12.738C102.539 12.9033 102.56 13.0697 102.614 13.2266C102.668 13.3834 102.754 13.5271 102.867 13.6486C102.98 13.7701 103.118 13.8666 103.27 13.9319C103.423 13.9973 103.587 14.03 103.753 14.028C103.965 14.0532 104.18 14.0147 104.371 13.9175C104.561 13.8203 104.719 13.6687 104.823 13.482H105.679ZM102.553 12.031H104.828C104.839 11.8798 104.819 11.7278 104.768 11.585C104.717 11.4421 104.637 11.3115 104.532 11.2016C104.428 11.0917 104.301 11.0048 104.161 10.9467C104.021 10.8885 103.871 10.8604 103.719 10.864C103.565 10.8621 103.413 10.891 103.27 10.949C103.128 11.007 102.999 11.0929 102.89 11.2017C102.781 11.3104 102.696 11.4399 102.638 11.5823C102.58 11.7247 102.551 11.8773 102.553 12.031Z" fill="white"/>
</g>
<defs>
<clipPath id="clip0_2402_13932">
<rect width="120" height="40" fill="white" transform="translate(0.75)"/>
</clipPath>
</defs>
</svg>
