<svg width="121" height="40" viewBox="0 0 121 40" fill="none" xmlns="http://www.w3.org/2000/svg">
<g clip-path="url(#clip0_101_639483)">
<path d="M110.703 0H10.1033C9.73634 0 9.37334 0 9.00834 0.002C8.70234 0.004 8.39834 0.01 8.08934 0.015C7.41786 0.0223323 6.74792 0.0808351 6.08534 0.19C5.42406 0.302207 4.78351 0.513588 4.18534 0.817C3.58705 1.12335 3.04043 1.52151 2.56534 1.997C2.08859 2.47032 1.69117 3.01732 1.38834 3.617C1.08441 4.21585 0.873655 4.85757 0.763336 5.52C0.652064 6.18171 0.592218 6.85105 0.584336 7.522C0.574336 7.829 0.574336 8.137 0.569336 8.443V31.56C0.574336 31.87 0.575336 32.17 0.584336 32.481C0.592545 33.152 0.652725 33.8213 0.764336 34.483C0.873944 35.1461 1.08438 35.7885 1.38834 36.388C1.69146 36.9854 2.08927 37.5297 2.56634 38C3.03909 38.4771 3.58537 38.8751 4.18434 39.179C4.78286 39.4831 5.42369 39.6954 6.08534 39.809C6.74798 39.9179 7.41785 39.9771 8.08934 39.986C8.39934 39.993 8.70234 39.997 9.00834 39.997C9.37434 39.999 9.73634 39.999 10.1033 39.999H110.703C111.063 39.999 111.427 39.999 111.787 39.997C112.091 39.997 112.404 39.993 112.709 39.987C113.38 39.9782 114.048 39.9187 114.709 39.809C115.373 39.6946 116.016 39.4823 116.617 39.179C117.216 38.875 117.762 38.4769 118.234 38C118.711 37.5273 119.109 36.9827 119.416 36.386C119.718 35.7862 119.927 35.1438 120.035 34.481C120.147 33.8192 120.208 33.15 120.22 32.479C120.224 32.169 120.224 31.869 120.224 31.558C120.232 31.194 120.232 30.833 120.232 30.464V9.536C120.232 9.17 120.232 8.806 120.224 8.444C120.224 8.138 120.224 7.83 120.22 7.524C120.209 6.85266 120.147 6.18314 120.035 5.521C119.926 4.8589 119.717 4.21723 119.415 3.618C118.798 2.41511 117.82 1.43588 116.617 0.818C116.016 0.515273 115.373 0.303946 114.709 0.191C114.048 0.0810377 113.38 0.0221968 112.709 0.015C112.404 0.01 112.091 0.004 111.787 0.002C111.427 0 111.062 0 110.703 0Z" fill="#A6A6A6"/>
<path d="M9.01341 39.125C8.70841 39.125 8.41141 39.121 8.10941 39.115C7.48288 39.1066 6.85783 39.0518 6.23941 38.951C5.66325 38.8516 5.10511 38.6669 4.58341 38.403C4.06629 38.1414 3.59461 37.7984 3.18641 37.387C2.77247 36.9801 2.42792 36.5082 2.16641 35.99C1.90147 35.4687 1.71801 34.9099 1.62241 34.333C1.5197 33.7131 1.46421 33.0863 1.45641 32.458C1.44941 32.248 1.44141 31.545 1.44141 31.545V8.445C1.44141 8.445 1.45041 7.753 1.45641 7.55C1.46386 6.92272 1.51902 6.29691 1.62141 5.678C1.71702 5.09952 1.90047 4.53905 2.16541 4.016C2.42612 3.4983 2.76888 3.0262 3.18041 2.618C3.59136 2.20578 4.06445 1.86058 4.58241 1.595C5.10305 1.33189 5.66027 1.14851 6.23541 1.051C6.85577 0.949562 7.48285 0.894742 8.11141 0.887L9.01341 0.875H111.782L112.695 0.888C113.318 0.895224 113.939 0.949378 114.553 1.05C115.135 1.14872 115.698 1.33341 116.224 1.598C117.262 2.13288 118.107 2.97908 118.639 4.018C118.9 4.53755 119.08 5.0935 119.174 5.667C119.278 6.29093 119.336 6.9216 119.348 7.554C119.351 7.837 119.351 8.142 119.351 8.444C119.359 8.819 119.359 9.176 119.359 9.536V30.465C119.359 30.828 119.359 31.183 119.351 31.54C119.351 31.865 119.351 32.163 119.347 32.47C119.336 33.091 119.279 33.7103 119.177 34.323C119.084 34.9041 118.902 35.4673 118.637 35.993C118.374 36.5056 118.031 36.9733 117.621 37.379C117.213 37.7927 116.74 38.1377 116.221 38.401C115.696 38.6671 115.134 38.8525 114.553 38.951C113.935 39.0519 113.311 39.1064 112.684 39.114C112.391 39.121 112.084 39.125 111.787 39.125L110.703 39.127L9.01341 39.125Z" fill="black"/>
<path d="M25.3373 20.3C25.3482 19.4655 25.5699 18.6474 25.9819 17.9217C26.3938 17.1959 26.9825 16.5861 27.6933 16.149C27.2417 15.5039 26.646 14.973 25.9534 14.5984C25.2608 14.2238 24.4904 14.0158 23.7033 13.991C22.0233 13.815 20.3953 14.996 19.5393 14.996C18.6673 14.996 17.3493 14.008 15.9313 14.038C15.0136 14.0676 14.1193 14.3344 13.3354 14.8125C12.5515 15.2906 11.9048 15.9636 11.4583 16.766C9.52435 20.114 10.9673 25.035 12.8193 27.742C13.7463 29.067 14.8293 30.547 16.2473 30.495C17.6343 30.437 18.1523 29.61 19.8273 29.61C21.4853 29.61 21.9713 30.495 23.4173 30.462C24.9063 30.437 25.8433 29.13 26.7373 27.792C27.4038 26.8479 27.9168 25.8043 28.2573 24.7C27.3924 24.3343 26.6542 23.7221 26.1349 22.9396C25.6156 22.1571 25.3382 21.2391 25.3373 20.3ZM22.6053 12.21C23.4169 11.236 23.8169 9.98407 23.7203 8.71997C22.4803 8.85015 21.3348 9.44287 20.5123 10.38C20.1103 10.8374 19.8023 11.3696 19.6061 11.9462C19.4098 12.5227 19.329 13.1322 19.3683 13.74C19.9885 13.7464 20.602 13.612 21.1627 13.347C21.7234 13.082 22.2166 12.6932 22.6053 12.21Z" fill="white"/>
<path d="M42.8701 27.1398H38.1381L37.0011 30.4958H34.9961L39.4801 18.0778H41.5631L46.0461 30.4958H44.0071L42.8701 27.1398ZM38.6271 25.5898H42.3791L40.5291 20.1438H40.4781L38.6271 25.5898ZM55.7271 25.9698C55.7271 28.7828 54.2221 30.5898 51.9491 30.5898C51.3737 30.6199 50.8014 30.4873 50.2977 30.2074C49.7941 29.9274 49.3794 29.5114 49.1011 29.0068H49.0581V33.4909H47.1981V21.4418H48.9981V22.9478H49.0311C49.3222 22.4455 49.744 22.0314 50.2516 21.7497C50.7593 21.468 51.3338 21.3291 51.9141 21.3478C54.2121 21.3478 55.7271 23.1638 55.7271 25.9698ZM53.8171 25.9698C53.8171 24.1368 52.8701 22.9318 51.4251 22.9318C50.0051 22.9318 49.0501 24.1618 49.0501 25.9698C49.0501 27.7938 50.0051 29.0159 51.4251 29.0159C52.8701 29.0159 53.8171 27.8188 53.8171 25.9698ZM65.6931 25.9698C65.6931 28.7828 64.1871 30.5898 61.9141 30.5898C61.3387 30.6199 60.7664 30.4873 60.2627 30.2074C59.7591 29.9274 59.3444 29.5114 59.0661 29.0068H59.0231V33.4909H57.1641V21.4418H58.9631V22.9478H58.9971C59.2882 22.4455 59.71 22.0314 60.2176 21.7497C60.7253 21.468 61.2998 21.3291 61.8801 21.3478C64.1781 21.3478 65.6931 23.1638 65.6931 25.9698ZM63.7831 25.9698C63.7831 24.1368 62.8351 22.9318 61.3901 22.9318C59.9701 22.9318 59.0151 24.1618 59.0151 25.9698C59.0151 27.7938 59.9701 29.0159 61.3901 29.0159C62.8351 29.0159 63.7831 27.8188 63.7831 25.9698ZM72.2781 27.0358C72.4161 28.2678 73.6121 29.0758 75.2481 29.0758C76.8141 29.0758 77.9411 28.2678 77.9411 27.1568C77.9411 26.1928 77.2611 25.6168 75.6511 25.2208L74.0421 24.8328C71.7621 24.2828 70.7031 23.2158 70.7031 21.4848C70.7031 19.3428 72.5701 17.8708 75.2221 17.8708C77.8461 17.8708 79.6451 19.3428 79.7051 21.4848H77.8291C77.7171 20.2458 76.6931 19.4978 75.1951 19.4978C73.6971 19.4978 72.6741 20.2549 72.6741 21.3559C72.6741 22.2339 73.3281 22.7508 74.9291 23.1458L76.2971 23.4818C78.8451 24.0848 79.9031 25.1078 79.9031 26.9248C79.9031 29.2478 78.0531 30.7028 75.1101 30.7028C72.3561 30.7028 70.4961 29.2828 70.3761 27.0358H72.2781ZM83.9141 19.2998V21.4418H85.6361V22.9138H83.9141V27.9049C83.9141 28.6809 84.2591 29.0418 85.0161 29.0418C85.2204 29.0383 85.4243 29.0239 85.6271 28.9988V30.4618C85.2869 30.5254 84.9411 30.5542 84.5951 30.5478C82.7621 30.5478 82.0471 29.8589 82.0471 28.1028V22.9138H80.7311V21.4418H82.0471V19.2998H83.9141ZM86.6331 25.9698C86.6331 23.1208 88.3111 21.3308 90.9271 21.3308C93.5521 21.3308 95.2221 23.1208 95.2221 25.9698C95.2221 28.8258 93.5611 30.6078 90.9271 30.6078C88.2941 30.6078 86.6331 28.8258 86.6331 25.9698ZM93.3281 25.9698C93.3281 24.0158 92.4331 22.8618 90.9271 22.8618C89.4211 22.8618 88.5271 24.0238 88.5271 25.9698C88.5271 27.9318 89.4211 29.0758 90.9271 29.0758C92.4331 29.0758 93.3281 27.9318 93.3281 25.9698ZM96.7541 21.4418H98.5271V22.9828H98.5701C98.6902 22.5019 98.9722 22.0769 99.3686 21.7792C99.765 21.4815 100.252 21.3292 100.747 21.3478C100.961 21.347 101.175 21.3701 101.384 21.4168V23.1549C101.114 23.0723 100.832 23.0345 100.549 23.0428C100.279 23.0319 100.01 23.0795 99.76 23.1824C99.5102 23.2852 99.2855 23.441 99.1015 23.6388C98.9175 23.8367 98.7785 24.0721 98.694 24.3288C98.6095 24.5854 98.5816 24.8574 98.6121 25.1258V30.4958H96.7541V21.4418ZM109.952 27.8368C109.702 29.4798 108.102 30.6078 106.054 30.6078C103.42 30.6078 101.785 28.8438 101.785 26.0128C101.785 23.1728 103.429 21.3308 105.975 21.3308C108.481 21.3308 110.055 23.0509 110.055 25.7969V26.4338H103.661V26.5458C103.632 26.8791 103.673 27.2147 103.784 27.5305C103.894 27.8463 104.07 28.1351 104.3 28.3776C104.531 28.6201 104.81 28.8108 105.12 28.9371C105.43 29.0633 105.763 29.1222 106.097 29.1098C106.536 29.1509 106.977 29.0492 107.353 28.8198C107.73 28.5905 108.022 28.2457 108.187 27.8368H109.952ZM103.67 25.1348H108.196C108.213 24.8353 108.167 24.5355 108.063 24.2543C107.958 23.9731 107.797 23.7166 107.588 23.5008C107.38 23.285 107.129 23.1146 106.852 23.0004C106.574 22.8861 106.276 22.8305 105.976 22.8368C105.673 22.835 105.373 22.8931 105.093 23.0078C104.813 23.1226 104.559 23.2917 104.344 23.5053C104.13 23.719 103.96 23.973 103.844 24.2526C103.728 24.5323 103.669 24.8322 103.67 25.1348Z" fill="white"/>
<path d="M38.3943 8.73101C38.7839 8.70306 39.1749 8.76192 39.539 8.90336C39.9032 9.0448 40.2314 9.26528 40.5 9.54892C40.7686 9.83256 40.9709 10.1723 41.0924 10.5436C41.2138 10.9148 41.2513 11.3085 41.2023 11.696C41.2023 13.602 40.1723 14.698 38.3943 14.698H36.2393V8.73001L38.3943 8.73101ZM37.1663 13.854H38.2913C38.5696 13.8705 38.8481 13.8248 39.1065 13.7201C39.365 13.6154 39.5968 13.4544 39.7852 13.2489C39.9736 13.0434 40.1138 12.7984 40.1957 12.5318C40.2775 12.2653 40.2989 11.9839 40.2583 11.708C40.296 11.4332 40.2725 11.1535 40.1894 10.8889C40.1064 10.6242 39.9658 10.3813 39.7778 10.1773C39.5898 9.97337 39.3591 9.81353 39.1021 9.70923C38.8451 9.60493 38.5682 9.55875 38.2913 9.57401H37.1663V13.854ZM42.2493 12.444C42.2213 12.1483 42.2553 11.8499 42.3493 11.5681C42.4433 11.2863 42.5951 11.0273 42.795 10.8075C42.9949 10.5878 43.2385 10.4122 43.5102 10.2921C43.7819 10.172 44.0757 10.1099 44.3728 10.1099C44.6698 10.1099 44.9636 10.172 45.2353 10.2921C45.507 10.4122 45.7506 10.5878 45.9505 10.8075C46.1504 11.0273 46.3022 11.2863 46.3962 11.5681C46.4902 11.8499 46.5243 12.1483 46.4963 12.444C46.5258 12.7406 46.4929 13.0401 46.3996 13.3232C46.3063 13.6063 46.1548 13.8667 45.9547 14.0877C45.7547 14.3087 45.5105 14.4853 45.2381 14.6061C44.9656 14.727 44.6708 14.7894 44.3728 14.7894C44.0747 14.7894 43.7799 14.727 43.5075 14.6061C43.235 14.4853 42.9909 14.3087 42.7908 14.0877C42.5907 13.8667 42.4392 13.6063 42.3459 13.3232C42.2527 13.0401 42.2197 12.7406 42.2493 12.444ZM45.5823 12.444C45.5823 11.468 45.1433 10.897 44.3743 10.897C43.6013 10.897 43.1673 11.468 43.1673 12.444C43.1673 13.428 43.6013 13.994 44.3743 13.994C45.1443 13.994 45.5823 13.424 45.5823 12.444ZM52.1423 14.698H51.2193L50.2893 11.381H50.2193L49.2923 14.698H48.3793L47.1373 10.195H48.0393L48.8453 13.631H48.9123L49.8383 10.195H50.6903L51.6163 13.631H51.6863L52.4893 10.195H53.3783L52.1423 14.698ZM54.4223 10.195H55.2773V10.91H55.3433C55.456 10.6531 55.646 10.4377 55.8869 10.294C56.1279 10.1502 56.4076 10.0852 56.6873 10.108C56.9064 10.0916 57.1264 10.1246 57.331 10.2047C57.5357 10.2848 57.7197 10.4099 57.8694 10.5708C58.0191 10.7316 58.1307 10.9241 58.1959 11.134C58.2612 11.3438 58.2784 11.5656 58.2463 11.783V14.698H57.3573V12.006C57.3573 11.282 57.0433 10.922 56.3853 10.922C56.2365 10.9151 56.0881 10.9405 55.9501 10.9963C55.812 11.0522 55.6877 11.1372 55.5856 11.2455C55.4835 11.3539 55.4061 11.4831 55.3585 11.6242C55.311 11.7653 55.2945 11.915 55.3103 12.063V14.698H54.4223V10.195ZM59.6623 8.43701H60.5503V14.697H59.6623V8.43701ZM61.7863 12.444C61.7582 12.1483 61.7923 11.8499 61.8863 11.5681C61.9803 11.2863 62.1321 11.0273 62.332 10.8075C62.5319 10.5878 62.7755 10.4122 63.0472 10.2921C63.3189 10.172 63.6127 10.1099 63.9098 10.1099C64.2068 10.1099 64.5006 10.172 64.7723 10.2921C65.044 10.4122 65.2876 10.5878 65.4875 10.8075C65.6874 11.0273 65.8392 11.2863 65.9332 11.5681C66.0272 11.8499 66.0613 12.1483 66.0333 12.444C66.0628 12.7406 66.0299 13.0401 65.9366 13.3232C65.8433 13.6063 65.6918 13.8667 65.4917 14.0877C65.2917 14.3087 65.0475 14.4853 64.7751 14.6061C64.5026 14.727 64.2078 14.7894 63.9098 14.7894C63.6117 14.7894 63.3169 14.727 63.0445 14.6061C62.772 14.4853 62.5279 14.3087 62.3278 14.0877C62.1277 13.8667 61.9762 13.6063 61.8829 13.3232C61.7897 13.0401 61.7567 12.7406 61.7863 12.444ZM65.1193 12.444C65.1193 11.468 64.6803 10.897 63.9113 10.897C63.1383 10.897 62.7043 11.468 62.7043 12.444C62.7043 13.428 63.1383 13.994 63.9113 13.994C64.6813 13.994 65.1193 13.424 65.1193 12.444ZM66.9693 13.424C66.9693 12.614 67.5723 12.146 68.6443 12.08L69.8643 12.01V11.621C69.8643 11.146 69.5493 10.877 68.9423 10.877C68.4453 10.877 68.1023 11.059 68.0033 11.377H67.1433C67.2333 10.604 67.9613 10.107 68.9833 10.107C70.1113 10.107 70.7483 10.67 70.7483 11.621V14.698H69.8933V14.065H69.8233C69.6805 14.2921 69.48 14.4772 69.2423 14.6014C69.0046 14.7256 68.7382 14.7845 68.4703 14.772C68.2812 14.7917 68.0901 14.7716 67.9093 14.7129C67.7285 14.6542 67.562 14.5582 67.4205 14.4312C67.2791 14.3042 67.1659 14.1489 67.0881 13.9754C67.0104 13.802 66.9699 13.6141 66.9693 13.424ZM69.8633 13.04V12.663L68.7633 12.733C68.1433 12.775 67.8633 12.986 67.8633 13.383C67.8633 13.788 68.2143 14.023 68.6973 14.023C68.8388 14.0373 68.9817 14.023 69.1176 13.9809C69.2535 13.9389 69.3796 13.87 69.4883 13.7783C69.5971 13.6866 69.6863 13.574 69.7507 13.4472C69.8151 13.3204 69.8534 13.1819 69.8633 13.04ZM71.9163 12.444C71.9163 11.021 72.6483 10.12 73.7863 10.12C74.0675 10.1072 74.3466 10.1747 74.591 10.3146C74.8354 10.4545 75.0349 10.661 75.1663 10.91H75.2333V8.43701H76.1213V14.697H75.2703V13.987H75.2003C75.0585 14.2345 74.8517 14.4385 74.6023 14.5769C74.3528 14.7153 74.0703 14.7827 73.7853 14.772C72.6403 14.772 71.9163 13.871 71.9163 12.444ZM72.8343 12.444C72.8343 13.399 73.2843 13.974 74.0373 13.974C74.7873 13.974 75.2493 13.391 75.2493 12.448C75.2493 11.51 74.7813 10.918 74.0373 10.918C73.2893 10.918 72.8343 11.498 72.8343 12.444ZM79.7983 12.444C79.7703 12.1483 79.8043 11.8499 79.8983 11.5681C79.9923 11.2863 80.1441 11.0273 80.344 10.8075C80.5439 10.5878 80.7875 10.4122 81.0592 10.2921C81.3309 10.172 81.6247 10.1099 81.9218 10.1099C82.2188 10.1099 82.5126 10.172 82.7843 10.2921C83.056 10.4122 83.2996 10.5878 83.4995 10.8075C83.6994 11.0273 83.8512 11.2863 83.9452 11.5681C84.0392 11.8499 84.0733 12.1483 84.0453 12.444C84.0748 12.7406 84.0419 13.0401 83.9486 13.3232C83.8553 13.6063 83.7038 13.8667 83.5037 14.0877C83.3037 14.3087 83.0595 14.4853 82.7871 14.6061C82.5146 14.727 82.2198 14.7894 81.9218 14.7894C81.6237 14.7894 81.3289 14.727 81.0565 14.6061C80.784 14.4853 80.5399 14.3087 80.3398 14.0877C80.1397 13.8667 79.9882 13.6063 79.8949 13.3232C79.8017 13.0401 79.7687 12.7406 79.7983 12.444ZM83.1313 12.444C83.1313 11.468 82.6933 10.897 81.9233 10.897C81.1513 10.897 80.7163 11.468 80.7163 12.444C80.7163 13.428 81.1513 13.994 81.9233 13.994C82.6933 13.994 83.1313 13.424 83.1313 12.444ZM85.2373 10.194H86.0933V10.91H86.1593C86.272 10.6531 86.462 10.4377 86.7029 10.294C86.9439 10.1502 87.2236 10.0852 87.5033 10.108C87.7224 10.0916 87.9424 10.1246 88.147 10.2047C88.3517 10.2848 88.5357 10.4099 88.6854 10.5708C88.8351 10.7316 88.9467 10.9241 89.0119 11.134C89.0772 11.3438 89.0944 11.5656 89.0623 11.783V14.698H88.1733V12.006C88.1733 11.282 87.8593 10.922 87.2013 10.922C87.0525 10.9151 86.9041 10.9405 86.766 10.9963C86.628 11.0522 86.5037 11.1372 86.4016 11.2455C86.2995 11.3539 86.2221 11.4831 86.1745 11.6242C86.127 11.7653 86.1105 11.915 86.1263 12.063V14.698H85.2373V10.194ZM94.0833 9.07401V10.215H95.0593V10.964H94.0833V13.279C94.0833 13.751 94.2773 13.958 94.7203 13.958C94.8336 13.9575 94.9467 13.9505 95.0593 13.937V14.677C94.8995 14.7058 94.7376 14.7212 94.5753 14.723C93.5873 14.723 93.1943 14.375 93.1943 13.507V10.964H92.4793V10.215H93.1943V9.07401H94.0833ZM96.2733 8.43701H97.1533V10.918H97.2233C97.3416 10.6587 97.537 10.4421 97.7829 10.2979C98.0288 10.1537 98.3131 10.0888 98.5973 10.112C98.8152 10.1002 99.0331 10.1366 99.2353 10.2187C99.4375 10.3008 99.6192 10.4265 99.7672 10.5869C99.9153 10.7473 100.026 10.9383 100.092 11.1465C100.157 11.3546 100.176 11.5747 100.147 11.791V14.698H99.2583V12.01C99.2583 11.29 98.9233 10.926 98.2953 10.926C98.1425 10.9135 97.9888 10.9344 97.8449 10.9875C97.7011 11.0406 97.5706 11.1244 97.4626 11.2332C97.3546 11.342 97.2716 11.4731 97.2196 11.6173C97.1675 11.7615 97.1476 11.9153 97.1613 12.068V14.698H96.2733V8.43701ZM105.329 13.482C105.209 13.8934 104.947 14.2493 104.591 14.4874C104.234 14.7256 103.805 14.831 103.379 14.785C103.082 14.7931 102.787 14.7364 102.515 14.6189C102.242 14.5014 101.998 14.3259 101.8 14.1046C101.602 13.8834 101.455 13.6216 101.368 13.3376C101.281 13.0536 101.257 12.7541 101.298 12.46C101.259 12.1652 101.283 11.8653 101.37 11.5808C101.456 11.2962 101.603 11.0335 101.8 10.8105C101.997 10.5875 102.239 10.4094 102.511 10.2882C102.782 10.167 103.077 10.1055 103.374 10.108C104.627 10.108 105.383 10.964 105.383 12.378V12.688H102.203V12.738C102.189 12.9033 102.21 13.0697 102.264 13.2266C102.318 13.3834 102.405 13.5271 102.518 13.6486C102.631 13.7701 102.768 13.8666 102.92 13.9319C103.073 13.9973 103.237 14.03 103.403 14.028C103.616 14.0532 103.831 14.0147 104.021 13.9175C104.212 13.8203 104.369 13.6687 104.473 13.482H105.329ZM102.203 12.031H104.478C104.49 11.8798 104.469 11.7278 104.418 11.585C104.367 11.4421 104.287 11.3115 104.183 11.2016C104.078 11.0917 103.952 11.0048 103.812 10.9467C103.672 10.8885 103.521 10.8604 103.369 10.864C103.216 10.8621 103.063 10.891 102.921 10.949C102.778 11.007 102.649 11.0929 102.54 11.2017C102.432 11.3104 102.346 11.4399 102.288 11.5823C102.23 11.7247 102.201 11.8773 102.203 12.031Z" fill="white"/>
</g>
<defs>
<clipPath id="clip0_101_639483">
<rect width="120" height="40" fill="white" transform="translate(0.400391)"/>
</clipPath>
</defs>
</svg>
