<svg width="121" height="40" viewBox="0 0 121 40" fill="none" xmlns="http://www.w3.org/2000/svg">
<g clip-path="url(#clip0_101_21781)">
<path d="M110.703 0H10.1028C9.73585 0 9.37285 0 9.00785 0.002C8.70185 0.004 8.39785 0.01 8.08885 0.015C7.41737 0.0223323 6.74743 0.0808351 6.08485 0.19C5.42357 0.302207 4.78302 0.513588 4.18485 0.817C3.58656 1.12335 3.03994 1.52151 2.56485 1.997C2.0881 2.47032 1.69068 3.01732 1.38785 3.617C1.08393 4.21585 0.873167 4.85757 0.762848 5.52C0.651576 6.18171 0.59173 6.85105 0.583848 7.522C0.573848 7.829 0.573848 8.137 0.568848 8.443V31.56C0.573848 31.87 0.574848 32.17 0.583848 32.481C0.592056 33.152 0.652237 33.8213 0.763848 34.483C0.873455 35.1461 1.08389 35.7885 1.38785 36.388C1.69097 36.9854 2.08878 37.5297 2.56585 38C3.0386 38.4771 3.58488 38.8751 4.18385 39.179C4.78237 39.4831 5.4232 39.6954 6.08485 39.809C6.74749 39.9179 7.41737 39.9771 8.08885 39.986C8.39885 39.993 8.70185 39.997 9.00785 39.997C9.37385 39.999 9.73585 39.999 10.1028 39.999H110.703C111.063 39.999 111.427 39.999 111.787 39.997C112.091 39.997 112.404 39.993 112.709 39.987C113.379 39.9782 114.048 39.9187 114.709 39.809C115.373 39.6946 116.016 39.4823 116.617 39.179C117.215 38.875 117.761 38.4769 118.234 38C118.71 37.5273 119.109 36.9827 119.416 36.386C119.718 35.7862 119.927 35.1438 120.035 34.481C120.146 33.8192 120.208 33.15 120.22 32.479C120.224 32.169 120.224 31.869 120.224 31.558C120.232 31.194 120.232 30.833 120.232 30.464V9.536C120.232 9.17 120.232 8.806 120.224 8.444C120.224 8.138 120.224 7.83 120.22 7.524C120.208 6.85266 120.146 6.18314 120.035 5.521C119.926 4.8589 119.717 4.21723 119.415 3.618C118.798 2.41511 117.819 1.43588 116.617 0.818C116.016 0.515273 115.372 0.303946 114.709 0.191C114.048 0.0810377 113.379 0.0221968 112.709 0.015C112.404 0.01 112.091 0.004 111.787 0.002C111.427 0 111.062 0 110.703 0Z" fill="#A6A6A6"/>
<path d="M9.01292 39.125C8.70792 39.125 8.41092 39.121 8.10892 39.115C7.48239 39.1066 6.85735 39.0518 6.23892 38.951C5.66276 38.8516 5.10463 38.6669 4.58292 38.403C4.0658 38.1414 3.59412 37.7984 3.18592 37.387C2.77198 36.9801 2.42743 36.5082 2.16592 35.99C1.90098 35.4687 1.71752 34.9099 1.62192 34.333C1.51921 33.7131 1.46372 33.0863 1.45592 32.458C1.44892 32.248 1.44092 31.545 1.44092 31.545V8.445C1.44092 8.445 1.44992 7.753 1.45592 7.55C1.46337 6.92272 1.51853 6.29691 1.62092 5.678C1.71653 5.09952 1.89998 4.53905 2.16492 4.016C2.42563 3.4983 2.76839 3.0262 3.17992 2.618C3.59087 2.20578 4.06396 1.86058 4.58192 1.595C5.10256 1.33189 5.65978 1.14851 6.23492 1.051C6.85528 0.949562 7.48237 0.894742 8.11092 0.887L9.01292 0.875H111.782L112.695 0.888C113.317 0.895224 113.939 0.949378 114.553 1.05C115.134 1.14872 115.697 1.33341 116.224 1.598C117.262 2.13288 118.106 2.97908 118.639 4.018C118.899 4.53755 119.08 5.0935 119.174 5.667C119.278 6.29093 119.336 6.9216 119.348 7.554C119.351 7.837 119.351 8.142 119.351 8.444C119.359 8.819 119.359 9.176 119.359 9.536V30.465C119.359 30.828 119.359 31.183 119.351 31.54C119.351 31.865 119.351 32.163 119.347 32.47C119.336 33.091 119.279 33.7103 119.177 34.323C119.084 34.9041 118.901 35.4673 118.637 35.993C118.373 36.5056 118.03 36.9733 117.621 37.379C117.212 37.7927 116.739 38.1377 116.221 38.401C115.696 38.6671 115.133 38.8525 114.553 38.951C113.935 39.0519 113.31 39.1064 112.684 39.114C112.391 39.121 112.084 39.125 111.787 39.125L110.703 39.127L9.01292 39.125Z" fill="black"/>
<path d="M25.3369 20.3C25.3477 19.4655 25.5695 18.6474 25.9814 17.9217C26.3933 17.1959 26.982 16.5861 27.6929 16.149C27.2413 15.5039 26.6455 14.973 25.9529 14.5984C25.2603 14.2238 24.4899 14.0158 23.7029 13.991C22.0229 13.815 20.3949 14.996 19.5389 14.996C18.6669 14.996 17.3489 14.008 15.9309 14.038C15.0132 14.0676 14.1188 14.3344 13.3349 14.8125C12.551 15.2906 11.9043 15.9636 11.4579 16.766C9.52386 20.114 10.9669 25.035 12.8189 27.742C13.7459 29.067 14.8289 30.547 16.2469 30.495C17.6339 30.437 18.1519 29.61 19.8269 29.61C21.4849 29.61 21.9709 30.495 23.4169 30.462C24.9059 30.437 25.8429 29.13 26.7369 27.792C27.4033 26.8479 27.9163 25.8043 28.2569 24.7C27.3919 24.3343 26.6537 23.7221 26.1344 22.9396C25.6152 22.1571 25.3378 21.2391 25.3369 20.3ZM22.6049 12.21C23.4164 11.236 23.8164 9.98407 23.7199 8.71997C22.4798 8.85015 21.3344 9.44287 20.5119 10.38C20.1098 10.8374 19.8019 11.3696 19.6056 11.9462C19.4093 12.5227 19.3285 13.1322 19.3679 13.74C19.988 13.7464 20.6015 13.612 21.1622 13.347C21.7229 13.082 22.2162 12.6932 22.6049 12.21Z" fill="white"/>
<path d="M42.8701 27.1398H38.1381L37.0011 30.4958H34.9961L39.4801 18.0778H41.5631L46.0461 30.4958H44.0071L42.8701 27.1398ZM38.6271 25.5898H42.3791L40.5291 20.1438H40.4781L38.6271 25.5898ZM55.7271 25.9698C55.7271 28.7828 54.2221 30.5898 51.9491 30.5898C51.3737 30.6199 50.8014 30.4873 50.2977 30.2074C49.7941 29.9274 49.3794 29.5114 49.1011 29.0068H49.0581V33.4909H47.1981V21.4418H48.9981V22.9478H49.0311C49.3222 22.4455 49.744 22.0314 50.2516 21.7497C50.7593 21.468 51.3338 21.3291 51.9141 21.3478C54.2121 21.3478 55.7271 23.1638 55.7271 25.9698ZM53.8171 25.9698C53.8171 24.1368 52.8701 22.9318 51.4251 22.9318C50.0051 22.9318 49.0501 24.1618 49.0501 25.9698C49.0501 27.7938 50.0051 29.0159 51.4251 29.0159C52.8701 29.0159 53.8171 27.8188 53.8171 25.9698ZM65.6931 25.9698C65.6931 28.7828 64.1871 30.5898 61.9141 30.5898C61.3387 30.6199 60.7664 30.4873 60.2627 30.2074C59.7591 29.9274 59.3444 29.5114 59.0661 29.0068H59.0231V33.4909H57.1641V21.4418H58.9631V22.9478H58.9971C59.2882 22.4455 59.71 22.0314 60.2176 21.7497C60.7253 21.468 61.2998 21.3291 61.8801 21.3478C64.1781 21.3478 65.6931 23.1638 65.6931 25.9698ZM63.7831 25.9698C63.7831 24.1368 62.8351 22.9318 61.3901 22.9318C59.9701 22.9318 59.0151 24.1618 59.0151 25.9698C59.0151 27.7938 59.9701 29.0159 61.3901 29.0159C62.8351 29.0159 63.7831 27.8188 63.7831 25.9698ZM72.2781 27.0358C72.4161 28.2678 73.6121 29.0758 75.2481 29.0758C76.8141 29.0758 77.9411 28.2678 77.9411 27.1568C77.9411 26.1928 77.2611 25.6168 75.6511 25.2208L74.0421 24.8328C71.7621 24.2828 70.7031 23.2158 70.7031 21.4848C70.7031 19.3428 72.5701 17.8708 75.2221 17.8708C77.8461 17.8708 79.6451 19.3428 79.7051 21.4848H77.8291C77.7171 20.2458 76.6931 19.4978 75.1951 19.4978C73.6971 19.4978 72.6741 20.2549 72.6741 21.3559C72.6741 22.2339 73.3281 22.7508 74.9291 23.1458L76.2971 23.4818C78.8451 24.0848 79.9031 25.1078 79.9031 26.9248C79.9031 29.2478 78.0531 30.7028 75.1101 30.7028C72.3561 30.7028 70.4961 29.2828 70.3761 27.0358H72.2781ZM83.9141 19.2998V21.4418H85.6361V22.9138H83.9141V27.9049C83.9141 28.6809 84.2591 29.0418 85.0161 29.0418C85.2204 29.0383 85.4243 29.0239 85.6271 28.9988V30.4618C85.2869 30.5254 84.9411 30.5542 84.5951 30.5478C82.7621 30.5478 82.0471 29.8589 82.0471 28.1028V22.9138H80.7311V21.4418H82.0471V19.2998H83.9141ZM86.6331 25.9698C86.6331 23.1208 88.3111 21.3308 90.9271 21.3308C93.5521 21.3308 95.2221 23.1208 95.2221 25.9698C95.2221 28.8258 93.5611 30.6078 90.9271 30.6078C88.2941 30.6078 86.6331 28.8258 86.6331 25.9698ZM93.3281 25.9698C93.3281 24.0158 92.4331 22.8618 90.9271 22.8618C89.4211 22.8618 88.5271 24.0238 88.5271 25.9698C88.5271 27.9318 89.4211 29.0758 90.9271 29.0758C92.4331 29.0758 93.3281 27.9318 93.3281 25.9698ZM96.7541 21.4418H98.5271V22.9828H98.5701C98.6902 22.5019 98.9722 22.0769 99.3686 21.7792C99.765 21.4815 100.252 21.3292 100.747 21.3478C100.961 21.347 101.175 21.3701 101.384 21.4168V23.1549C101.114 23.0723 100.832 23.0345 100.549 23.0428C100.279 23.0319 100.01 23.0795 99.76 23.1824C99.5102 23.2852 99.2855 23.441 99.1015 23.6388C98.9175 23.8367 98.7785 24.0721 98.694 24.3288C98.6095 24.5854 98.5816 24.8574 98.6121 25.1258V30.4958H96.7541V21.4418ZM109.952 27.8368C109.702 29.4798 108.102 30.6078 106.054 30.6078C103.42 30.6078 101.785 28.8438 101.785 26.0128C101.785 23.1728 103.429 21.3308 105.975 21.3308C108.481 21.3308 110.055 23.0509 110.055 25.7969V26.4338H103.661V26.5458C103.632 26.8791 103.673 27.2147 103.784 27.5305C103.894 27.8463 104.07 28.1351 104.3 28.3776C104.531 28.6201 104.81 28.8108 105.12 28.9371C105.43 29.0633 105.763 29.1222 106.097 29.1098C106.536 29.1509 106.977 29.0492 107.353 28.8198C107.73 28.5905 108.022 28.2457 108.187 27.8368H109.952ZM103.67 25.1348H108.196C108.213 24.8353 108.167 24.5355 108.063 24.2543C107.958 23.9731 107.797 23.7166 107.588 23.5008C107.38 23.285 107.129 23.1146 106.852 23.0004C106.574 22.8861 106.276 22.8305 105.976 22.8368C105.673 22.835 105.373 22.8931 105.093 23.0078C104.813 23.1226 104.559 23.2917 104.344 23.5053C104.13 23.719 103.96 23.973 103.844 24.2526C103.728 24.5323 103.669 24.8322 103.67 25.1348Z" fill="white"/>
<path d="M38.3938 8.73101C38.7834 8.70306 39.1744 8.76192 39.5385 8.90336C39.9027 9.0448 40.2309 9.26528 40.4995 9.54892C40.7681 9.83256 40.9705 10.1723 41.0919 10.5436C41.2133 10.9148 41.2509 11.3085 41.2018 11.696C41.2018 13.602 40.1718 14.698 38.3938 14.698H36.2388V8.73001L38.3938 8.73101ZM37.1658 13.854H38.2908C38.5691 13.8705 38.8476 13.8248 39.1061 13.7201C39.3645 13.6154 39.5963 13.4544 39.7847 13.2489C39.9731 13.0434 40.1133 12.7984 40.1952 12.5318C40.277 12.2653 40.2984 11.9839 40.2578 11.708C40.2955 11.4332 40.272 11.1535 40.1889 10.8889C40.1059 10.6242 39.9653 10.3813 39.7773 10.1773C39.5894 9.97337 39.3586 9.81353 39.1016 9.70923C38.8446 9.60493 38.5677 9.55875 38.2908 9.57401H37.1658V13.854ZM42.2488 12.444C42.2208 12.1483 42.2548 11.8499 42.3488 11.5681C42.4428 11.2863 42.5946 11.0273 42.7945 10.8075C42.9944 10.5878 43.238 10.4122 43.5097 10.2921C43.7814 10.172 44.0752 10.1099 44.3723 10.1099C44.6693 10.1099 44.9631 10.172 45.2348 10.2921C45.5065 10.4122 45.7501 10.5878 45.95 10.8075C46.1499 11.0273 46.3017 11.2863 46.3957 11.5681C46.4897 11.8499 46.5238 12.1483 46.4958 12.444C46.5253 12.7406 46.4924 13.0401 46.3991 13.3232C46.3058 13.6063 46.1543 13.8667 45.9542 14.0877C45.7542 14.3087 45.51 14.4853 45.2376 14.6061C44.9651 14.727 44.6703 14.7894 44.3723 14.7894C44.0742 14.7894 43.7794 14.727 43.507 14.6061C43.2345 14.4853 42.9904 14.3087 42.7903 14.0877C42.5903 13.8667 42.4387 13.6063 42.3454 13.3232C42.2522 13.0401 42.2192 12.7406 42.2488 12.444ZM45.5818 12.444C45.5818 11.468 45.1428 10.897 44.3738 10.897C43.6008 10.897 43.1668 11.468 43.1668 12.444C43.1668 13.428 43.6008 13.994 44.3738 13.994C45.1438 13.994 45.5818 13.424 45.5818 12.444ZM52.1418 14.698H51.2188L50.2888 11.381H50.2188L49.2918 14.698H48.3788L47.1368 10.195H48.0388L48.8448 13.631H48.9118L49.8378 10.195H50.6898L51.6158 13.631H51.6858L52.4888 10.195H53.3778L52.1418 14.698ZM54.4218 10.195H55.2768V10.91H55.3428C55.4555 10.6531 55.6455 10.4377 55.8865 10.294C56.1274 10.1502 56.4071 10.0852 56.6868 10.108C56.9059 10.0916 57.1259 10.1246 57.3306 10.2047C57.5352 10.2848 57.7192 10.4099 57.8689 10.5708C58.0186 10.7316 58.1302 10.9241 58.1954 11.134C58.2607 11.3438 58.2779 11.5656 58.2458 11.783V14.698H57.3568V12.006C57.3568 11.282 57.0428 10.922 56.3848 10.922C56.236 10.9151 56.0876 10.9405 55.9496 10.9963C55.8115 11.0522 55.6872 11.1372 55.5851 11.2455C55.483 11.3539 55.4056 11.4831 55.358 11.6242C55.3105 11.7653 55.294 11.915 55.3098 12.063V14.698H54.4218V10.195ZM59.6618 8.43701H60.5498V14.697H59.6618V8.43701ZM61.7858 12.444C61.7578 12.1483 61.7918 11.8499 61.8858 11.5681C61.9798 11.2863 62.1316 11.0273 62.3315 10.8075C62.5314 10.5878 62.775 10.4122 63.0467 10.2921C63.3184 10.172 63.6122 10.1099 63.9093 10.1099C64.2063 10.1099 64.5001 10.172 64.7718 10.2921C65.0435 10.4122 65.2871 10.5878 65.487 10.8075C65.6869 11.0273 65.8387 11.2863 65.9327 11.5681C66.0267 11.8499 66.0608 12.1483 66.0328 12.444C66.0623 12.7406 66.0294 13.0401 65.9361 13.3232C65.8428 13.6063 65.6913 13.8667 65.4912 14.0877C65.2912 14.3087 65.047 14.4853 64.7746 14.6061C64.5021 14.727 64.2073 14.7894 63.9093 14.7894C63.6112 14.7894 63.3164 14.727 63.044 14.6061C62.7715 14.4853 62.5274 14.3087 62.3273 14.0877C62.1273 13.8667 61.9757 13.6063 61.8824 13.3232C61.7892 13.0401 61.7562 12.7406 61.7858 12.444ZM65.1188 12.444C65.1188 11.468 64.6798 10.897 63.9108 10.897C63.1378 10.897 62.7038 11.468 62.7038 12.444C62.7038 13.428 63.1378 13.994 63.9108 13.994C64.6808 13.994 65.1188 13.424 65.1188 12.444ZM66.9688 13.424C66.9688 12.614 67.5718 12.146 68.6438 12.08L69.8638 12.01V11.621C69.8638 11.146 69.5488 10.877 68.9418 10.877C68.4448 10.877 68.1018 11.059 68.0028 11.377H67.1428C67.2328 10.604 67.9608 10.107 68.9828 10.107C70.1108 10.107 70.7478 10.67 70.7478 11.621V14.698H69.8928V14.065H69.8228C69.68 14.2921 69.4795 14.4772 69.2418 14.6014C69.0041 14.7256 68.7377 14.7845 68.4698 14.772C68.2807 14.7917 68.0896 14.7716 67.9088 14.7129C67.728 14.6542 67.5615 14.5582 67.42 14.4312C67.2786 14.3042 67.1654 14.1489 67.0877 13.9754C67.0099 13.802 66.9694 13.6141 66.9688 13.424ZM69.8628 13.04V12.663L68.7628 12.733C68.1428 12.775 67.8628 12.986 67.8628 13.383C67.8628 13.788 68.2138 14.023 68.6968 14.023C68.8383 14.0373 68.9812 14.023 69.1171 13.9809C69.253 13.9389 69.3791 13.87 69.4879 13.7783C69.5966 13.6866 69.6858 13.574 69.7502 13.4472C69.8146 13.3204 69.8529 13.1819 69.8628 13.04ZM71.9158 12.444C71.9158 11.021 72.6478 10.12 73.7858 10.12C74.067 10.1072 74.3462 10.1747 74.5905 10.3146C74.8349 10.4545 75.0344 10.661 75.1658 10.91H75.2328V8.43701H76.1208V14.697H75.2698V13.987H75.1998C75.058 14.2345 74.8512 14.4385 74.6018 14.5769C74.3523 14.7153 74.0698 14.7827 73.7848 14.772C72.6398 14.772 71.9158 13.871 71.9158 12.444ZM72.8338 12.444C72.8338 13.399 73.2838 13.974 74.0368 13.974C74.7868 13.974 75.2488 13.391 75.2488 12.448C75.2488 11.51 74.7808 10.918 74.0368 10.918C73.2888 10.918 72.8338 11.498 72.8338 12.444ZM79.7978 12.444C79.7698 12.1483 79.8038 11.8499 79.8978 11.5681C79.9918 11.2863 80.1436 11.0273 80.3435 10.8075C80.5434 10.5878 80.787 10.4122 81.0587 10.2921C81.3304 10.172 81.6242 10.1099 81.9213 10.1099C82.2183 10.1099 82.5121 10.172 82.7838 10.2921C83.0555 10.4122 83.2991 10.5878 83.499 10.8075C83.6989 11.0273 83.8507 11.2863 83.9447 11.5681C84.0387 11.8499 84.0728 12.1483 84.0448 12.444C84.0743 12.7406 84.0414 13.0401 83.9481 13.3232C83.8548 13.6063 83.7033 13.8667 83.5032 14.0877C83.3032 14.3087 83.059 14.4853 82.7866 14.6061C82.5141 14.727 82.2193 14.7894 81.9213 14.7894C81.6232 14.7894 81.3284 14.727 81.056 14.6061C80.7835 14.4853 80.5394 14.3087 80.3393 14.0877C80.1393 13.8667 79.9877 13.6063 79.8944 13.3232C79.8012 13.0401 79.7682 12.7406 79.7978 12.444ZM83.1308 12.444C83.1308 11.468 82.6928 10.897 81.9228 10.897C81.1508 10.897 80.7158 11.468 80.7158 12.444C80.7158 13.428 81.1508 13.994 81.9228 13.994C82.6928 13.994 83.1308 13.424 83.1308 12.444ZM85.2368 10.194H86.0928V10.91H86.1588C86.2715 10.6531 86.4615 10.4377 86.7025 10.294C86.9434 10.1502 87.2231 10.0852 87.5028 10.108C87.7219 10.0916 87.9419 10.1246 88.1465 10.2047C88.3512 10.2848 88.5352 10.4099 88.6849 10.5708C88.8346 10.7316 88.9462 10.9241 89.0114 11.134C89.0767 11.3438 89.0939 11.5656 89.0618 11.783V14.698H88.1728V12.006C88.1728 11.282 87.8588 10.922 87.2008 10.922C87.052 10.9151 86.9036 10.9405 86.7656 10.9963C86.6275 11.0522 86.5032 11.1372 86.4011 11.2455C86.299 11.3539 86.2216 11.4831 86.174 11.6242C86.1265 11.7653 86.11 11.915 86.1258 12.063V14.698H85.2368V10.194ZM94.0828 9.07401V10.215H95.0588V10.964H94.0828V13.279C94.0828 13.751 94.2768 13.958 94.7198 13.958C94.8331 13.9575 94.9463 13.9505 95.0588 13.937V14.677C94.899 14.7058 94.7371 14.7212 94.5748 14.723C93.5868 14.723 93.1938 14.375 93.1938 13.507V10.964H92.4788V10.215H93.1938V9.07401H94.0828ZM96.2728 8.43701H97.1528V10.918H97.2228C97.3411 10.6587 97.5365 10.4421 97.7824 10.2979C98.0283 10.1537 98.3127 10.0888 98.5968 10.112C98.8147 10.1002 99.0326 10.1366 99.2348 10.2187C99.4371 10.3008 99.6187 10.4265 99.7667 10.5869C99.9148 10.7473 100.026 10.9383 100.091 11.1465C100.157 11.3546 100.176 11.5747 100.147 11.791V14.698H99.2578V12.01C99.2578 11.29 98.9228 10.926 98.2948 10.926C98.142 10.9135 97.9883 10.9344 97.8445 10.9875C97.7006 11.0406 97.5701 11.1244 97.4621 11.2332C97.3541 11.342 97.2712 11.4731 97.2191 11.6173C97.167 11.7615 97.1471 11.9153 97.1608 12.068V14.698H96.2728V8.43701ZM105.329 13.482C105.208 13.8934 104.947 14.2493 104.59 14.4874C104.234 14.7256 103.805 14.831 103.379 14.785C103.082 14.7931 102.787 14.7364 102.514 14.6189C102.242 14.5014 101.998 14.3259 101.8 14.1046C101.602 13.8834 101.454 13.6216 101.367 13.3376C101.281 13.0536 101.257 12.7541 101.298 12.46C101.258 12.1652 101.283 11.8653 101.369 11.5808C101.456 11.2962 101.602 11.0335 101.799 10.8105C101.996 10.5875 102.239 10.4094 102.51 10.2882C102.782 10.167 103.076 10.1055 103.374 10.108C104.627 10.108 105.383 10.964 105.383 12.378V12.688H102.203V12.738C102.189 12.9033 102.21 13.0697 102.264 13.2266C102.318 13.3834 102.404 13.5271 102.517 13.6486C102.63 13.7701 102.767 13.8666 102.92 13.9319C103.072 13.9973 103.237 14.03 103.403 14.028C103.615 14.0532 103.83 14.0147 104.021 13.9175C104.211 13.8203 104.369 13.6687 104.473 13.482H105.329ZM102.203 12.031H104.478C104.489 11.8798 104.469 11.7278 104.418 11.585C104.367 11.4421 104.287 11.3115 104.182 11.2016C104.078 11.0917 103.951 11.0048 103.811 10.9467C103.671 10.8885 103.52 10.8604 103.369 10.864C103.215 10.8621 103.062 10.891 102.92 10.949C102.778 11.007 102.648 11.0929 102.54 11.2017C102.431 11.3104 102.345 11.4399 102.287 11.5823C102.23 11.7247 102.201 11.8773 102.203 12.031Z" fill="white"/>
</g>
<defs>
<clipPath id="clip0_101_21781">
<rect width="120" height="40" fill="white" transform="translate(0.399902)"/>
</clipPath>
</defs>
</svg>
