<svg width="136" height="40" viewBox="0 0 136 40" fill="none" xmlns="http://www.w3.org/2000/svg">
<g clip-path="url(#clip0_2402_13940)">
<path d="M130.751 39.7964H5.7495C3 39.7964 0.75 37.5707 0.75 34.85V5.15361C0.75 2.43201 3 0.203613 5.7495 0.203613H130.751C133.496 0.203613 135.75 2.43201 135.75 5.15361V34.85C135.75 37.5707 133.5 39.7964 130.751 39.7964Z" fill="black"/>
<path d="M130.751 0.994637C133.064 0.994637 134.948 2.86124 134.948 5.15264V34.8499C134.948 37.1386 133.064 39.0052 130.751 39.0052H5.7495C3.432 39.0052 1.551 37.1422 1.551 34.8499V5.15354C1.551 2.86124 3.4356 0.994637 5.7495 0.994637H130.751ZM130.751 0.202637H5.7495C3 0.203537 0.75 2.43194 0.75 5.15354V34.8499C0.75 37.5706 3 39.7999 5.7495 39.7999H130.751C133.496 39.7999 135.75 37.5706 135.75 34.8499V5.15354C135.75 2.43194 133.5 0.203537 130.751 0.203537V0.202637Z" fill="#A6A6A6"/>
<path d="M45.219 13.2859C44.337 13.2859 43.5774 12.9799 42.9555 12.3706C42.3363 11.7586 42.0231 10.9963 42.0231 10.0999C42.0231 9.20348 42.3363 8.44028 42.9555 7.83548C43.5738 7.22798 44.337 6.91748 45.219 6.91748C45.6447 6.91748 46.0695 7.00298 46.4817 7.17488C46.8858 7.34678 47.2089 7.57538 47.4483 7.86068L47.4933 7.91648L46.8606 8.54918L46.8048 8.48258C46.4142 8.03258 45.8976 7.81118 45.219 7.81118C44.9258 7.80789 44.6349 7.86239 44.3628 7.97157C44.0907 8.08075 43.8428 8.24247 43.6332 8.44748C43.1904 8.86958 42.969 9.42488 42.969 10.0999C42.969 10.7785 43.1904 11.3374 43.6332 11.7595C44.0832 12.1816 44.6178 12.3922 45.219 12.3922C45.8661 12.3922 46.407 12.178 46.8363 11.7559C47.1 11.4922 47.2548 11.1439 47.307 10.6867H45.138V9.81188H48.1863L48.2007 9.87488C48.2322 10.0189 48.2493 10.1665 48.2493 10.3429C48.2493 11.1826 47.9892 11.872 47.4834 12.3814C46.8993 12.979 46.1406 13.285 45.219 13.285V13.2859ZM52.8555 13.1482H49.1952V7.05518H52.8555V7.94438H50.1267V9.66338H52.5882V10.5391H50.1267V12.2581H52.8555V13.1482ZM56.1072 13.1482H55.1757V7.94438H53.5017V7.05518H57.7839V7.94438H56.1072V13.1482ZM61.5351 13.1482H60.6072V7.05518H61.5351V13.1482ZM64.9551 13.1482H64.0317V7.94438H62.3505V7.05518H66.6363V7.94438H64.956L64.9551 13.1482ZM72.1632 13.285C71.2668 13.285 70.5072 12.9754 69.9024 12.3607C69.3012 11.7487 68.9952 10.9891 68.9952 10.1035C68.9952 9.21428 69.3012 8.45108 69.9024 7.84268C70.5072 7.23068 71.2668 6.91838 72.1632 6.91838C73.0524 6.91838 73.8084 7.23068 74.4132 7.84988C75.018 8.46188 75.3231 9.22058 75.3231 10.1035C75.3231 10.9891 75.0171 11.7523 74.4168 12.3643C73.812 12.9763 73.0524 13.285 72.1632 13.285ZM70.5846 11.7523C71.0202 12.1843 71.5332 12.3958 72.1632 12.3958C72.4546 12.4013 72.7441 12.3471 73.0138 12.2364C73.2834 12.1257 73.5275 11.961 73.731 11.7523C74.1594 11.323 74.3781 10.7677 74.3781 10.0999C74.3781 9.43568 74.1594 8.88038 73.7301 8.45108C73.3089 8.02178 72.7815 7.80758 72.1632 7.80758C71.5368 7.80758 71.0202 8.01818 70.5846 8.45108C70.1589 8.88038 69.9411 9.43568 69.9411 10.0999C69.9411 10.7677 70.1589 11.3239 70.5846 11.7523ZM81.0291 13.1473H80.1012L80.0769 13.1095L77.1447 8.45828L77.1726 9.36908V13.1482H76.2447V7.05518H77.3067L80.1255 11.5165L80.0985 10.6129V7.05518H81.0291V13.1473ZM68.8827 21.7369C66.5382 21.7369 64.6185 23.5054 64.6185 25.9444C64.6185 28.3672 66.5382 30.1564 68.8827 30.1564C71.238 30.1564 73.1577 28.3672 73.1577 25.9444C73.1577 23.5054 71.238 21.7369 68.8827 21.7369ZM68.8827 28.4968C67.5957 28.4968 66.4887 27.4429 66.4887 25.9444C66.4887 24.4297 67.5957 23.3929 68.8827 23.3929C70.1733 23.3929 71.2875 24.4297 71.2875 25.9444C71.2875 27.4429 70.1733 28.4968 68.8827 28.4968ZM59.574 21.7369C57.2187 21.7369 55.3062 23.5054 55.3062 25.9444C55.3062 28.3672 57.2187 30.1564 59.574 30.1564C61.9266 30.1564 63.8427 28.3672 63.8427 25.9444C63.8427 23.5054 61.9257 21.7369 59.574 21.7369ZM59.574 28.4968C58.2843 28.4968 57.1728 27.4429 57.1728 25.9444C57.1728 24.4297 58.2843 23.3929 59.574 23.3929C60.861 23.3929 61.9716 24.4297 61.9716 25.9444C61.9716 27.4429 60.861 28.4968 59.574 28.4968ZM48.4932 23.0266V24.8167H52.8105C52.6845 25.8148 52.3461 26.5492 51.8295 27.0631C51.1995 27.6814 50.2185 28.3672 48.4932 28.3672C45.8382 28.3672 43.7574 26.2468 43.7574 23.6179C43.7574 20.9881 45.8391 18.8641 48.4932 18.8641C49.9314 18.8641 50.9754 19.4194 51.7449 20.1403L53.0211 18.8785C51.9411 17.8588 50.5074 17.0785 48.4932 17.0785C44.8509 17.0785 41.7927 20.0107 41.7927 23.6179C41.7927 27.2206 44.8545 30.1564 48.4932 30.1564C50.4615 30.1564 51.942 29.5174 53.1057 28.3177C54.2973 27.1405 54.6663 25.4809 54.6663 24.1444C54.6663 23.7268 54.6312 23.347 54.5718 23.0266H48.4932ZM93.8028 24.4126C93.4509 23.4694 92.3682 21.7369 90.1605 21.7369C87.9699 21.7369 86.1492 23.4415 86.1492 25.9444C86.1492 28.3042 87.9528 30.1564 90.3675 30.1564C92.3223 30.1564 93.4509 28.9756 93.9117 28.2898L92.4627 27.3331C91.9776 28.0333 91.3197 28.4968 90.3675 28.4968C89.4225 28.4968 88.7439 28.0684 88.3074 27.2206L93.9954 24.8896C93.999 24.8896 93.8028 24.4126 93.8028 24.4126ZM88.0014 25.8148C87.9528 24.1903 89.274 23.3605 90.2244 23.3605C90.9651 23.3605 91.5942 23.7268 91.8057 24.2542L88.0014 25.8148ZM83.379 29.8999H85.2492V17.5249H83.379V29.8999ZM80.3163 22.672H80.2533C79.8348 22.1833 79.0329 21.736 78.0177 21.736C75.8865 21.736 73.9389 23.5855 73.9389 25.9588C73.9389 28.3213 75.8865 30.1564 78.0177 30.1564C79.0329 30.1564 79.8357 29.7064 80.2533 29.2006H80.3163V29.8018C80.3163 31.4119 79.4478 32.2768 78.0456 32.2768C76.9026 32.2768 76.1961 31.4605 75.9009 30.7756L74.2764 31.447C74.7444 32.5612 75.9855 33.9355 78.0456 33.9355C80.2389 33.9355 82.0884 32.6593 82.0884 29.5525V21.9925H80.3163V22.672ZM78.1752 28.4968C76.8882 28.4968 75.8091 27.4285 75.8091 25.9588C75.8091 24.4756 76.8891 23.3929 78.1761 23.3929C79.4478 23.3929 80.4468 24.4756 80.4468 25.9588C80.4468 27.4285 79.4478 28.4968 78.1752 28.4968ZM102.556 17.5249H98.0841V29.8999H99.9516V25.2109H102.556C104.631 25.2109 106.659 23.7259 106.659 21.3679C106.659 19.0081 104.623 17.5249 102.556 17.5249ZM102.606 23.491H99.9507V19.2475H102.606C103.998 19.2475 104.793 20.3905 104.793 21.3679C104.793 22.3237 103.998 23.491 102.606 23.491ZM114.133 21.7117C112.787 21.7117 111.388 22.303 110.812 23.6071L112.463 24.2929C112.822 23.6071 113.476 23.3821 114.169 23.3821C115.135 23.3821 116.117 23.9581 116.131 24.9751V25.1047C115.793 24.9112 115.072 24.6268 114.182 24.6268C112.4 24.6268 110.586 25.597 110.586 27.4105C110.586 29.0701 112.045 30.1357 113.687 30.1357C114.942 30.1357 115.634 29.5732 116.071 28.9225H116.134V29.8792H117.934V25.1326C117.934 22.9393 116.278 21.7117 114.133 21.7117ZM113.908 28.4932C113.296 28.4932 112.45 28.1917 112.45 27.4429C112.45 26.4862 113.507 26.1199 114.425 26.1199C115.248 26.1199 115.631 26.2999 116.13 26.5357C115.986 27.6814 114.987 28.4932 113.908 28.4932ZM124.497 21.9826L122.353 27.3475H122.29L120.071 21.9835H118.061L121.39 29.4778L119.491 33.6511H121.439L126.568 21.9826H124.498H124.497ZM107.684 29.8999H109.555V17.5249H107.684V29.8999Z" fill="white"/>
<path d="M11.1846 7.66371C10.893 7.96971 10.7202 8.44041 10.7202 9.05601V30.9476C10.7202 31.5632 10.8894 32.0339 11.1846 32.3399L11.2584 32.4065L23.6514 20.144V19.856L11.2575 7.59351L11.1846 7.66371Z" fill="url(#paint0_linear_2402_13940)"/>
<path d="M27.7779 24.2363L23.6505 20.144V19.856L27.7815 15.7673L27.8733 15.8195L32.7666 18.5762C34.1625 19.3601 34.1625 20.6435 32.7666 21.431L27.8733 24.1832C27.8733 24.1805 27.7779 24.2363 27.7779 24.2363Z" fill="url(#paint1_linear_2402_13940)"/>
<path d="M27.8733 24.1805L23.6505 20L11.1846 32.339C11.6481 32.8214 12.4041 32.8808 13.2654 32.3993L27.8733 24.1805Z" fill="url(#paint2_linear_2402_13940)"/>
<path d="M27.8733 15.8194L13.2663 7.6006C12.4041 7.1218 11.6481 7.1821 11.1846 7.6636L23.6505 19.9999L27.8733 15.8194Z" fill="url(#paint3_linear_2402_13940)"/>
</g>
<defs>
<linearGradient id="paint0_linear_2402_13940" x1="22.5568" y1="31.1742" x2="5.93661" y2="14.3865" gradientUnits="userSpaceOnUse">
<stop stop-color="#00A0FF"/>
<stop offset="0.007" stop-color="#00A1FF"/>
<stop offset="0.26" stop-color="#00BEFF"/>
<stop offset="0.512" stop-color="#00D2FF"/>
<stop offset="0.76" stop-color="#00DFFF"/>
<stop offset="1" stop-color="#00E3FF"/>
</linearGradient>
<linearGradient id="paint1_linear_2402_13940" x1="34.5969" y1="19.9915" x2="10.3911" y2="19.9915" gradientUnits="userSpaceOnUse">
<stop stop-color="#FFE000"/>
<stop offset="0.409" stop-color="#FFBD00"/>
<stop offset="0.775" stop-color="#FFA500"/>
<stop offset="1" stop-color="#FF9C00"/>
</linearGradient>
<linearGradient id="paint2_linear_2402_13940" x1="17.2386" y1="25.9817" x2="-5.29974" y2="3.21626" gradientUnits="userSpaceOnUse">
<stop stop-color="#FF3A44"/>
<stop offset="1" stop-color="#C31162"/>
</linearGradient>
<linearGradient id="paint3_linear_2402_13940" x1="-0.295293" y1="31.3624" x2="9.7691" y2="21.1967" gradientUnits="userSpaceOnUse">
<stop stop-color="#32A071"/>
<stop offset="0.069" stop-color="#2DA771"/>
<stop offset="0.476" stop-color="#15CF74"/>
<stop offset="0.801" stop-color="#06E775"/>
<stop offset="1" stop-color="#00F076"/>
</linearGradient>
<clipPath id="clip0_2402_13940">
<rect width="135" height="40" fill="white" transform="translate(0.75)"/>
</clipPath>
</defs>
</svg>
