<svg width="136" height="40" viewBox="0 0 136 40" fill="none" xmlns="http://www.w3.org/2000/svg">
<g clip-path="url(#clip0_101_21789)">
<path d="M130.4 39.7964H5.3994C2.6499 39.7964 0.399902 37.5707 0.399902 34.85V5.15361C0.399902 2.43201 2.6499 0.203613 5.3994 0.203613H130.4C133.146 0.203613 135.4 2.43201 135.4 5.15361V34.85C135.4 37.5707 133.15 39.7964 130.4 39.7964Z" fill="black"/>
<path d="M130.4 0.994637C132.713 0.994637 134.598 2.86124 134.598 5.15264V34.8499C134.598 37.1386 132.714 39.0052 130.4 39.0052H5.3994C3.0819 39.0052 1.2009 37.1422 1.2009 34.8499V5.15354C1.2009 2.86124 3.0855 0.994637 5.3994 0.994637H130.4ZM130.4 0.202637H5.3994C2.6499 0.203537 0.399902 2.43194 0.399902 5.15354V34.8499C0.399902 37.5706 2.6499 39.7999 5.3994 39.7999H130.4C133.146 39.7999 135.4 37.5706 135.4 34.8499V5.15354C135.4 2.43194 133.15 0.203537 130.4 0.203537V0.202637Z" fill="#A6A6A6"/>
<path d="M44.8687 13.2859C43.9867 13.2859 43.2271 12.9799 42.6052 12.3706C41.986 11.7586 41.6728 10.9963 41.6728 10.0999C41.6728 9.20348 41.986 8.44028 42.6052 7.83548C43.2235 7.22798 43.9867 6.91748 44.8687 6.91748C45.2944 6.91748 45.7192 7.00298 46.1314 7.17488C46.5355 7.34678 46.8586 7.57538 47.098 7.86068L47.143 7.91648L46.5103 8.54918L46.4545 8.48258C46.0639 8.03258 45.5473 7.81118 44.8687 7.81118C44.5755 7.80789 44.2846 7.86239 44.0125 7.97157C43.7404 8.08075 43.4925 8.24247 43.2829 8.44748C42.8401 8.86958 42.6187 9.42488 42.6187 10.0999C42.6187 10.7785 42.8401 11.3374 43.2829 11.7595C43.7329 12.1816 44.2675 12.3922 44.8687 12.3922C45.5158 12.3922 46.0567 12.178 46.486 11.7559C46.7497 11.4922 46.9045 11.1439 46.9567 10.6867H44.7877V9.81188H47.836L47.8504 9.87488C47.8819 10.0189 47.899 10.1665 47.899 10.3429C47.899 11.1826 47.6389 11.872 47.1331 12.3814C46.549 12.979 45.7903 13.285 44.8687 13.285V13.2859ZM52.5052 13.1482H48.8449V7.05518H52.5052V7.94438H49.7764V9.66338H52.2379V10.5391H49.7764V12.2581H52.5052V13.1482ZM55.7569 13.1482H54.8254V7.94438H53.1514V7.05518H57.4336V7.94438H55.7569V13.1482ZM61.1848 13.1482H60.2569V7.05518H61.1848V13.1482ZM64.6048 13.1482H63.6814V7.94438H62.0002V7.05518H66.286V7.94438H64.6057L64.6048 13.1482ZM71.8129 13.285C70.9165 13.285 70.1569 12.9754 69.5521 12.3607C68.9509 11.7487 68.6449 10.9891 68.6449 10.1035C68.6449 9.21428 68.9509 8.45108 69.5521 7.84268C70.1569 7.23068 70.9165 6.91838 71.8129 6.91838C72.7021 6.91838 73.4581 7.23068 74.0629 7.84988C74.6677 8.46188 74.9728 9.22058 74.9728 10.1035C74.9728 10.9891 74.6668 11.7523 74.0665 12.3643C73.4617 12.9763 72.7021 13.285 71.8129 13.285ZM70.2343 11.7523C70.6699 12.1843 71.1829 12.3958 71.8129 12.3958C72.1043 12.4013 72.3938 12.3471 72.6634 12.2364C72.9331 12.1257 73.1772 11.961 73.3807 11.7523C73.8091 11.323 74.0278 10.7677 74.0278 10.0999C74.0278 9.43568 73.8091 8.88038 73.3798 8.45108C72.9586 8.02178 72.4312 7.80758 71.8129 7.80758C71.1865 7.80758 70.6699 8.01818 70.2343 8.45108C69.8086 8.88038 69.5908 9.43568 69.5908 10.0999C69.5908 10.7677 69.8086 11.3239 70.2343 11.7523ZM80.6788 13.1473H79.7509L79.7266 13.1095L76.7944 8.45828L76.8223 9.36908V13.1482H75.8944V7.05518H76.9564L79.7752 11.5165L79.7482 10.6129V7.05518H80.6788V13.1473ZM68.5324 21.7369C66.1879 21.7369 64.2682 23.5054 64.2682 25.9444C64.2682 28.3672 66.1879 30.1564 68.5324 30.1564C70.8877 30.1564 72.8074 28.3672 72.8074 25.9444C72.8074 23.5054 70.8877 21.7369 68.5324 21.7369ZM68.5324 28.4968C67.2454 28.4968 66.1384 27.4429 66.1384 25.9444C66.1384 24.4297 67.2454 23.3929 68.5324 23.3929C69.823 23.3929 70.9372 24.4297 70.9372 25.9444C70.9372 27.4429 69.823 28.4968 68.5324 28.4968ZM59.2237 21.7369C56.8684 21.7369 54.9559 23.5054 54.9559 25.9444C54.9559 28.3672 56.8684 30.1564 59.2237 30.1564C61.5763 30.1564 63.4924 28.3672 63.4924 25.9444C63.4924 23.5054 61.5754 21.7369 59.2237 21.7369ZM59.2237 28.4968C57.934 28.4968 56.8225 27.4429 56.8225 25.9444C56.8225 24.4297 57.934 23.3929 59.2237 23.3929C60.5107 23.3929 61.6213 24.4297 61.6213 25.9444C61.6213 27.4429 60.5107 28.4968 59.2237 28.4968ZM48.1429 23.0266V24.8167H52.4602C52.3342 25.8148 51.9958 26.5492 51.4792 27.0631C50.8492 27.6814 49.8682 28.3672 48.1429 28.3672C45.4879 28.3672 43.4071 26.2468 43.4071 23.6179C43.4071 20.9881 45.4888 18.8641 48.1429 18.8641C49.5811 18.8641 50.6251 19.4194 51.3946 20.1403L52.6708 18.8785C51.5908 17.8588 50.1571 17.0785 48.1429 17.0785C44.5006 17.0785 41.4424 20.0107 41.4424 23.6179C41.4424 27.2206 44.5042 30.1564 48.1429 30.1564C50.1112 30.1564 51.5917 29.5174 52.7554 28.3177C53.947 27.1405 54.316 25.4809 54.316 24.1444C54.316 23.7268 54.2809 23.347 54.2215 23.0266H48.1429ZM93.4525 24.4126C93.1006 23.4694 92.0179 21.7369 89.8102 21.7369C87.6196 21.7369 85.7989 23.4415 85.7989 25.9444C85.7989 28.3042 87.6025 30.1564 90.0172 30.1564C91.972 30.1564 93.1006 28.9756 93.5614 28.2898L92.1124 27.3331C91.6273 28.0333 90.9694 28.4968 90.0172 28.4968C89.0722 28.4968 88.3936 28.0684 87.9571 27.2206L93.6451 24.8896C93.6487 24.8896 93.4525 24.4126 93.4525 24.4126ZM87.6511 25.8148C87.6025 24.1903 88.9237 23.3605 89.8741 23.3605C90.6148 23.3605 91.2439 23.7268 91.4554 24.2542L87.6511 25.8148ZM83.0287 29.8999H84.8989V17.5249H83.0287V29.8999ZM79.966 22.672H79.903C79.4845 22.1833 78.6826 21.736 77.6674 21.736C75.5362 21.736 73.5886 23.5855 73.5886 25.9588C73.5886 28.3213 75.5362 30.1564 77.6674 30.1564C78.6826 30.1564 79.4854 29.7064 79.903 29.2006H79.966V29.8018C79.966 31.4119 79.0975 32.2768 77.6953 32.2768C76.5523 32.2768 75.8458 31.4605 75.5506 30.7756L73.9261 31.447C74.3941 32.5612 75.6352 33.9355 77.6953 33.9355C79.8886 33.9355 81.7381 32.6593 81.7381 29.5525V21.9925H79.966V22.672ZM77.8249 28.4968C76.5379 28.4968 75.4588 27.4285 75.4588 25.9588C75.4588 24.4756 76.5388 23.3929 77.8258 23.3929C79.0975 23.3929 80.0965 24.4756 80.0965 25.9588C80.0965 27.4285 79.0975 28.4968 77.8249 28.4968ZM102.206 17.5249H97.7338V29.8999H99.6013V25.2109H102.206C104.28 25.2109 106.309 23.7259 106.309 21.3679C106.309 19.0081 104.273 17.5249 102.206 17.5249ZM102.255 23.491H99.6004V19.2475H102.255C103.648 19.2475 104.442 20.3905 104.442 21.3679C104.442 22.3237 103.648 23.491 102.255 23.491ZM113.783 21.7117C112.436 21.7117 111.038 22.303 110.462 23.6071L112.113 24.2929C112.471 23.6071 113.126 23.3821 113.819 23.3821C114.785 23.3821 115.766 23.9581 115.781 24.9751V25.1047C115.442 24.9112 114.721 24.6268 113.832 24.6268C112.05 24.6268 110.236 25.597 110.236 27.4105C110.236 29.0701 111.695 30.1357 113.336 30.1357C114.592 30.1357 115.284 29.5732 115.72 28.9225H115.783V29.8792H117.583V25.1326C117.583 22.9393 115.927 21.7117 113.783 21.7117ZM113.558 28.4932C112.946 28.4932 112.1 28.1917 112.1 27.4429C112.1 26.4862 113.157 26.1199 114.075 26.1199C114.898 26.1199 115.281 26.2999 115.78 26.5357C115.636 27.6814 114.637 28.4932 113.558 28.4932ZM124.147 21.9826L122.002 27.3475H121.939L119.721 21.9835H117.71L121.039 29.4778L119.14 33.6511H121.089L126.218 21.9826H124.148H124.147ZM107.334 29.8999H109.205V17.5249H107.334V29.8999Z" fill="white"/>
<path d="M10.8345 7.66371C10.5429 7.96971 10.3701 8.44041 10.3701 9.05601V30.9476C10.3701 31.5632 10.5393 32.0339 10.8345 32.3399L10.9083 32.4065L23.3013 20.144V19.856L10.9074 7.59351L10.8345 7.66371Z" fill="url(#paint0_linear_101_21789)"/>
<path d="M27.4277 24.2363L23.3003 20.144V19.856L27.4313 15.7673L27.5231 15.8195L32.4164 18.5762C33.8123 19.3601 33.8123 20.6435 32.4164 21.431L27.5231 24.1832C27.5231 24.1805 27.4277 24.2363 27.4277 24.2363Z" fill="url(#paint1_linear_101_21789)"/>
<path d="M27.5232 24.1805L23.3004 20L10.8345 32.339C11.298 32.8214 12.054 32.8808 12.9153 32.3993L27.5232 24.1805Z" fill="url(#paint2_linear_101_21789)"/>
<path d="M27.5232 15.8194L12.9162 7.6006C12.054 7.1218 11.298 7.1821 10.8345 7.6636L23.3004 19.9999L27.5232 15.8194Z" fill="url(#paint3_linear_101_21789)"/>
</g>
<defs>
<linearGradient id="paint0_linear_101_21789" x1="22.2067" y1="31.1742" x2="5.58653" y2="14.3865" gradientUnits="userSpaceOnUse">
<stop stop-color="#00A0FF"/>
<stop offset="0.007" stop-color="#00A1FF"/>
<stop offset="0.26" stop-color="#00BEFF"/>
<stop offset="0.512" stop-color="#00D2FF"/>
<stop offset="0.76" stop-color="#00DFFF"/>
<stop offset="1" stop-color="#00E3FF"/>
</linearGradient>
<linearGradient id="paint1_linear_101_21789" x1="34.2467" y1="19.9915" x2="10.0409" y2="19.9915" gradientUnits="userSpaceOnUse">
<stop stop-color="#FFE000"/>
<stop offset="0.409" stop-color="#FFBD00"/>
<stop offset="0.775" stop-color="#FFA500"/>
<stop offset="1" stop-color="#FF9C00"/>
</linearGradient>
<linearGradient id="paint2_linear_101_21789" x1="16.8885" y1="25.9817" x2="-5.64986" y2="3.21626" gradientUnits="userSpaceOnUse">
<stop stop-color="#FF3A44"/>
<stop offset="1" stop-color="#C31162"/>
</linearGradient>
<linearGradient id="paint3_linear_101_21789" x1="-0.645421" y1="31.3624" x2="9.41897" y2="21.1967" gradientUnits="userSpaceOnUse">
<stop stop-color="#32A071"/>
<stop offset="0.069" stop-color="#2DA771"/>
<stop offset="0.476" stop-color="#15CF74"/>
<stop offset="0.801" stop-color="#06E775"/>
<stop offset="1" stop-color="#00F076"/>
</linearGradient>
<clipPath id="clip0_101_21789">
<rect width="135" height="40" fill="white" transform="translate(0.399902)"/>
</clipPath>
</defs>
</svg>
