<svg width="20" height="20" viewBox="0 0 20 20" fill="none" xmlns="http://www.w3.org/2000/svg">
<g clip-path="url(#clip0_101_639739)">
<g filter="url(#filter0_dd_101_639739)">
<path d="M12.6307 16.1727H13.7256C13.9235 16.1727 14.084 16.0123 14.084 15.8144V14.6195C14.084 14.5366 14.1054 14.455 14.1463 14.3829L14.6962 13.4114C15.3686 12.2235 15.722 10.8817 15.722 9.5167V9.06403C15.722 8.93186 15.7329 8.79992 15.7545 8.66953L16.0141 7.10437C16.1219 6.45497 15.621 5.86414 14.9627 5.86414C14.4524 5.86414 14.0137 6.22581 13.9164 6.72673L13.5844 8.43607C13.576 8.47937 13.512 8.47231 13.5132 8.42821L13.5979 5.41064C13.613 4.86906 13.1781 4.4218 12.6364 4.4218C12.1429 4.4218 11.7295 4.79523 11.6794 5.28617L11.3667 8.35521C11.3606 8.4148 11.2737 8.41433 11.2682 8.35468L10.9332 4.67171C10.8896 4.19338 10.4886 3.82715 10.0083 3.82715C9.47124 3.82715 9.04615 4.28129 9.0816 4.81716L9.28111 7.83281C9.28469 7.88703 9.19505 7.89752 9.18603 7.84394C9.06598 7.13066 8.89926 6.21794 8.7545 5.70642C8.66982 5.40719 8.49569 5.07917 8.30771 4.7821C7.96377 4.2386 7.21412 4.21683 6.76243 4.67471C6.4744 4.96668 6.37127 5.39389 6.49437 5.78511L7.43597 8.77759C7.54371 9.12001 7.59853 9.47687 7.59853 9.83584C7.59853 10.1708 7.21029 10.3562 6.94975 10.1457L5.64836 9.09419C5.46517 8.94618 5.23678 8.86544 5.00127 8.86544H4.95826C4.41339 8.86544 3.97168 9.30715 3.97168 9.85202C3.97168 10.0586 4.0365 10.2599 4.15702 10.4277L6.05577 13.0706C6.54424 13.7505 7.15194 14.3363 7.84939 14.7994L8.27103 15.0793C8.44242 15.1932 8.54544 15.3852 8.54544 15.591C8.54544 15.881 8.6766 16.1727 9.01556 16.1727H10.2563C10.631 16.1727 10.9807 15.9849 11.1877 15.6725C11.3871 15.3714 11.6706 14.9972 12.0993 14.9972C12.7508 14.9972 12.539 15.6582 12.539 16.081C12.539 16.1317 12.58 16.1727 12.6307 16.1727Z" fill="white"/>
<path d="M10.064 10.7661L10.064 13.9731M11.7086 10.7661V13.9731M13.3943 10.7661V13.9731M13.7256 16.1727H12.6307C12.58 16.1727 12.539 16.1317 12.539 16.081C12.539 15.6582 12.7508 14.9972 12.0993 14.9972C11.6706 14.9972 11.3871 15.3714 11.1877 15.6725C10.9807 15.9849 10.631 16.1727 10.2563 16.1727H9.01556C8.6766 16.1727 8.54544 15.881 8.54544 15.591C8.54544 15.3852 8.44242 15.1932 8.27103 15.0793L7.84939 14.7994C7.15194 14.3363 6.54424 13.7505 6.05577 13.0706L4.15702 10.4277C4.0365 10.2599 3.97168 10.0586 3.97168 9.85202C3.97168 9.30715 4.41339 8.86544 4.95826 8.86544H5.00127C5.23678 8.86544 5.46517 8.94618 5.64836 9.09419L6.94975 10.1457C7.21029 10.3562 7.59853 10.1708 7.59853 9.83584C7.59853 9.47687 7.54371 9.12001 7.43597 8.77759L6.49437 5.78511C6.37127 5.39389 6.4744 4.96668 6.76243 4.67471C7.21412 4.21683 7.96377 4.2386 8.30771 4.7821C8.49569 5.07917 8.66982 5.40719 8.7545 5.70642C8.89926 6.21794 9.06598 7.13066 9.18603 7.84394C9.19505 7.89752 9.28469 7.88703 9.28111 7.83281L9.0816 4.81716C9.04615 4.28129 9.47124 3.82715 10.0083 3.82715C10.4886 3.82715 10.8896 4.19338 10.9332 4.67171L11.2682 8.35468C11.2737 8.41433 11.3606 8.4148 11.3667 8.35521L11.6794 5.28617C11.7295 4.79523 12.1429 4.4218 12.6364 4.4218C13.1781 4.4218 13.613 4.86906 13.5979 5.41064L13.5132 8.42821C13.512 8.47231 13.576 8.47937 13.5844 8.43607L13.9164 6.72673C14.0137 6.22581 14.4524 5.86414 14.9627 5.86414C15.621 5.86414 16.1219 6.45497 16.0141 7.10437L15.7545 8.66953C15.7329 8.79992 15.722 8.93186 15.722 9.06403V9.5167C15.722 10.8817 15.3686 12.2235 14.6962 13.4114L14.1463 14.3829C14.1054 14.455 14.084 14.5366 14.084 14.6195V15.8144C14.084 16.0123 13.9235 16.1727 13.7256 16.1727Z" stroke="#272D37" stroke-width="0.5"/>
</g>
</g>
<defs>
<filter id="filter0_dd_101_639739" x="1.63835" y="3.16048" width="16.7243" height="17.0124" filterUnits="userSpaceOnUse" color-interpolation-filters="sRGB">
<feFlood flood-opacity="0" result="BackgroundImageFix"/>
<feColorMatrix in="SourceAlpha" type="matrix" values="0 0 0 0 0 0 0 0 0 0 0 0 0 0 0 0 0 0 127 0" result="hardAlpha"/>
<feMorphology radius="0.416667" operator="erode" in="SourceAlpha" result="effect1_dropShadow_101_639739"/>
<feOffset dy="1.66667"/>
<feGaussianBlur stdDeviation="1.25"/>
<feColorMatrix type="matrix" values="0 0 0 0 0.0627451 0 0 0 0 0.0941176 0 0 0 0 0.156863 0 0 0 0.1 0"/>
<feBlend mode="normal" in2="BackgroundImageFix" result="effect1_dropShadow_101_639739"/>
<feColorMatrix in="SourceAlpha" type="matrix" values="0 0 0 0 0 0 0 0 0 0 0 0 0 0 0 0 0 0 127 0" result="hardAlpha"/>
<feMorphology radius="0.833333" operator="erode" in="SourceAlpha" result="effect2_dropShadow_101_639739"/>
<feOffset dy="0.833333"/>
<feGaussianBlur stdDeviation="0.833333"/>
<feColorMatrix type="matrix" values="0 0 0 0 0.0627451 0 0 0 0 0.0941176 0 0 0 0 0.156863 0 0 0 0.1 0"/>
<feBlend mode="normal" in2="effect1_dropShadow_101_639739" result="effect2_dropShadow_101_639739"/>
<feBlend mode="normal" in="SourceGraphic" in2="effect2_dropShadow_101_639739" result="shape"/>
</filter>
<clipPath id="clip0_101_639739">
<rect width="20" height="20" fill="white"/>
</clipPath>
</defs>
</svg>
