<svg width="21" height="20" viewBox="0 0 21 20" fill="none" xmlns="http://www.w3.org/2000/svg">
<path d="M17.4167 8.3335V6.00016C17.4167 5.06674 17.4167 4.60003 17.235 4.24351C17.0752 3.92991 16.8203 3.67494 16.5067 3.51515C16.1502 3.3335 15.6834 3.3335 14.75 3.3335H5.08335C4.14993 3.3335 3.68322 3.3335 3.3267 3.51515C3.0131 3.67494 2.75813 3.92991 2.59834 4.24351C2.41669 4.60003 2.41669 5.06674 2.41669 6.00016V14.0002C2.41669 14.9336 2.41669 15.4003 2.59834 15.7568C2.75813 16.0704 3.0131 16.3254 3.3267 16.4852C3.68322 16.6668 4.14993 16.6668 5.08335 16.6668H14.75C15.6834 16.6668 16.1502 16.6668 16.5067 16.4852C16.8203 16.3254 17.0752 16.0704 17.235 15.7568C17.4167 15.4003 17.4167 14.9336 17.4167 14.0002V12.0835M13.75 11.6668H17.75C18.2167 11.6668 18.4501 11.6668 18.6283 11.576C18.7851 11.4961 18.9126 11.3686 18.9925 11.2118C19.0834 11.0336 19.0834 10.8002 19.0834 10.3335V9.66683C19.0834 9.20012 19.0834 8.96676 18.9925 8.7885C18.9126 8.6317 18.7851 8.50422 18.6283 8.42432C18.4501 8.3335 18.2167 8.3335 17.75 8.3335H13.75C13.2833 8.3335 13.05 8.3335 12.8717 8.42432C12.7149 8.50422 12.5874 8.6317 12.5075 8.7885C12.4167 8.96676 12.4167 9.20012 12.4167 9.66683V10.3335C12.4167 10.8002 12.4167 11.0336 12.5075 11.2118C12.5874 11.3686 12.7149 11.4961 12.8717 11.576C13.05 11.6668 13.2833 11.6668 13.75 11.6668Z" stroke="white" stroke-width="1.5"/>
</svg>
