<svg width="21" height="20" viewBox="0 0 21 20" fill="none" xmlns="http://www.w3.org/2000/svg">
<path d="M16.6337 5.88103L17.1943 6.3793L17.1943 6.3793L16.6337 5.88103ZM10.1894 12.0019C9.91426 12.3115 9.94215 12.7856 10.2517 13.0608C10.5613 13.3359 11.0354 13.3081 11.3106 12.9985L10.1894 12.0019ZM14.8692 4.11649L14.3709 3.55593L14.3709 3.55593L14.8692 4.11649ZM7.75173 9.43964C7.44215 9.71483 7.41426 10.1889 7.68945 10.4985C7.96464 10.8081 8.43869 10.8359 8.74828 10.5608L7.75173 9.43964ZM16.5833 4.16686L16.053 4.69719L16.053 4.69719L16.5833 4.16686ZM4.91667 15.8335L4.24924 15.4914C4.13006 15.7239 4.14048 16.0017 4.27672 16.2246C4.41297 16.4476 4.65541 16.5835 4.91667 16.5835V15.8335ZM16.0732 5.38275L10.1894 12.0019L11.3106 12.9985L17.1943 6.3793L16.0732 5.38275ZM14.3709 3.55593L7.75173 9.43964L8.74828 10.5608L15.3674 4.67705L14.3709 3.55593ZM17.1137 3.63653C16.3649 2.88779 15.1623 2.85245 14.3709 3.55593L15.3674 4.67705C15.5653 4.50121 15.8659 4.51004 16.053 4.69719L17.1137 3.63653ZM17.1943 6.3793C17.8978 5.58788 17.8624 4.38528 17.1137 3.63653L16.053 4.69719C16.2402 4.88434 16.249 5.18494 16.0732 5.38275L17.1943 6.3793ZM9.36538 14.4489C8.98842 14.8259 8.38482 15.019 7.54452 15.0859C6.68532 15.1543 5.83357 15.0835 4.91667 15.0835V16.5835C5.66644 16.5835 6.7347 16.6551 7.66359 16.5812C8.61138 16.5057 9.66397 16.2717 10.426 15.5096L9.36538 14.4489ZM5.58411 16.1756C6.12015 15.1298 6.01932 13.9428 5.98641 13.1163C5.94833 12.1598 5.99925 11.6868 6.30125 11.3848L5.24059 10.3241C4.40357 11.1612 4.45449 12.3444 4.4876 13.176C4.52589 14.1376 4.56744 14.8706 4.24924 15.4914L5.58411 16.1756ZM6.30125 11.3848C7.14739 10.5387 8.51925 10.5387 9.36538 11.3848L10.426 10.3241C8.99412 8.89222 6.67251 8.89222 5.24059 10.3241L6.30125 11.3848ZM9.36538 11.3848C10.2115 12.2309 10.2115 13.6028 9.36538 14.4489L10.426 15.5096C11.858 14.0777 11.858 11.7561 10.426 10.3241L9.36538 11.3848Z" fill="white"/>
</svg>
