<svg width="20" height="20" viewBox="0 0 20 20" fill="none" xmlns="http://www.w3.org/2000/svg">
<path d="M15.8835 5.88103L16.4441 6.3793L16.4441 6.3793L15.8835 5.88103ZM9.43928 12.0019C9.16409 12.3115 9.19198 12.7856 9.50156 13.0608C9.81115 13.3359 10.2852 13.3081 10.5604 12.9985L9.43928 12.0019ZM14.119 4.11649L13.6207 3.55593L13.6207 3.55593L14.119 4.11649ZM7.00156 9.43964C6.69198 9.71483 6.66409 10.1889 6.93928 10.4985C7.21447 10.8081 7.68852 10.8359 7.99811 10.5608L7.00156 9.43964ZM15.8332 4.16686L15.3028 4.69719L15.3028 4.69719L15.8332 4.16686ZM4.1665 15.8335L3.49907 15.4914C3.3799 15.7239 3.39031 16.0017 3.52655 16.2246C3.6628 16.4476 3.90524 16.5835 4.1665 16.5835V15.8335ZM15.323 5.38275L9.43928 12.0019L10.5604 12.9985L16.4441 6.3793L15.323 5.38275ZM13.6207 3.55593L7.00156 9.43964L7.99811 10.5608L14.6173 4.67705L13.6207 3.55593ZM16.3635 3.63653C15.6148 2.88779 14.4122 2.85245 13.6207 3.55593L14.6173 4.67705C14.8151 4.50121 15.1157 4.51004 15.3028 4.69719L16.3635 3.63653ZM16.4441 6.3793C17.1476 5.58788 17.1122 4.38528 16.3635 3.63653L15.3028 4.69719C15.49 4.88434 15.4988 5.18494 15.323 5.38275L16.4441 6.3793ZM8.61521 14.4489C8.23825 14.8259 7.63466 15.019 6.79436 15.0859C5.93515 15.1543 5.0834 15.0835 4.1665 15.0835V16.5835C4.91628 16.5835 5.98453 16.6551 6.91342 16.5812C7.86122 16.5057 8.91381 16.2717 9.67587 15.5096L8.61521 14.4489ZM4.83394 16.1756C5.36998 15.1298 5.26915 13.9428 5.23624 13.1163C5.19816 12.1598 5.24908 11.6868 5.55108 11.3848L4.49042 10.3241C3.6534 11.1612 3.70432 12.3444 3.73743 13.176C3.77572 14.1376 3.81728 14.8706 3.49907 15.4914L4.83394 16.1756ZM5.55108 11.3848C6.39722 10.5387 7.76908 10.5387 8.61521 11.3848L9.67587 10.3241C8.24395 8.89222 5.92235 8.89222 4.49042 10.3241L5.55108 11.3848ZM8.61521 11.3848C9.46135 12.2309 9.46135 13.6028 8.61521 14.4489L9.67587 15.5096C11.1078 14.0777 11.1078 11.7561 9.67587 10.3241L8.61521 11.3848Z" fill="white"/>
</svg>
