<svg width="21" height="20" viewBox="0 0 21 20" fill="none" xmlns="http://www.w3.org/2000/svg">
<g clip-path="url(#clip0_2403_23248)">
<path d="M9.91671 0.833496V8.99424C9.91671 9.36545 10.3655 9.55135 10.628 9.28887L12.0715 7.84534C12.7224 7.19447 13.7777 7.19447 14.4286 7.84534L15.8721 9.28887C16.1346 9.55135 16.5834 9.36545 16.5834 8.99424V1.66683M8.25004 19.1668H13.25C15.5836 19.1668 16.7504 19.1668 17.6417 18.7127C18.4257 18.3132 19.0631 17.6758 19.4626 16.8918C19.9167 16.0005 19.9167 14.8337 19.9167 12.5002V7.50016C19.9167 5.16661 19.9167 3.99983 19.4626 3.10854C19.0631 2.32453 18.4257 1.68711 17.6417 1.28764C16.7504 0.833496 15.5836 0.833496 13.25 0.833496H8.25004C5.91649 0.833496 4.74971 0.833496 3.85841 1.28764C3.0744 1.68711 2.43699 2.32453 2.03751 3.10854C1.58337 3.99983 1.58337 5.16661 1.58337 7.50016V12.5002C1.58337 14.8337 1.58337 16.0005 2.03751 16.8918C2.43699 17.6758 3.0744 18.3132 3.85841 18.7127C4.74971 19.1668 5.91649 19.1668 8.25004 19.1668Z" stroke="white" stroke-width="1.5" stroke-linecap="round"/>
</g>
<defs>
<clipPath id="clip0_2403_23248">
<rect width="20" height="20" fill="white" transform="translate(0.75)"/>
</clipPath>
</defs>
</svg>
