<svg width="20" height="20" viewBox="0 0 20 20" fill="none" xmlns="http://www.w3.org/2000/svg">
<path d="M15.884 5.88103L16.4446 6.3793L16.4446 6.3793L15.884 5.88103ZM9.43977 12.0019C9.16458 12.3115 9.19247 12.7856 9.50205 13.0608C9.81164 13.3359 10.2857 13.3081 10.5609 12.9985L9.43977 12.0019ZM14.1195 4.11649L13.6212 3.55593L13.6212 3.55593L14.1195 4.11649ZM7.00205 9.43964C6.69247 9.71483 6.66458 10.1889 6.93977 10.4985C7.21496 10.8081 7.68901 10.8359 7.9986 10.5608L7.00205 9.43964ZM15.8337 4.16686L15.3033 4.69719L15.3033 4.69719L15.8337 4.16686ZM4.16699 15.8335L3.49956 15.4914C3.38039 15.7239 3.3908 16.0017 3.52704 16.2246C3.66329 16.4476 3.90573 16.5835 4.16699 16.5835V15.8335ZM15.3235 5.38275L9.43977 12.0019L10.5609 12.9985L16.4446 6.3793L15.3235 5.38275ZM13.6212 3.55593L7.00205 9.43964L7.9986 10.5608L14.6178 4.67705L13.6212 3.55593ZM16.364 3.63653C15.6152 2.88779 14.4126 2.85245 13.6212 3.55593L14.6178 4.67705C14.8156 4.50121 15.1162 4.51004 15.3033 4.69719L16.364 3.63653ZM16.4446 6.3793C17.1481 5.58788 17.1127 4.38528 16.364 3.63653L15.3033 4.69719C15.4905 4.88434 15.4993 5.18494 15.3235 5.38275L16.4446 6.3793ZM8.6157 14.4489C8.23874 14.8259 7.63514 15.019 6.79485 15.0859C5.93564 15.1543 5.08389 15.0835 4.16699 15.0835V16.5835C4.91676 16.5835 5.98502 16.6551 6.91391 16.5812C7.8617 16.5057 8.91429 16.2717 9.67636 15.5096L8.6157 14.4489ZM4.83443 16.1756C5.37047 15.1298 5.26964 13.9428 5.23673 13.1163C5.19865 12.1598 5.24957 11.6868 5.55157 11.3848L4.49091 10.3241C3.65389 11.1612 3.70481 12.3444 3.73792 13.176C3.77621 14.1376 3.81776 14.8706 3.49956 15.4914L4.83443 16.1756ZM5.55157 11.3848C6.39771 10.5387 7.76957 10.5387 8.6157 11.3848L9.67636 10.3241C8.24444 8.89222 5.92283 8.89222 4.49091 10.3241L5.55157 11.3848ZM8.6157 11.3848C9.46184 12.2309 9.46184 13.6028 8.6157 14.4489L9.67636 15.5096C11.1083 14.0777 11.1083 11.7561 9.67636 10.3241L8.6157 11.3848Z" fill="white"/>
</svg>
