<svg width="20" height="20" viewBox="0 0 20 20" fill="none" xmlns="http://www.w3.org/2000/svg">
<g clip-path="url(#clip0_101_52646)">
<path d="M9.16683 0.833496V8.99424C9.16683 9.36545 9.61564 9.55135 9.87812 9.28887L11.3217 7.84534C11.9725 7.19447 13.0278 7.19447 13.6787 7.84534L15.1222 9.28887C15.3847 9.55135 15.8335 9.36545 15.8335 8.99424V1.66683M7.50016 19.1668H12.5002C14.8337 19.1668 16.0005 19.1668 16.8918 18.7127C17.6758 18.3132 18.3132 17.6758 18.7127 16.8918C19.1668 16.0005 19.1668 14.8337 19.1668 12.5002V7.50016C19.1668 5.16661 19.1668 3.99983 18.7127 3.10854C18.3132 2.32453 17.6758 1.68711 16.8918 1.28764C16.0005 0.833496 14.8337 0.833496 12.5002 0.833496H7.50016C5.16661 0.833496 3.99983 0.833496 3.10854 1.28764C2.32453 1.68711 1.68711 2.32453 1.28764 3.10854C0.833496 3.99983 0.833496 5.16661 0.833496 7.50016V12.5002C0.833496 14.8337 0.833496 16.0005 1.28764 16.8918C1.68711 17.6758 2.32453 18.3132 3.10854 18.7127C3.99983 19.1668 5.16661 19.1668 7.50016 19.1668Z" stroke="white" stroke-width="1.5" stroke-linecap="round"/>
</g>
<defs>
<clipPath id="clip0_101_52646">
<rect width="20" height="20" fill="white"/>
</clipPath>
</defs>
</svg>
