<svg width="20" height="20" viewBox="0 0 20 20" fill="none" xmlns="http://www.w3.org/2000/svg">
<path d="M16.6665 8.3335V6.00016C16.6665 5.06674 16.6665 4.60003 16.4848 4.24351C16.3251 3.92991 16.0701 3.67494 15.7565 3.51515C15.4 3.3335 14.9333 3.3335 13.9998 3.3335H4.33317C3.39975 3.3335 2.93304 3.3335 2.57652 3.51515C2.26292 3.67494 2.00795 3.92991 1.84816 4.24351C1.6665 4.60003 1.6665 5.06674 1.6665 6.00016V14.0002C1.6665 14.9336 1.6665 15.4003 1.84816 15.7568C2.00795 16.0704 2.26292 16.3254 2.57652 16.4852C2.93304 16.6668 3.39975 16.6668 4.33317 16.6668H13.9998C14.9333 16.6668 15.4 16.6668 15.7565 16.4852C16.0701 16.3254 16.3251 16.0704 16.4848 15.7568C16.6665 15.4003 16.6665 14.9336 16.6665 14.0002V12.0835M12.9998 11.6668H16.9998C17.4665 11.6668 17.6999 11.6668 17.8782 11.576C18.035 11.4961 18.1624 11.3686 18.2423 11.2118C18.3332 11.0336 18.3332 10.8002 18.3332 10.3335V9.66683C18.3332 9.20012 18.3332 8.96676 18.2423 8.7885C18.1624 8.6317 18.035 8.50422 17.8782 8.42432C17.6999 8.3335 17.4665 8.3335 16.9998 8.3335H12.9998C12.5331 8.3335 12.2998 8.3335 12.1215 8.42432C11.9647 8.50422 11.8372 8.6317 11.7573 8.7885C11.6665 8.96676 11.6665 9.20012 11.6665 9.66683V10.3335C11.6665 10.8002 11.6665 11.0336 11.7573 11.2118C11.8372 11.3686 11.9647 11.4961 12.1215 11.576C12.2998 11.6668 12.5331 11.6668 12.9998 11.6668Z" stroke="white" stroke-width="1.5"/>
</svg>
