<svg width="20" height="20" viewBox="0 0 20 20" fill="none" xmlns="http://www.w3.org/2000/svg">
<path d="M16.667 8.3335V6.00016C16.667 5.06674 16.667 4.60003 16.4853 4.24351C16.3255 3.92991 16.0706 3.67494 15.757 3.51515C15.4005 3.3335 14.9337 3.3335 14.0003 3.3335H4.33366C3.40024 3.3335 2.93353 3.3335 2.57701 3.51515C2.2634 3.67494 2.00844 3.92991 1.84865 4.24351C1.66699 4.60003 1.66699 5.06674 1.66699 6.00016V14.0002C1.66699 14.9336 1.66699 15.4003 1.84865 15.7568C2.00844 16.0704 2.2634 16.3254 2.57701 16.4852C2.93353 16.6668 3.40024 16.6668 4.33366 16.6668H14.0003C14.9337 16.6668 15.4005 16.6668 15.757 16.4852C16.0706 16.3254 16.3255 16.0704 16.4853 15.7568C16.667 15.4003 16.667 14.9336 16.667 14.0002V12.0835M13.0003 11.6668H17.0003C17.467 11.6668 17.7004 11.6668 17.8787 11.576C18.0355 11.4961 18.1629 11.3686 18.2428 11.2118C18.3337 11.0336 18.3337 10.8002 18.3337 10.3335V9.66683C18.3337 9.20012 18.3337 8.96676 18.2428 8.7885C18.1629 8.6317 18.0355 8.50422 17.8787 8.42432C17.7004 8.3335 17.467 8.3335 17.0003 8.3335H13.0003C12.5336 8.3335 12.3003 8.3335 12.122 8.42432C11.9652 8.50422 11.8377 8.6317 11.7578 8.7885C11.667 8.96676 11.667 9.20012 11.667 9.66683V10.3335C11.667 10.8002 11.667 11.0336 11.7578 11.2118C11.8377 11.3686 11.9652 11.4961 12.122 11.576C12.3003 11.6668 12.5336 11.6668 13.0003 11.6668Z" stroke="white" stroke-width="1.5"/>
</svg>
