<svg width="25" height="24" viewBox="0 0 25 24" fill="none" xmlns="http://www.w3.org/2000/svg">
<path d="M24.5128 12.2758C24.5128 11.46 24.4467 10.6399 24.3056 9.8374H12.9868V14.4584H19.4685C19.1995 15.9487 18.3353 17.2671 17.0698 18.1049V21.1032H20.9368C23.2076 19.0132 24.5128 15.9267 24.5128 12.2758Z" fill="#272D37"/>
<path d="M12.9873 24.0001C16.2237 24.0001 18.9531 22.9374 20.9417 21.1032L17.0747 18.1048C15.9988 18.8368 14.6099 19.2512 12.9917 19.2512C9.86105 19.2512 7.20663 17.1392 6.25421 14.2996H2.26376V17.3905C4.30088 21.4427 8.45006 24.0001 12.9873 24.0001V24.0001Z" fill="#272D37"/>
<path d="M6.24973 14.3C5.74707 12.8096 5.74707 11.1958 6.24973 9.70544V6.6145H2.2637C0.561695 10.0053 0.561695 14.0001 2.2637 17.3909L6.24973 14.3V14.3Z" fill="#272D37"/>
<path d="M12.9873 4.74942C14.6981 4.72296 16.3516 5.36672 17.5906 6.54842L21.0167 3.12237C18.8473 1.08526 15.968 -0.0347101 12.9873 0.000564525C8.4501 0.000564525 4.30092 2.55798 2.26381 6.61456L6.24984 9.70551C7.19785 6.86149 9.85668 4.74942 12.9873 4.74942V4.74942Z" fill="#272D37"/>
</svg>
