<svg width="21" height="24" viewBox="0 0 21 24" fill="none" xmlns="http://www.w3.org/2000/svg">
<path d="M20.4341 18.7033C20.0712 19.5418 19.6416 20.3136 19.1438 21.0232C18.4653 21.9906 17.9098 22.6602 17.4816 23.032C16.818 23.6424 16.1069 23.955 15.3454 23.9728C14.7988 23.9728 14.1395 23.8172 13.3721 23.5017C12.6022 23.1876 11.8947 23.032 11.2478 23.032C10.5693 23.032 9.84159 23.1876 9.06324 23.5017C8.28371 23.8172 7.65573 23.9816 7.1756 23.9979C6.4454 24.0291 5.71757 23.7076 4.99107 23.032C4.52739 22.6276 3.9474 21.9343 3.25261 20.9521C2.50715 19.9033 1.89429 18.687 1.41415 17.3004C0.899947 15.8026 0.642178 14.3523 0.642178 12.9482C0.642178 11.3398 0.989722 9.95259 1.68585 8.79011C2.23294 7.85636 2.96077 7.11979 3.8717 6.57906C4.78264 6.03834 5.7669 5.76279 6.82687 5.74516C7.40685 5.74516 8.16742 5.92456 9.11257 6.27715C10.0551 6.63091 10.6602 6.81031 10.9256 6.81031C11.1239 6.81031 11.7962 6.60054 12.9359 6.18233C14.0136 5.79449 14.9232 5.63391 15.6684 5.69716C17.6876 5.86012 19.2045 6.6561 20.2134 8.09013C18.4075 9.18432 17.5142 10.7169 17.532 12.6829C17.5483 14.2142 18.1038 15.4886 19.1957 16.5004C19.6905 16.97 20.243 17.333 20.8578 17.5907C20.7245 17.9774 20.5838 18.3477 20.4341 18.7033V18.7033ZM15.8032 0.480137C15.8032 1.68041 15.3647 2.8011 14.4906 3.8384C13.4358 5.07155 12.16 5.78412 10.7765 5.67168C10.7589 5.52769 10.7487 5.37614 10.7487 5.21688C10.7487 4.06462 11.2503 2.83147 12.1411 1.82321C12.5858 1.3127 13.1514 0.888228 13.8373 0.549615C14.5217 0.216055 15.1691 0.031589 15.778 0C15.7958 0.160458 15.8032 0.320926 15.8032 0.480121V0.480137Z" fill="#272D37"/>
</svg>
