<svg width="21" height="20" viewBox="0 0 21 20" fill="none" xmlns="http://www.w3.org/2000/svg">
<path d="M8 6.66675V16.6667M13 3.33342V13.3334M4.36682 3.6391L6.93303 5.77761C7.5511 6.29267 8.4489 6.29267 9.06697 5.7776L11.933 3.38923C12.5511 2.87416 13.4489 2.87416 14.067 3.38923L17.4003 6.16701C17.7803 6.48366 18 6.95274 18 7.44737V15.7209C18 16.4274 17.176 16.8134 16.6332 16.3611L14.067 14.2226C13.4489 13.7075 12.5511 13.7075 11.933 14.2226L9.06697 16.6109C8.4489 17.126 7.5511 17.126 6.93303 16.6109L3.59969 13.8332C3.2197 13.5165 3 13.0474 3 12.5528V4.27929C3 3.57275 3.82405 3.18679 4.36682 3.6391Z" stroke="white" stroke-width="1.67" stroke-linecap="round"/>
</svg>
