<svg width="159" height="79" viewBox="0 0 159 79" fill="none" xmlns="http://www.w3.org/2000/svg">
<g filter="url(#filter0_dd_101_639744)">
<path d="M71.2422 35.6943C71.2422 40.1126 74.8239 43.6943 79.2422 43.6943C83.6605 43.6943 87.2422 40.1126 87.2422 35.6943C87.2422 31.2761 83.6605 27.6943 79.2422 27.6943C74.8239 27.6943 71.2422 31.2761 71.2422 35.6943Z" fill="#574EFA"/>
<path d="M63.2422 35.6943C63.2422 44.5309 75.2422 59.6943 79.2422 59.6943C83.2422 59.6943 95.2422 44.5309 95.2422 35.6943C95.2422 26.8578 88.0787 19.6943 79.2422 19.6943C70.4056 19.6943 63.2422 26.8578 63.2422 35.6943Z" fill="#574EFA"/>
<path d="M71.2422 35.6943C71.2422 40.1126 74.8239 43.6943 79.2422 43.6943C83.6605 43.6943 87.2422 40.1126 87.2422 35.6943C87.2422 31.2761 83.6605 27.6943 79.2422 27.6943C74.8239 27.6943 71.2422 31.2761 71.2422 35.6943Z" stroke="#F9F8FB" stroke-width="2"/>
<path d="M63.2422 35.6943C63.2422 44.5309 75.2422 59.6943 79.2422 59.6943C83.2422 59.6943 95.2422 44.5309 95.2422 35.6943C95.2422 26.8578 88.0787 19.6943 79.2422 19.6943C70.4056 19.6943 63.2422 26.8578 63.2422 35.6943Z" stroke="#F9F8FB" stroke-width="2"/>
</g>
<defs>
<filter id="filter0_dd_101_639744" x="-4.69336" y="-0.305664" width="167.936" height="87.8909" filterUnits="userSpaceOnUse" color-interpolation-filters="sRGB">
<feFlood flood-opacity="0" result="BackgroundImageFix"/>
<feColorMatrix in="SourceAlpha" type="matrix" values="0 0 0 0 0 0 0 0 0 0 0 0 0 0 0 0 0 0 127 0" result="hardAlpha"/>
<feMorphology radius="1" operator="erode" in="SourceAlpha" result="effect1_dropShadow_101_639744"/>
<feOffset dy="4"/>
<feGaussianBlur stdDeviation="3"/>
<feColorMatrix type="matrix" values="0 0 0 0 0.0627451 0 0 0 0 0.0941176 0 0 0 0 0.156863 0 0 0 0.1 0"/>
<feBlend mode="normal" in2="BackgroundImageFix" result="effect1_dropShadow_101_639744"/>
<feColorMatrix in="SourceAlpha" type="matrix" values="0 0 0 0 0 0 0 0 0 0 0 0 0 0 0 0 0 0 127 0" result="hardAlpha"/>
<feMorphology radius="2" operator="erode" in="SourceAlpha" result="effect2_dropShadow_101_639744"/>
<feOffset dy="2"/>
<feGaussianBlur stdDeviation="2"/>
<feColorMatrix type="matrix" values="0 0 0 0 0.0627451 0 0 0 0 0.0941176 0 0 0 0 0.156863 0 0 0 0.1 0"/>
<feBlend mode="normal" in2="effect1_dropShadow_101_639744" result="effect2_dropShadow_101_639744"/>
<feBlend mode="normal" in="SourceGraphic" in2="effect2_dropShadow_101_639744" result="shape"/>
</filter>
</defs>
</svg>
