<svg width="159" height="79" viewBox="0 0 159 79" fill="none" xmlns="http://www.w3.org/2000/svg">
<g filter="url(#filter0_dd_101_639752)">
<path d="M71.4355 35.3765C71.4355 39.7947 75.0173 43.3765 79.4355 43.3765C83.8538 43.3765 87.4355 39.7947 87.4355 35.3765C87.4355 30.9582 83.8538 27.3765 79.4355 27.3765C75.0173 27.3765 71.4355 30.9582 71.4355 35.3765Z" fill="#574EFA"/>
<path d="M63.4355 35.3765C63.4355 44.213 75.4355 59.3765 79.4355 59.3765C83.4355 59.3765 95.4355 44.213 95.4355 35.3765C95.4355 26.5399 88.2721 19.3765 79.4355 19.3765C70.599 19.3765 63.4355 26.5399 63.4355 35.3765Z" fill="#574EFA"/>
<path d="M71.4355 35.3765C71.4355 39.7947 75.0173 43.3765 79.4355 43.3765C83.8538 43.3765 87.4355 39.7947 87.4355 35.3765C87.4355 30.9582 83.8538 27.3765 79.4355 27.3765C75.0173 27.3765 71.4355 30.9582 71.4355 35.3765Z" stroke="#F9F8FB" stroke-width="2"/>
<path d="M63.4355 35.3765C63.4355 44.213 75.4355 59.3765 79.4355 59.3765C83.4355 59.3765 95.4355 44.213 95.4355 35.3765C95.4355 26.5399 88.2721 19.3765 79.4355 19.3765C70.599 19.3765 63.4355 26.5399 63.4355 35.3765Z" stroke="#F9F8FB" stroke-width="2"/>
</g>
<defs>
<filter id="filter0_dd_101_639752" x="-4.5" y="-0.623535" width="167.936" height="87.8909" filterUnits="userSpaceOnUse" color-interpolation-filters="sRGB">
<feFlood flood-opacity="0" result="BackgroundImageFix"/>
<feColorMatrix in="SourceAlpha" type="matrix" values="0 0 0 0 0 0 0 0 0 0 0 0 0 0 0 0 0 0 127 0" result="hardAlpha"/>
<feMorphology radius="1" operator="erode" in="SourceAlpha" result="effect1_dropShadow_101_639752"/>
<feOffset dy="4"/>
<feGaussianBlur stdDeviation="3"/>
<feColorMatrix type="matrix" values="0 0 0 0 0.0627451 0 0 0 0 0.0941176 0 0 0 0 0.156863 0 0 0 0.1 0"/>
<feBlend mode="normal" in2="BackgroundImageFix" result="effect1_dropShadow_101_639752"/>
<feColorMatrix in="SourceAlpha" type="matrix" values="0 0 0 0 0 0 0 0 0 0 0 0 0 0 0 0 0 0 127 0" result="hardAlpha"/>
<feMorphology radius="2" operator="erode" in="SourceAlpha" result="effect2_dropShadow_101_639752"/>
<feOffset dy="2"/>
<feGaussianBlur stdDeviation="2"/>
<feColorMatrix type="matrix" values="0 0 0 0 0.0627451 0 0 0 0 0.0941176 0 0 0 0 0.156863 0 0 0 0.1 0"/>
<feBlend mode="normal" in2="effect1_dropShadow_101_639752" result="effect2_dropShadow_101_639752"/>
<feBlend mode="normal" in="SourceGraphic" in2="effect2_dropShadow_101_639752" result="shape"/>
</filter>
</defs>
</svg>
