<svg width="159" height="79" viewBox="0 0 159 79" fill="none" xmlns="http://www.w3.org/2000/svg">
<g filter="url(#filter0_dd_101_639748)">
<path d="M71.2324 35.9492C71.2324 40.3675 74.8141 43.9492 79.2324 43.9492C83.6507 43.9492 87.2324 40.3675 87.2324 35.9492C87.2324 31.5309 83.6507 27.9492 79.2324 27.9492C74.8141 27.9492 71.2324 31.5309 71.2324 35.9492Z" fill="#574EFA"/>
<path d="M63.2324 35.9492C63.2324 44.7858 75.2324 59.9492 79.2324 59.9492C83.2324 59.9492 95.2324 44.7858 95.2324 35.9492C95.2324 27.1127 88.069 19.9492 79.2324 19.9492C70.3959 19.9492 63.2324 27.1127 63.2324 35.9492Z" fill="#574EFA"/>
<path d="M71.2324 35.9492C71.2324 40.3675 74.8141 43.9492 79.2324 43.9492C83.6507 43.9492 87.2324 40.3675 87.2324 35.9492C87.2324 31.5309 83.6507 27.9492 79.2324 27.9492C74.8141 27.9492 71.2324 31.5309 71.2324 35.9492Z" stroke="#F9F8FB" stroke-width="2"/>
<path d="M63.2324 35.9492C63.2324 44.7858 75.2324 59.9492 79.2324 59.9492C83.2324 59.9492 95.2324 44.7858 95.2324 35.9492C95.2324 27.1127 88.069 19.9492 79.2324 19.9492C70.3959 19.9492 63.2324 27.1127 63.2324 35.9492Z" stroke="#F9F8FB" stroke-width="2"/>
</g>
<defs>
<filter id="filter0_dd_101_639748" x="-4.70312" y="-0.0507812" width="167.936" height="87.8911" filterUnits="userSpaceOnUse" color-interpolation-filters="sRGB">
<feFlood flood-opacity="0" result="BackgroundImageFix"/>
<feColorMatrix in="SourceAlpha" type="matrix" values="0 0 0 0 0 0 0 0 0 0 0 0 0 0 0 0 0 0 127 0" result="hardAlpha"/>
<feMorphology radius="1" operator="erode" in="SourceAlpha" result="effect1_dropShadow_101_639748"/>
<feOffset dy="4"/>
<feGaussianBlur stdDeviation="3"/>
<feColorMatrix type="matrix" values="0 0 0 0 0.0627451 0 0 0 0 0.0941176 0 0 0 0 0.156863 0 0 0 0.1 0"/>
<feBlend mode="normal" in2="BackgroundImageFix" result="effect1_dropShadow_101_639748"/>
<feColorMatrix in="SourceAlpha" type="matrix" values="0 0 0 0 0 0 0 0 0 0 0 0 0 0 0 0 0 0 127 0" result="hardAlpha"/>
<feMorphology radius="2" operator="erode" in="SourceAlpha" result="effect2_dropShadow_101_639748"/>
<feOffset dy="2"/>
<feGaussianBlur stdDeviation="2"/>
<feColorMatrix type="matrix" values="0 0 0 0 0.0627451 0 0 0 0 0.0941176 0 0 0 0 0.156863 0 0 0 0.1 0"/>
<feBlend mode="normal" in2="effect1_dropShadow_101_639748" result="effect2_dropShadow_101_639748"/>
<feBlend mode="normal" in="SourceGraphic" in2="effect2_dropShadow_101_639748" result="shape"/>
</filter>
</defs>
</svg>
