<svg width="159" height="79" viewBox="0 0 159 79" fill="none" xmlns="http://www.w3.org/2000/svg">
<g filter="url(#filter0_dd_101_639756)">
<path d="M71.8818 35.2783C71.8818 39.6966 75.4636 43.2783 79.8818 43.2783C84.3001 43.2783 87.8818 39.6966 87.8818 35.2783C87.8818 30.86 84.3001 27.2783 79.8818 27.2783C75.4636 27.2783 71.8818 30.86 71.8818 35.2783Z" fill="#574EFA"/>
<path d="M63.8818 35.2783C63.8818 44.1149 75.8818 59.2783 79.8818 59.2783C83.8818 59.2783 95.8818 44.1149 95.8818 35.2783C95.8818 26.4418 88.7184 19.2783 79.8818 19.2783C71.0453 19.2783 63.8818 26.4418 63.8818 35.2783Z" fill="#574EFA"/>
<path d="M71.8818 35.2783C71.8818 39.6966 75.4636 43.2783 79.8818 43.2783C84.3001 43.2783 87.8818 39.6966 87.8818 35.2783C87.8818 30.86 84.3001 27.2783 79.8818 27.2783C75.4636 27.2783 71.8818 30.86 71.8818 35.2783Z" stroke="#F9F8FB" stroke-width="2"/>
<path d="M63.8818 35.2783C63.8818 44.1149 75.8818 59.2783 79.8818 59.2783C83.8818 59.2783 95.8818 44.1149 95.8818 35.2783C95.8818 26.4418 88.7184 19.2783 79.8818 19.2783C71.0453 19.2783 63.8818 26.4418 63.8818 35.2783Z" stroke="#F9F8FB" stroke-width="2"/>
</g>
<defs>
<filter id="filter0_dd_101_639756" x="-4.05371" y="-0.72168" width="167.936" height="87.8909" filterUnits="userSpaceOnUse" color-interpolation-filters="sRGB">
<feFlood flood-opacity="0" result="BackgroundImageFix"/>
<feColorMatrix in="SourceAlpha" type="matrix" values="0 0 0 0 0 0 0 0 0 0 0 0 0 0 0 0 0 0 127 0" result="hardAlpha"/>
<feMorphology radius="1" operator="erode" in="SourceAlpha" result="effect1_dropShadow_101_639756"/>
<feOffset dy="4"/>
<feGaussianBlur stdDeviation="3"/>
<feColorMatrix type="matrix" values="0 0 0 0 0.0627451 0 0 0 0 0.0941176 0 0 0 0 0.156863 0 0 0 0.1 0"/>
<feBlend mode="normal" in2="BackgroundImageFix" result="effect1_dropShadow_101_639756"/>
<feColorMatrix in="SourceAlpha" type="matrix" values="0 0 0 0 0 0 0 0 0 0 0 0 0 0 0 0 0 0 127 0" result="hardAlpha"/>
<feMorphology radius="2" operator="erode" in="SourceAlpha" result="effect2_dropShadow_101_639756"/>
<feOffset dy="2"/>
<feGaussianBlur stdDeviation="2"/>
<feColorMatrix type="matrix" values="0 0 0 0 0.0627451 0 0 0 0 0.0941176 0 0 0 0 0.156863 0 0 0 0.1 0"/>
<feBlend mode="normal" in2="effect1_dropShadow_101_639756" result="effect2_dropShadow_101_639756"/>
<feBlend mode="normal" in="SourceGraphic" in2="effect2_dropShadow_101_639756" result="shape"/>
</filter>
</defs>
</svg>
