<svg width="159" height="79" viewBox="0 0 159 79" fill="none" xmlns="http://www.w3.org/2000/svg">
<g filter="url(#filter0_dd_101_639750)">
<path d="M71.2002 35.6289C71.2002 40.0472 74.7819 43.6289 79.2002 43.6289C83.6185 43.6289 87.2002 40.0472 87.2002 35.6289C87.2002 31.2106 83.6185 27.6289 79.2002 27.6289C74.7819 27.6289 71.2002 31.2106 71.2002 35.6289Z" fill="#574EFA"/>
<path d="M63.2002 35.6289C63.2002 44.4655 75.2002 59.6289 79.2002 59.6289C83.2002 59.6289 95.2002 44.4655 95.2002 35.6289C95.2002 26.7923 88.0368 19.6289 79.2002 19.6289C70.3636 19.6289 63.2002 26.7923 63.2002 35.6289Z" fill="#574EFA"/>
<path d="M71.2002 35.6289C71.2002 40.0472 74.7819 43.6289 79.2002 43.6289C83.6185 43.6289 87.2002 40.0472 87.2002 35.6289C87.2002 31.2106 83.6185 27.6289 79.2002 27.6289C74.7819 27.6289 71.2002 31.2106 71.2002 35.6289Z" stroke="#F9F8FB" stroke-width="2"/>
<path d="M63.2002 35.6289C63.2002 44.4655 75.2002 59.6289 79.2002 59.6289C83.2002 59.6289 95.2002 44.4655 95.2002 35.6289C95.2002 26.7923 88.0368 19.6289 79.2002 19.6289C70.3636 19.6289 63.2002 26.7923 63.2002 35.6289Z" stroke="#F9F8FB" stroke-width="2"/>
</g>
<defs>
<filter id="filter0_dd_101_639750" x="-4.73535" y="-0.371094" width="167.936" height="87.8909" filterUnits="userSpaceOnUse" color-interpolation-filters="sRGB">
<feFlood flood-opacity="0" result="BackgroundImageFix"/>
<feColorMatrix in="SourceAlpha" type="matrix" values="0 0 0 0 0 0 0 0 0 0 0 0 0 0 0 0 0 0 127 0" result="hardAlpha"/>
<feMorphology radius="1" operator="erode" in="SourceAlpha" result="effect1_dropShadow_101_639750"/>
<feOffset dy="4"/>
<feGaussianBlur stdDeviation="3"/>
<feColorMatrix type="matrix" values="0 0 0 0 0.0627451 0 0 0 0 0.0941176 0 0 0 0 0.156863 0 0 0 0.1 0"/>
<feBlend mode="normal" in2="BackgroundImageFix" result="effect1_dropShadow_101_639750"/>
<feColorMatrix in="SourceAlpha" type="matrix" values="0 0 0 0 0 0 0 0 0 0 0 0 0 0 0 0 0 0 127 0" result="hardAlpha"/>
<feMorphology radius="2" operator="erode" in="SourceAlpha" result="effect2_dropShadow_101_639750"/>
<feOffset dy="2"/>
<feGaussianBlur stdDeviation="2"/>
<feColorMatrix type="matrix" values="0 0 0 0 0.0627451 0 0 0 0 0.0941176 0 0 0 0 0.156863 0 0 0 0.1 0"/>
<feBlend mode="normal" in2="effect1_dropShadow_101_639750" result="effect2_dropShadow_101_639750"/>
<feBlend mode="normal" in="SourceGraphic" in2="effect2_dropShadow_101_639750" result="shape"/>
</filter>
</defs>
</svg>
