<svg width="24" height="24" viewBox="0 0 24 24" fill="none" xmlns="http://www.w3.org/2000/svg">
<g clip-path="url(#clip0_101_639504)">
<path d="M23.7633 12.2758C23.7633 11.46 23.6972 10.6399 23.5561 9.8374H12.2373V14.4584H18.719C18.4501 15.9487 17.5858 17.2671 16.3204 18.1049V21.1032H20.1873C22.4582 19.0132 23.7633 15.9267 23.7633 12.2758Z" fill="#272D37"/>
<path d="M12.2372 24.0001C15.4736 24.0001 18.203 22.9374 20.1916 21.1032L16.3246 18.1048C15.2487 18.8368 13.8598 19.2512 12.2416 19.2512C9.11095 19.2512 6.45654 17.1392 5.50412 14.2996H1.51367V17.3905C3.55078 21.4427 7.69997 24.0001 12.2372 24.0001V24.0001Z" fill="#272D37"/>
<path d="M5.49984 14.3C4.99718 12.8096 4.99718 11.1958 5.49984 9.70544V6.6145H1.51381C-0.188196 10.0053 -0.188196 14.0001 1.51381 17.3909L5.49984 14.3V14.3Z" fill="#272D37"/>
<path d="M12.2372 4.74942C13.948 4.72296 15.6015 5.36672 16.8405 6.54842L20.2666 3.12237C18.0972 1.08526 15.2179 -0.0347101 12.2372 0.000564525C7.69997 0.000564525 3.55078 2.55798 1.51367 6.61456L5.49971 9.70551C6.44772 6.86149 9.10654 4.74942 12.2372 4.74942V4.74942Z" fill="#272D37"/>
</g>
<defs>
<clipPath id="clip0_101_639504">
<rect width="24" height="24" fill="white"/>
</clipPath>
</defs>
</svg>
