<svg width="24" height="24" viewBox="0 0 24 24" fill="none" xmlns="http://www.w3.org/2000/svg">
<path d="M21.684 18.7033C21.3211 19.5418 20.8915 20.3136 20.3937 21.0232C19.7152 21.9906 19.1597 22.6602 18.7315 23.032C18.0679 23.6424 17.3568 23.955 16.5953 23.9728C16.0487 23.9728 15.3894 23.8172 14.622 23.5017C13.8521 23.1876 13.1446 23.032 12.4977 23.032C11.8192 23.032 11.0915 23.1876 10.3132 23.5017C9.53362 23.8172 8.90564 23.9816 8.42551 23.9979C7.69531 24.0291 6.96748 23.7076 6.24099 23.032C5.7773 22.6276 5.19732 21.9343 4.50252 20.9521C3.75707 19.9033 3.1442 18.687 2.66406 17.3004C2.14986 15.8026 1.89209 14.3523 1.89209 12.9482C1.89209 11.3398 2.23963 9.95259 2.93576 8.79011C3.48285 7.85636 4.21068 7.11979 5.12162 6.57906C6.03255 6.03834 7.01681 5.76279 8.07678 5.74516C8.65676 5.74516 9.41733 5.92456 10.3625 6.27715C11.305 6.63091 11.9101 6.81031 12.1755 6.81031C12.3738 6.81031 13.0461 6.60054 14.1858 6.18233C15.2635 5.79449 16.1731 5.63391 16.9183 5.69716C18.9375 5.86012 20.4545 6.6561 21.4633 8.09013C19.6574 9.18432 18.7641 10.7169 18.7819 12.6829C18.7982 14.2142 19.3537 15.4886 20.4456 16.5004C20.9404 16.97 21.4929 17.333 22.1077 17.5907C21.9744 17.9774 21.8337 18.3477 21.684 18.7033V18.7033ZM17.0531 0.480137C17.0531 1.68041 16.6146 2.8011 15.7405 3.8384C14.6858 5.07155 13.4099 5.78412 12.0264 5.67168C12.0088 5.52769 11.9986 5.37614 11.9986 5.21688C11.9986 4.06462 12.5002 2.83147 13.391 1.82321C13.8357 1.3127 14.4013 0.888228 15.0872 0.549615C15.7716 0.216055 16.419 0.031589 17.0279 0C17.0457 0.160458 17.0531 0.320926 17.0531 0.480121V0.480137Z" fill="#272D37"/>
</svg>
