<svg width="24" height="24" viewBox="0 0 24 24" fill="none" xmlns="http://www.w3.org/2000/svg">
<path d="M21.6845 18.7033C21.3216 19.5418 20.892 20.3136 20.3942 21.0232C19.7157 21.9906 19.1602 22.6602 18.732 23.032C18.0684 23.6424 17.3573 23.955 16.5958 23.9728C16.0492 23.9728 15.3899 23.8172 14.6225 23.5017C13.8526 23.1876 13.1451 23.032 12.4982 23.032C11.8197 23.032 11.092 23.1876 10.3136 23.5017C9.53411 23.8172 8.90613 23.9816 8.426 23.9979C7.6958 24.0291 6.96797 23.7076 6.24147 23.032C5.77779 22.6276 5.19781 21.9343 4.50301 20.9521C3.75756 19.9033 3.14469 18.687 2.66455 17.3004C2.15035 15.8026 1.89258 14.3523 1.89258 12.9482C1.89258 11.3398 2.24012 9.95259 2.93625 8.79011C3.48334 7.85636 4.21117 7.11979 5.1221 6.57906C6.03304 6.03834 7.0173 5.76279 8.07727 5.74516C8.65725 5.74516 9.41782 5.92456 10.363 6.27715C11.3055 6.63091 11.9106 6.81031 12.176 6.81031C12.3743 6.81031 13.0466 6.60054 14.1863 6.18233C15.264 5.79449 16.1736 5.63391 16.9188 5.69716C18.938 5.86012 20.4549 6.6561 21.4638 8.09013C19.6579 9.18432 18.7646 10.7169 18.7824 12.6829C18.7987 14.2142 19.3542 15.4886 20.4461 16.5004C20.9409 16.97 21.4934 17.333 22.1082 17.5907C21.9749 17.9774 21.8342 18.3477 21.6845 18.7033V18.7033ZM17.0536 0.480137C17.0536 1.68041 16.6151 2.8011 15.741 3.8384C14.6862 5.07155 13.4104 5.78412 12.0269 5.67168C12.0093 5.52769 11.9991 5.37614 11.9991 5.21688C11.9991 4.06462 12.5007 2.83147 13.3915 1.82321C13.8362 1.3127 14.4018 0.888228 15.0877 0.549615C15.7721 0.216055 16.4195 0.031589 17.0284 0C17.0462 0.160458 17.0536 0.320926 17.0536 0.480121V0.480137Z" fill="#272D37"/>
</svg>
