<svg width="20" height="20" viewBox="0 0 20 20" fill="none" xmlns="http://www.w3.org/2000/svg">
<path d="M12.4359 5.90689L10.7172 2.91506C10.3981 2.35955 9.59762 2.35689 9.27482 2.91027L7.4612 6.01933C7.22098 6.43113 6.81592 6.72035 6.34843 6.81384L3.87033 7.30946C3.22851 7.43783 2.97842 8.22206 3.42744 8.69829L5.2198 10.5993C5.60307 11.0058 5.75717 11.5773 5.63022 12.1213L4.81894 15.5983C4.65217 16.313 5.42392 16.8787 6.05531 16.5045L9.15049 14.6703C9.67439 14.3599 10.3259 14.3599 10.8498 14.6703L13.945 16.5045C14.5764 16.8787 15.3481 16.313 15.1814 15.5983L14.363 12.0909C14.24 11.5637 14.3807 11.0095 14.7404 10.6049L16.5349 8.58603C16.9625 8.105 16.7066 7.34146 16.0755 7.21524L13.5543 6.71098C13.083 6.61673 12.6753 6.32362 12.4359 5.90689Z" stroke="#EEA23E" stroke-width="1.67" stroke-miterlimit="10"/>
</svg>
