<svg width="21" height="20" viewBox="0 0 21 20" fill="none" xmlns="http://www.w3.org/2000/svg">
<path d="M13.1029 5.90689L11.3842 2.91506C11.0651 2.35955 10.2646 2.35689 9.94181 2.91027L8.12819 6.01933C7.88798 6.43113 7.48291 6.72035 7.01542 6.81384L4.53733 7.30946C3.89551 7.43783 3.64542 8.22206 4.09443 8.69829L5.88679 10.5993C6.27006 11.0058 6.42416 11.5773 6.29721 12.1213L5.48593 15.5983C5.31916 16.313 6.09091 16.8787 6.7223 16.5045L9.81748 14.6703C10.3414 14.3599 10.9929 14.3599 11.5168 14.6703L14.612 16.5045C15.2434 16.8787 16.0151 16.313 15.8484 15.5983L15.03 12.0909C14.907 11.5637 15.0477 11.0095 15.4074 10.6049L17.2019 8.58603C17.6295 8.105 17.3736 7.34146 16.7425 7.21524L14.2212 6.71098C13.75 6.61673 13.3423 6.32362 13.1029 5.90689Z" stroke="#EEA23E" stroke-width="1.67" stroke-miterlimit="10"/>
</svg>
