<svg width="21" height="20" viewBox="0 0 21 20" fill="none" xmlns="http://www.w3.org/2000/svg">
<path d="M13.1861 5.90689L11.4674 2.91506C11.1483 2.35955 10.3478 2.35689 10.025 2.91027L8.21139 6.01933C7.97117 6.43113 7.5661 6.72035 7.09862 6.81384L4.62052 7.30946C3.9787 7.43783 3.72861 8.22206 4.17762 8.69829L5.96998 10.5993C6.35325 11.0058 6.50735 11.5773 6.3804 12.1213L5.56912 15.5983C5.40235 16.313 6.1741 16.8787 6.80549 16.5045L9.90067 14.6703C10.4246 14.3599 11.0761 14.3599 11.6 14.6703L14.6952 16.5045C15.3266 16.8787 16.0983 16.313 15.9316 15.5983L15.1132 12.0909C14.9902 11.5637 15.1309 11.0095 15.4906 10.6049L17.2851 8.58603C17.7127 8.105 17.4568 7.34146 16.8257 7.21524L14.3044 6.71098C13.8332 6.61673 13.4255 6.32362 13.1861 5.90689Z" stroke="black" stroke-width="1.67" stroke-miterlimit="10"/>
</svg>
