<svg width="21" height="20" viewBox="0 0 21 20" fill="none" xmlns="http://www.w3.org/2000/svg">
<path d="M12.9359 5.90665L11.2172 2.91481C10.8981 2.35931 10.0976 2.35665 9.77482 2.91002L7.9612 6.01908C7.72098 6.43088 7.31592 6.7201 6.84843 6.8136L4.37033 7.30922C3.72851 7.43758 3.47842 8.22182 3.92744 8.69805L5.7198 10.599C6.10307 11.0055 6.25717 11.577 6.13022 12.1211L5.31894 15.598C5.15217 16.3127 5.92392 16.8784 6.55531 16.5043L9.65049 14.6701C10.1744 14.3596 10.8259 14.3596 11.3498 14.6701L14.445 16.5043C15.0764 16.8784 15.8481 16.3127 15.6814 15.598L14.863 12.0907C14.74 11.5634 14.8807 11.0093 15.2404 10.6047L17.0349 8.58578C17.4625 8.10475 17.2066 7.34122 16.5755 7.215L14.0543 6.71074C13.583 6.61648 13.1753 6.32338 12.9359 5.90665Z" stroke="black" stroke-width="1.67" stroke-miterlimit="10"/>
</svg>
