<svg width="21" height="20" viewBox="0 0 21 20" fill="none" xmlns="http://www.w3.org/2000/svg">
<path d="M12.7694 5.90689L11.0507 2.91506C10.7316 2.35955 9.93112 2.35689 9.60832 2.91027L7.7947 6.01933C7.55448 6.43113 7.14941 6.72035 6.68193 6.81384L4.20383 7.30946C3.56201 7.43783 3.31192 8.22206 3.76094 8.69829L5.55329 10.5993C5.93656 11.0058 6.09066 11.5773 5.96371 12.1213L5.15243 15.5983C4.98566 16.313 5.75741 16.8787 6.3888 16.5045L9.48398 14.6703C10.0079 14.3599 10.6594 14.3599 11.1833 14.6703L14.2785 16.5045C14.9099 16.8787 15.6816 16.313 15.5149 15.5983L14.6965 12.0909C14.5735 11.5637 14.7142 11.0095 15.0739 10.6049L16.8684 8.58603C17.296 8.105 17.0401 7.34146 16.409 7.21524L13.8877 6.71098C13.4165 6.61673 13.0088 6.32362 12.7694 5.90689Z" stroke="black" stroke-width="1.67" stroke-miterlimit="10"/>
</svg>
