<svg width="21" height="20" viewBox="0 0 21 20" fill="none" xmlns="http://www.w3.org/2000/svg">
<path d="M12.7694 5.90665L11.0507 2.91481C10.7316 2.35931 9.93112 2.35665 9.60832 2.91002L7.7947 6.01908C7.55448 6.43088 7.14941 6.7201 6.68193 6.8136L4.20383 7.30922C3.56201 7.43758 3.31192 8.22182 3.76094 8.69805L5.55329 10.599C5.93656 11.0055 6.09066 11.577 5.96371 12.1211L5.15243 15.598C4.98566 16.3127 5.75741 16.8784 6.3888 16.5043L9.48398 14.6701C10.0079 14.3596 10.6594 14.3596 11.1833 14.6701L14.2785 16.5043C14.9099 16.8784 15.6816 16.3127 15.5149 15.598L14.6965 12.0907C14.5735 11.5634 14.7142 11.0093 15.0739 10.6047L16.8684 8.58578C17.296 8.10475 17.0401 7.34122 16.409 7.215L13.8877 6.71074C13.4165 6.61648 13.0088 6.32338 12.7694 5.90665Z" stroke="#EEA23E" stroke-width="1.67" stroke-miterlimit="10"/>
</svg>
