<svg width="20" height="20" viewBox="0 0 20 20" fill="none" xmlns="http://www.w3.org/2000/svg">
<path d="M12.4359 5.90665L10.7172 2.91481C10.3981 2.35931 9.59762 2.35665 9.27482 2.91002L7.4612 6.01908C7.22098 6.43088 6.81592 6.7201 6.34843 6.8136L3.87033 7.30922C3.22851 7.43758 2.97842 8.22182 3.42744 8.69805L5.2198 10.599C5.60307 11.0055 5.75717 11.577 5.63022 12.1211L4.81894 15.598C4.65217 16.3127 5.42392 16.8784 6.05531 16.5043L9.15049 14.6701C9.67439 14.3596 10.3259 14.3596 10.8498 14.6701L13.945 16.5043C14.5764 16.8784 15.3481 16.3127 15.1814 15.598L14.363 12.0907C14.24 11.5634 14.3807 11.0093 14.7404 10.6047L16.5349 8.58578C16.9625 8.10475 16.7066 7.34122 16.0755 7.215L13.5543 6.71074C13.083 6.61648 12.6753 6.32338 12.4359 5.90665Z" stroke="black" stroke-width="1.67" stroke-miterlimit="10"/>
</svg>
