<svg width="21" height="20" viewBox="0 0 21 20" fill="none" xmlns="http://www.w3.org/2000/svg">
<path d="M13.1861 5.90689L11.4674 2.91506C11.1483 2.35955 10.3478 2.35689 10.025 2.91027L8.21137 6.01933C7.97115 6.43113 7.56608 6.72035 7.0986 6.81384L4.6205 7.30946C3.97868 7.43783 3.72859 8.22206 4.1776 8.69829L5.96996 10.5993C6.35323 11.0058 6.50733 11.5773 6.38038 12.1213L5.5691 15.5983C5.40233 16.313 6.17408 16.8787 6.80547 16.5045L9.90065 14.6703C10.4246 14.3599 11.0761 14.3599 11.6 14.6703L14.6952 16.5045C15.3266 16.8787 16.0983 16.313 15.9315 15.5983L15.1132 12.0909C14.9901 11.5637 15.1309 11.0095 15.4905 10.6049L17.2851 8.58603C17.7127 8.105 17.4568 7.34146 16.8257 7.21524L14.3044 6.71098C13.8331 6.61673 13.4255 6.32362 13.1861 5.90689Z" stroke="#EEA23E" stroke-width="1.67" stroke-miterlimit="10"/>
</svg>
