<svg width="21" height="20" viewBox="0 0 21 20" fill="none" xmlns="http://www.w3.org/2000/svg">
<path d="M13.1029 5.90665L11.3842 2.91481C11.0651 2.35931 10.2646 2.35665 9.94181 2.91002L8.12819 6.01908C7.88798 6.43088 7.48291 6.7201 7.01542 6.8136L4.53733 7.30922C3.89551 7.43758 3.64542 8.22182 4.09443 8.69805L5.88679 10.599C6.27006 11.0055 6.42416 11.577 6.29721 12.1211L5.48593 15.598C5.31916 16.3127 6.09091 16.8784 6.7223 16.5043L9.81748 14.6701C10.3414 14.3596 10.9929 14.3596 11.5168 14.6701L14.612 16.5043C15.2434 16.8784 16.0151 16.3127 15.8484 15.598L15.03 12.0907C14.907 11.5634 15.0477 11.0093 15.4074 10.6047L17.2019 8.58578C17.6295 8.10475 17.3736 7.34122 16.7425 7.215L14.2212 6.71074C13.75 6.61648 13.3423 6.32338 13.1029 5.90665Z" stroke="black" stroke-width="1.67" stroke-miterlimit="10"/>
</svg>
