<svg width="21" height="20" viewBox="0 0 21 20" fill="none" xmlns="http://www.w3.org/2000/svg">
<path d="M12.9359 5.90689L11.2172 2.91506C10.8981 2.35955 10.0976 2.35689 9.77482 2.91027L7.9612 6.01933C7.72098 6.43113 7.31592 6.72035 6.84843 6.81384L4.37033 7.30946C3.72851 7.43783 3.47842 8.22206 3.92744 8.69829L5.7198 10.5993C6.10307 11.0058 6.25717 11.5773 6.13022 12.1213L5.31894 15.5983C5.15217 16.313 5.92392 16.8787 6.55531 16.5045L9.65049 14.6703C10.1744 14.3599 10.8259 14.3599 11.3498 14.6703L14.445 16.5045C15.0764 16.8787 15.8481 16.313 15.6814 15.5983L14.863 12.0909C14.74 11.5637 14.8807 11.0095 15.2404 10.6049L17.0349 8.58603C17.4625 8.105 17.2066 7.34146 16.5755 7.21524L14.0543 6.71098C13.583 6.61673 13.1753 6.32362 12.9359 5.90689Z" stroke="#EEA23E" stroke-width="1.67" stroke-miterlimit="10"/>
</svg>
