<svg width="52" height="18" viewBox="0 0 52 18" fill="none" xmlns="http://www.w3.org/2000/svg">
<path d="M7.82741 4.81545V7.03874H0.178711V4.81545H7.82741ZM2.06707 1.89341H5.20277V13.3434C5.20277 13.7298 5.26629 14.0262 5.39334 14.2327C5.52616 14.4338 5.6994 14.5715 5.91307 14.6456C6.12674 14.7197 6.3635 14.7567 6.62337 14.7567C6.81971 14.7567 6.99873 14.7435 7.16043 14.717C7.32789 14.6906 7.45494 14.6667 7.54156 14.6456L8.06995 16.8927C7.90248 16.9456 7.66283 17.0039 7.35099 17.0674C7.04493 17.1309 6.66957 17.168 6.22491 17.1785C5.43954 17.1997 4.73213 17.0912 4.10268 16.853C3.47323 16.6095 2.97371 16.2336 2.60412 15.7255C2.24031 15.2173 2.06129 14.5821 2.06707 13.8198V1.89341Z" fill="#574EFA"/>
<path d="M15.9751 17.25C14.6758 17.25 13.5497 16.988 12.5969 16.4639C11.644 15.9398 10.9048 15.2067 10.3793 14.2644C9.85961 13.3222 9.59974 12.2211 9.59974 10.9613C9.59974 9.7014 9.85961 8.59769 10.3793 7.65014C10.9048 6.7026 11.644 5.96679 12.5969 5.44273C13.5497 4.91867 14.6758 4.65664 15.9751 4.65664C17.2744 4.65664 18.4005 4.91867 19.3533 5.44273C20.3062 5.96679 21.0425 6.7026 21.5622 7.65014C22.0877 8.59769 22.3505 9.7014 22.3505 10.9613C22.3505 12.2211 22.0877 13.3222 21.5622 14.2644C21.0425 15.2067 20.3062 15.9398 19.3533 16.4639C18.4005 16.988 17.2744 17.25 15.9751 17.25ZM15.9924 14.9473C16.6969 14.9473 17.286 14.77 17.7595 14.4153C18.233 14.0553 18.5853 13.5736 18.8163 12.9702C19.0531 12.3667 19.1714 11.6944 19.1714 10.9533C19.1714 10.2069 19.0531 9.532 18.8163 8.92854C18.5853 8.31978 18.233 7.83542 17.7595 7.47546C17.286 7.1155 16.6969 6.93552 15.9924 6.93552C15.2706 6.93552 14.67 7.1155 14.1907 7.47546C13.7172 7.83542 13.362 8.31978 13.1252 8.92854C12.8943 9.532 12.7788 10.2069 12.7788 10.9533C12.7788 11.6944 12.8943 12.3667 13.1252 12.9702C13.362 13.5736 13.7172 14.0553 14.1907 14.4153C14.67 14.77 15.2706 14.9473 15.9924 14.9473Z" fill="#574EFA"/>
<path d="M31.5203 4.81545V7.03874H23.8716V4.81545H31.5203ZM25.7599 1.89341H28.8957V13.3434C28.8957 13.7298 28.9592 14.0262 29.0862 14.2327C29.219 14.4338 29.3923 14.5715 29.606 14.6456C29.8196 14.7197 30.0564 14.7567 30.3163 14.7567C30.5126 14.7567 30.6916 14.7435 30.8533 14.717C31.0208 14.6906 31.1478 14.6667 31.2344 14.6456L31.7628 16.8927C31.5954 16.9456 31.3557 17.0039 31.0439 17.0674C30.7378 17.1309 30.3624 17.168 29.9178 17.1785C29.1324 17.1997 28.425 17.0912 27.7956 16.853C27.1661 16.6095 26.6666 16.2336 26.297 15.7255C25.9332 15.2173 25.7542 14.5821 25.7599 13.8198V1.89341Z" fill="#574EFA"/>
<path d="M39.7546 17.25C38.4206 17.25 37.2686 16.9959 36.2984 16.4877C35.334 15.9743 34.5919 15.249 34.0722 14.3121C33.5525 13.3698 33.2926 12.2608 33.2926 10.9851C33.2926 9.73051 33.5525 8.62945 34.0722 7.68191C34.5977 6.72907 35.3311 5.98797 36.2724 5.45861C37.2137 4.92397 38.3196 4.65664 39.59 4.65664C40.41 4.65664 41.1839 4.77839 41.9115 5.0219C42.6449 5.26011 43.2917 5.63066 43.8518 6.13354C44.4177 6.63643 44.8624 7.27695 45.1858 8.0551C45.5092 8.82796 45.6709 9.74904 45.6709 10.8183V11.6997H34.7652V9.76227H42.6651C42.6593 9.21174 42.5294 8.72209 42.2753 8.29331C42.0212 7.85924 41.6661 7.51781 41.2098 7.26901C40.7594 7.02021 40.2339 6.89581 39.6333 6.89581C38.9923 6.89581 38.4293 7.03874 37.9442 7.32459C37.4591 7.60515 37.0809 7.9757 36.8095 8.43624C36.5438 8.89148 36.4081 9.39172 36.4023 9.93696V11.6282C36.4023 12.3376 36.5438 12.9463 36.8268 13.4545C37.1098 13.9574 37.5053 14.3438 38.0135 14.6138C38.5217 14.8785 39.1165 15.0108 39.7979 15.0108C40.2541 15.0108 40.667 14.9526 41.0366 14.8361C41.4062 14.7144 41.7267 14.5371 41.9981 14.3041C42.2695 14.0712 42.4745 13.7827 42.6131 13.4386L45.5409 13.7404C45.3561 14.4497 45.0039 15.0691 44.4841 15.5984C43.9702 16.1225 43.3119 16.5301 42.5092 16.8212C41.7065 17.1071 40.7883 17.25 39.7546 17.25Z" fill="#574EFA"/>
<path d="M51.3239 0.75V17.0118H48.1881V0.75H51.3239Z" fill="#574EFA"/>
</svg>
