<svg width="53" height="18" viewBox="0 0 53 18" fill="none" xmlns="http://www.w3.org/2000/svg">
<path d="M8.57717 4.81545V7.03874H0.928467V4.81545H8.57717ZM2.81682 1.89341H5.95253V13.3434C5.95253 13.7298 6.01605 14.0262 6.1431 14.2327C6.27592 14.4338 6.44916 14.5715 6.66283 14.6456C6.87649 14.7197 7.11326 14.7567 7.37313 14.7567C7.56947 14.7567 7.74849 14.7435 7.91018 14.717C8.07765 14.6906 8.2047 14.6667 8.29132 14.6456L8.81971 16.8927C8.65224 16.9456 8.41259 17.0039 8.10075 17.0674C7.79469 17.1309 7.41932 17.168 6.97467 17.1785C6.1893 17.1997 5.48188 17.0912 4.85243 16.853C4.22298 16.6095 3.72346 16.2336 3.35388 15.7255C2.99007 15.2173 2.81105 14.5821 2.81682 13.8198V1.89341Z" fill="#574EFA"/>
<path d="M16.7249 17.25C15.4255 17.25 14.2994 16.988 13.3466 16.4639C12.3938 15.9398 11.6546 15.2067 11.1291 14.2644C10.6094 13.3222 10.3495 12.2211 10.3495 10.9613C10.3495 9.7014 10.6094 8.59769 11.1291 7.65014C11.6546 6.7026 12.3938 5.96679 13.3466 5.44273C14.2994 4.91867 15.4255 4.65664 16.7249 4.65664C18.0242 4.65664 19.1503 4.91867 20.1031 5.44273C21.0559 5.96679 21.7922 6.7026 22.312 7.65014C22.8375 8.59769 23.1002 9.7014 23.1002 10.9613C23.1002 12.2211 22.8375 13.3222 22.312 14.2644C21.7922 15.2067 21.0559 15.9398 20.1031 16.4639C19.1503 16.988 18.0242 17.25 16.7249 17.25ZM16.7422 14.9473C17.4467 14.9473 18.0357 14.77 18.5093 14.4153C18.9828 14.0553 19.3351 13.5736 19.5661 12.9702C19.8028 12.3667 19.9212 11.6944 19.9212 10.9533C19.9212 10.2069 19.8028 9.532 19.5661 8.92854C19.3351 8.31978 18.9828 7.83542 18.5093 7.47546C18.0357 7.1155 17.4467 6.93552 16.7422 6.93552C16.0203 6.93552 15.4198 7.1155 14.9404 7.47546C14.4669 7.83542 14.1118 8.31978 13.875 8.92854C13.644 9.532 13.5285 10.2069 13.5285 10.9533C13.5285 11.6944 13.644 12.3667 13.875 12.9702C14.1118 13.5736 14.4669 14.0553 14.9404 14.4153C15.4198 14.77 16.0203 14.9473 16.7422 14.9473Z" fill="#574EFA"/>
<path d="M32.2701 4.81545V7.03874H24.6213V4.81545H32.2701ZM26.5097 1.89341H29.6454V13.3434C29.6454 13.7298 29.7089 14.0262 29.836 14.2327C29.9688 14.4338 30.142 14.5715 30.3557 14.6456C30.5694 14.7197 30.8061 14.7567 31.066 14.7567C31.2624 14.7567 31.4414 14.7435 31.6031 14.717C31.7705 14.6906 31.8976 14.6667 31.9842 14.6456L32.5126 16.8927C32.3451 16.9456 32.1055 17.0039 31.7936 17.0674C31.4876 17.1309 31.1122 17.168 30.6675 17.1785C29.8822 17.1997 29.1748 17.0912 28.5453 16.853C27.9159 16.6095 27.4163 16.2336 27.0468 15.7255C26.6829 15.2173 26.5039 14.5821 26.5097 13.8198V1.89341Z" fill="#574EFA"/>
<path d="M40.5044 17.25C39.1704 17.25 38.0183 16.9959 37.0482 16.4877C36.0838 15.9743 35.3417 15.249 34.822 14.3121C34.3022 13.3698 34.0424 12.2608 34.0424 10.9851C34.0424 9.73051 34.3022 8.62945 34.822 7.68191C35.3475 6.72907 36.0809 5.98797 37.0222 5.45861C37.9635 4.92397 39.0693 4.65664 40.3398 4.65664C41.1598 4.65664 41.9336 4.77839 42.6612 5.0219C43.3946 5.26011 44.0414 5.63066 44.6016 6.13354C45.1675 6.63643 45.6122 7.27695 45.9355 8.0551C46.2589 8.82796 46.4206 9.74904 46.4206 10.8183V11.6997H35.5149V9.76227H43.4148C43.4091 9.21174 43.2791 8.72209 43.0251 8.29331C42.771 7.85924 42.4158 7.51781 41.9596 7.26901C41.5092 7.02021 40.9837 6.89581 40.3831 6.89581C39.7421 6.89581 39.179 7.03874 38.694 7.32459C38.2089 7.60515 37.8306 7.9757 37.5592 8.43624C37.2936 8.89148 37.1579 9.39172 37.1521 9.93696V11.6282C37.1521 12.3376 37.2936 12.9463 37.5765 13.4545C37.8595 13.9574 38.2551 14.3438 38.7633 14.6138C39.2714 14.8785 39.8662 15.0108 40.5477 15.0108C41.0039 15.0108 41.4168 14.9526 41.7864 14.8361C42.1559 14.7144 42.4764 14.5371 42.7479 14.3041C43.0193 14.0712 43.2243 13.7827 43.3629 13.4386L46.2907 13.7404C46.1059 14.4497 45.7536 15.0691 45.2339 15.5984C44.7199 16.1225 44.0616 16.5301 43.2589 16.8212C42.4562 17.1071 41.538 17.25 40.5044 17.25Z" fill="#574EFA"/>
<path d="M52.0736 0.75V17.0118H48.9379V0.75H52.0736Z" fill="#574EFA"/>
</svg>
