<svg width="52" height="18" viewBox="0 0 52 18" fill="none" xmlns="http://www.w3.org/2000/svg">
<path d="M8.24831 4.81545V7.03874H0.599609V4.81545H8.24831ZM2.48796 1.89341H5.62367V13.3434C5.62367 13.7298 5.68719 14.0262 5.81424 14.2327C5.94706 14.4338 6.1203 14.5715 6.33397 14.6456C6.54764 14.7197 6.7844 14.7567 7.04427 14.7567C7.24061 14.7567 7.41963 14.7435 7.58132 14.717C7.74879 14.6906 7.87584 14.6667 7.96246 14.6456L8.49085 16.8927C8.32338 16.9456 8.08373 17.0039 7.77189 17.0674C7.46583 17.1309 7.09047 17.168 6.64581 17.1785C5.86044 17.1997 5.15303 17.0912 4.52358 16.853C3.89412 16.6095 3.39461 16.2336 3.02502 15.7255C2.66121 15.2173 2.48219 14.5821 2.48796 13.8198V1.89341Z" fill="#574EFA"/>
<path d="M16.396 17.25C15.0967 17.25 13.9706 16.988 13.0178 16.4639C12.0649 15.9398 11.3257 15.2067 10.8002 14.2644C10.2805 13.3222 10.0206 12.2211 10.0206 10.9613C10.0206 9.7014 10.2805 8.59769 10.8002 7.65014C11.3257 6.7026 12.0649 5.96679 13.0178 5.44273C13.9706 4.91867 15.0967 4.65664 16.396 4.65664C17.6953 4.65664 18.8214 4.91867 19.7742 5.44273C20.7271 5.96679 21.4634 6.7026 21.9831 7.65014C22.5086 8.59769 22.7714 9.7014 22.7714 10.9613C22.7714 12.2211 22.5086 13.3222 21.9831 14.2644C21.4634 15.2067 20.7271 15.9398 19.7742 16.4639C18.8214 16.988 17.6953 17.25 16.396 17.25ZM16.4133 14.9473C17.1178 14.9473 17.7069 14.77 18.1804 14.4153C18.6539 14.0553 19.0062 13.5736 19.2372 12.9702C19.474 12.3667 19.5923 11.6944 19.5923 10.9533C19.5923 10.2069 19.474 9.532 19.2372 8.92854C19.0062 8.31978 18.6539 7.83542 18.1804 7.47546C17.7069 7.1155 17.1178 6.93552 16.4133 6.93552C15.6915 6.93552 15.0909 7.1155 14.6116 7.47546C14.1381 7.83542 13.7829 8.31978 13.5461 8.92854C13.3152 9.532 13.1997 10.2069 13.1997 10.9533C13.1997 11.6944 13.3152 12.3667 13.5461 12.9702C13.7829 13.5736 14.1381 14.0553 14.6116 14.4153C15.0909 14.77 15.6915 14.9473 16.4133 14.9473Z" fill="#574EFA"/>
<path d="M31.9412 4.81545V7.03874H24.2925V4.81545H31.9412ZM26.1808 1.89341H29.3166V13.3434C29.3166 13.7298 29.3801 14.0262 29.5071 14.2327C29.6399 14.4338 29.8132 14.5715 30.0269 14.6456C30.2405 14.7197 30.4773 14.7567 30.7372 14.7567C30.9335 14.7567 31.1125 14.7435 31.2742 14.717C31.4417 14.6906 31.5687 14.6667 31.6553 14.6456L32.1837 16.8927C32.0163 16.9456 31.7766 17.0039 31.4648 17.0674C31.1587 17.1309 30.7833 17.168 30.3387 17.1785C29.5533 17.1997 28.8459 17.0912 28.2165 16.853C27.587 16.6095 27.0875 16.2336 26.7179 15.7255C26.3541 15.2173 26.1751 14.5821 26.1808 13.8198V1.89341Z" fill="#574EFA"/>
<path d="M40.1755 17.25C38.8415 17.25 37.6895 16.9959 36.7193 16.4877C35.7549 15.9743 35.0128 15.249 34.4931 14.3121C33.9734 13.3698 33.7135 12.2608 33.7135 10.9851C33.7135 9.73051 33.9734 8.62945 34.4931 7.68191C35.0186 6.72907 35.752 5.98797 36.6933 5.45861C37.6346 4.92397 38.7405 4.65664 40.0109 4.65664C40.8309 4.65664 41.6048 4.77839 42.3324 5.0219C43.0658 5.26011 43.7126 5.63066 44.2727 6.13354C44.8386 6.63643 45.2833 7.27695 45.6067 8.0551C45.9301 8.82796 46.0918 9.74904 46.0918 10.8183V11.6997H35.1861V9.76227H43.086C43.0802 9.21174 42.9503 8.72209 42.6962 8.29331C42.4421 7.85924 42.087 7.51781 41.6307 7.26901C41.1803 7.02021 40.6548 6.89581 40.0542 6.89581C39.4132 6.89581 38.8502 7.03874 38.3651 7.32459C37.88 7.60515 37.5018 7.9757 37.2304 8.43624C36.9647 8.89148 36.829 9.39172 36.8232 9.93696V11.6282C36.8232 12.3376 36.9647 12.9463 37.2477 13.4545C37.5306 13.9574 37.9262 14.3438 38.4344 14.6138C38.9426 14.8785 39.5374 15.0108 40.2188 15.0108C40.675 15.0108 41.0879 14.9526 41.4575 14.8361C41.8271 14.7144 42.1476 14.5371 42.419 14.3041C42.6904 14.0712 42.8954 13.7827 43.034 13.4386L45.9618 13.7404C45.777 14.4497 45.4248 15.0691 44.905 15.5984C44.3911 16.1225 43.7328 16.5301 42.9301 16.8212C42.1274 17.1071 41.2092 17.25 40.1755 17.25Z" fill="#574EFA"/>
<path d="M51.7448 0.75V17.0118H48.609V0.75H51.7448Z" fill="#574EFA"/>
</svg>
