<svg width="52" height="18" viewBox="0 0 52 18" fill="none" xmlns="http://www.w3.org/2000/svg">
<path d="M7.99807 4.81545V7.03874H0.349365V4.81545H7.99807ZM2.23772 1.89341H5.37343V13.3434C5.37343 13.7298 5.43695 14.0262 5.56399 14.2327C5.69681 14.4338 5.87006 14.5715 6.08373 14.6456C6.29739 14.7197 6.53416 14.7567 6.79402 14.7567C6.99037 14.7567 7.16939 14.7435 7.33108 14.717C7.49855 14.6906 7.62559 14.6667 7.71222 14.6456L8.24061 16.8927C8.07314 16.9456 7.83349 17.0039 7.52165 17.0674C7.21558 17.1309 6.84022 17.168 6.39557 17.1785C5.61019 17.1997 4.90278 17.0912 4.27333 16.853C3.64388 16.6095 3.14436 16.2336 2.77477 15.7255C2.41096 15.2173 2.23194 14.5821 2.23772 13.8198V1.89341Z" fill="#574EFA"/>
<path d="M16.1458 17.25C14.8464 17.25 13.7203 16.988 12.7675 16.4639C11.8147 15.9398 11.0755 15.2067 10.55 14.2644C10.0303 13.3222 9.7704 12.2211 9.7704 10.9613C9.7704 9.7014 10.0303 8.59769 10.55 7.65014C11.0755 6.7026 11.8147 5.96679 12.7675 5.44273C13.7203 4.91867 14.8464 4.65664 16.1458 4.65664C17.4451 4.65664 18.5712 4.91867 19.524 5.44273C20.4768 5.96679 21.2131 6.7026 21.7329 7.65014C22.2584 8.59769 22.5211 9.7014 22.5211 10.9613C22.5211 12.2211 22.2584 13.3222 21.7329 14.2644C21.2131 15.2067 20.4768 15.9398 19.524 16.4639C18.5712 16.988 17.4451 17.25 16.1458 17.25ZM16.1631 14.9473C16.8676 14.9473 17.4566 14.77 17.9302 14.4153C18.4037 14.0553 18.756 13.5736 18.987 12.9702C19.2237 12.3667 19.3421 11.6944 19.3421 10.9533C19.3421 10.2069 19.2237 9.532 18.987 8.92854C18.756 8.31978 18.4037 7.83542 17.9302 7.47546C17.4566 7.1155 16.8676 6.93552 16.1631 6.93552C15.4412 6.93552 14.8407 7.1155 14.3613 7.47546C13.8878 7.83542 13.5327 8.31978 13.2959 8.92854C13.0649 9.532 12.9494 10.2069 12.9494 10.9533C12.9494 11.6944 13.0649 12.3667 13.2959 12.9702C13.5327 13.5736 13.8878 14.0553 14.3613 14.4153C14.8407 14.77 15.4412 14.9473 16.1631 14.9473Z" fill="#574EFA"/>
<path d="M31.691 4.81545V7.03874H24.0422V4.81545H31.691ZM25.9306 1.89341H29.0663V13.3434C29.0663 13.7298 29.1298 14.0262 29.2569 14.2327C29.3897 14.4338 29.5629 14.5715 29.7766 14.6456C29.9903 14.7197 30.227 14.7567 30.4869 14.7567C30.6832 14.7567 30.8623 14.7435 31.024 14.717C31.1914 14.6906 31.3185 14.6667 31.4051 14.6456L31.9335 16.8927C31.766 16.9456 31.5264 17.0039 31.2145 17.0674C30.9085 17.1309 30.5331 17.168 30.0884 17.1785C29.3031 17.1997 28.5957 17.0912 27.9662 16.853C27.3368 16.6095 26.8372 16.2336 26.4677 15.7255C26.1038 15.2173 25.9248 14.5821 25.9306 13.8198V1.89341Z" fill="#574EFA"/>
<path d="M39.9253 17.25C38.5913 17.25 37.4392 16.9959 36.4691 16.4877C35.5047 15.9743 34.7626 15.249 34.2429 14.3121C33.7231 13.3698 33.4633 12.2608 33.4633 10.9851C33.4633 9.73051 33.7231 8.62945 34.2429 7.68191C34.7684 6.72907 35.5018 5.98797 36.4431 5.45861C37.3844 4.92397 38.4902 4.65664 39.7607 4.65664C40.5807 4.65664 41.3545 4.77839 42.0821 5.0219C42.8155 5.26011 43.4623 5.63066 44.0225 6.13354C44.5884 6.63643 45.0331 7.27695 45.3564 8.0551C45.6798 8.82796 45.8415 9.74904 45.8415 10.8183V11.6997H34.9358V9.76227H42.8357C42.83 9.21174 42.7 8.72209 42.446 8.29331C42.1919 7.85924 41.8367 7.51781 41.3805 7.26901C40.9301 7.02021 40.4046 6.89581 39.804 6.89581C39.163 6.89581 38.5999 7.03874 38.1149 7.32459C37.6298 7.60515 37.2515 7.9757 36.9801 8.43624C36.7145 8.89148 36.5788 9.39172 36.573 9.93696V11.6282C36.573 12.3376 36.7145 12.9463 36.9974 13.4545C37.2804 13.9574 37.676 14.3438 38.1842 14.6138C38.6923 14.8785 39.2871 15.0108 39.9686 15.0108C40.4248 15.0108 40.8377 14.9526 41.2073 14.8361C41.5768 14.7144 41.8973 14.5371 42.1688 14.3041C42.4402 14.0712 42.6452 13.7827 42.7838 13.4386L45.7116 13.7404C45.5268 14.4497 45.1745 15.0691 44.6548 15.5984C44.1408 16.1225 43.4825 16.5301 42.6798 16.8212C41.8771 17.1071 40.9589 17.25 39.9253 17.25Z" fill="#574EFA"/>
<path d="M51.4945 0.75V17.0118H48.3588V0.75H51.4945Z" fill="#574EFA"/>
</svg>
