<svg width="21" height="28" viewBox="0 0 21 28" fill="none" xmlns="http://www.w3.org/2000/svg">
<path fill-rule="evenodd" clip-rule="evenodd" d="M19.323 8.73635L17.9625 7.37592V3.18698C17.9625 2.69462 17.5589 2.29105 17.0626 2.29105H15.6904C15.1981 2.29105 14.7945 2.69462 14.7945 3.18698V4.20789L10.9408 0.354194C10.4727 -0.117983 9.70587 -0.117983 9.23773 0.354194L0.85557 8.73635C0.383392 9.20449 0 10.1327 0 10.7946V12.2716C4.42717 15.5607 9.90765 17.5059 15.8442 17.5059C17.3212 17.5059 18.7701 17.3849 20.1785 17.1548V10.7946C20.1785 10.1327 19.7951 9.20449 19.323 8.73635ZM11.9249 22.8128V27.5467C11.9249 27.9502 12.4132 28.152 12.6998 27.8655L17.7524 22.8128H18.9718C19.6337 22.8128 20.1785 22.268 20.1785 21.6062V18.5108C18.7701 18.7408 17.3212 18.8619 15.8442 18.8619C9.90765 18.8619 4.42717 16.9167 0 13.6316V21.6062C0 22.268 0.544821 22.8128 1.20668 22.8128H11.9249Z" fill="#574EFA"/>
</svg>
