<svg width="23" height="28" viewBox="0 0 23 28" fill="none" xmlns="http://www.w3.org/2000/svg">
<path fill-rule="evenodd" clip-rule="evenodd" d="M21.6412 8.73634L20.1179 7.37625V3.18672C20.1179 2.69437 19.6659 2.2908 19.11 2.2908H17.5732C17.0218 2.2908 16.5698 2.69437 16.5698 3.18672V4.20822L12.2534 0.354194C11.7291 -0.117983 10.8703 -0.117983 10.346 0.354194L0.958215 8.73634C0.429389 9.20448 0 10.1327 0 10.7945V12.2716C4.95831 15.5607 11.0963 17.5059 17.7451 17.5059C19.3993 17.5059 21.022 17.3848 22.5994 17.1548V10.7945C22.5994 10.1327 22.17 9.20448 21.6412 8.73634ZM13.3559 22.8128V27.5467C13.3559 27.9502 13.9028 28.152 14.2237 27.8655L19.8826 22.8128H13.3559ZM0 13.6304C4.95831 16.9154 11.0963 18.8606 17.7451 18.8606C19.3993 18.8606 21.022 18.7396 22.5994 18.5095V21.6049C22.5994 22.2668 21.9892 22.8116 21.248 22.8116H1.35145C0.610185 22.8116 0 22.2668 0 21.6049V13.6304Z" fill="#574EFA"/>
</svg>
