<svg width="21" height="28" viewBox="0 0 21 28" fill="none" xmlns="http://www.w3.org/2000/svg">
<path fill-rule="evenodd" clip-rule="evenodd" d="M20.073 8.73635L18.7125 7.37592V3.18698C18.7125 2.69462 18.3089 2.29105 17.8126 2.29105H16.4404C15.9481 2.29105 15.5445 2.69462 15.5445 3.18698V4.20789L11.6908 0.354194C11.2227 -0.117983 10.4559 -0.117983 9.98773 0.354194L1.60557 8.73635C1.13339 9.20449 0.75 10.1327 0.75 10.7946V12.2716C5.17717 15.5607 10.6577 17.5059 16.5942 17.5059C18.0712 17.5059 19.5201 17.3849 20.9285 17.1548V10.7946C20.9285 10.1327 20.5451 9.20449 20.073 8.73635ZM12.6749 22.8128V27.5467C12.6749 27.9502 13.1632 28.152 13.4498 27.8655L18.5024 22.8128H19.7218C20.3837 22.8128 20.9285 22.268 20.9285 21.6062V18.5108C19.5201 18.7408 18.0712 18.8619 16.5942 18.8619C10.6577 18.8619 5.17717 16.9167 0.75 13.6316V21.6062C0.75 22.268 1.29482 22.8128 1.95668 22.8128H12.6749Z" fill="#574EFA"/>
</svg>
