<svg width="24" height="28" viewBox="0 0 24 28" fill="none" xmlns="http://www.w3.org/2000/svg">
<path fill-rule="evenodd" clip-rule="evenodd" d="M22.3912 8.73634L20.8679 7.37625V3.18672C20.8679 2.69437 20.4159 2.2908 19.86 2.2908H18.3232C17.7718 2.2908 17.3198 2.69437 17.3198 3.18672V4.20822L13.0034 0.354194C12.4791 -0.117983 11.6203 -0.117983 11.096 0.354194L1.70822 8.73634C1.17939 9.20448 0.75 10.1327 0.75 10.7945V12.2716C5.70831 15.5607 11.8463 17.5059 18.4951 17.5059C20.1493 17.5059 21.772 17.3848 23.3494 17.1548V10.7945C23.3494 10.1327 22.92 9.20448 22.3912 8.73634ZM14.1059 22.8128V27.5467C14.1059 27.9502 14.6528 28.152 14.9737 27.8655L20.6326 22.8128H14.1059ZM0.75 13.6304C5.70831 16.9154 11.8463 18.8606 18.4951 18.8606C20.1493 18.8606 21.772 18.7396 23.3494 18.5095V21.6049C23.3494 22.2668 22.7392 22.8116 21.998 22.8116H2.10145C1.36018 22.8116 0.75 22.2668 0.75 21.6049V13.6304Z" fill="#574EFA"/>
</svg>
