<svg width="22" height="22" viewBox="0 0 22 22" fill="none" xmlns="http://www.w3.org/2000/svg">
<g clip-path="url(#clip0_101_663752)">
<path d="M20.3766 21.7903C20.7671 22.1808 21.4002 22.1808 21.7908 21.7903C22.1813 21.3998 22.1813 20.7666 21.7908 20.3761L20.3766 21.7903ZM16.5248 9.22043C16.5248 13.2543 13.2548 16.5243 9.22091 16.5243V18.5243C14.3593 18.5243 18.5248 14.3588 18.5248 9.22043H16.5248ZM9.22091 16.5243C5.18707 16.5243 1.91699 13.2543 1.91699 9.22043H-0.0830078C-0.0830078 14.3588 4.0825 18.5243 9.22091 18.5243V16.5243ZM1.91699 9.22043C1.91699 5.18658 5.18707 1.9165 9.22091 1.9165V-0.0834961C4.0825 -0.0834961 -0.0830078 4.08201 -0.0830078 9.22043H1.91699ZM9.22091 1.9165C13.2548 1.9165 16.5248 5.18658 16.5248 9.22043H18.5248C18.5248 4.08201 14.3593 -0.0834961 9.22091 -0.0834961V1.9165ZM14.4452 15.8589L20.3766 21.7903L21.7908 20.3761L15.8594 14.4447L14.4452 15.8589Z" fill="white"/>
</g>
<defs>
<clipPath id="clip0_101_663752">
<rect width="22" height="22" fill="white"/>
</clipPath>
</defs>
</svg>
