<svg width="22" height="22" viewBox="0 0 22 22" fill="none" xmlns="http://www.w3.org/2000/svg">
<g clip-path="url(#clip0_101_22058)">
<path d="M20.3761 21.7903C20.7666 22.1808 21.3998 22.1808 21.7903 21.7903C22.1808 21.3998 22.1808 20.7666 21.7903 20.3761L20.3761 21.7903ZM16.5243 9.22043C16.5243 13.2543 13.2543 16.5243 9.22043 16.5243V18.5243C14.3588 18.5243 18.5243 14.3588 18.5243 9.22043H16.5243ZM9.22043 16.5243C5.18658 16.5243 1.9165 13.2543 1.9165 9.22043H-0.0834961C-0.0834961 14.3588 4.08201 18.5243 9.22043 18.5243V16.5243ZM1.9165 9.22043C1.9165 5.18658 5.18658 1.9165 9.22043 1.9165V-0.0834961C4.08201 -0.0834961 -0.0834961 4.08201 -0.0834961 9.22043H1.9165ZM9.22043 1.9165C13.2543 1.9165 16.5243 5.18658 16.5243 9.22043H18.5243C18.5243 4.08201 14.3588 -0.0834961 9.22043 -0.0834961V1.9165ZM14.4447 15.8589L20.3761 21.7903L21.7903 20.3761L15.8589 14.4447L14.4447 15.8589Z" fill="white"/>
</g>
<defs>
<clipPath id="clip0_101_22058">
<rect width="22" height="22" fill="white"/>
</clipPath>
</defs>
</svg>
